<?xml version="1.0" encoding="UTF-8" standalone="no"?>
<svg
   xmlns:dc="http://purl.org/dc/elements/1.1/"
   xmlns:cc="http://creativecommons.org/ns#"
   xmlns:rdf="http://www.w3.org/1999/02/22-rdf-syntax-ns#"
   xmlns:svg="http://www.w3.org/2000/svg"
   xmlns="http://www.w3.org/2000/svg"
   xmlns:sodipodi="http://sodipodi.sourceforge.net/DTD/sodipodi-0.dtd"
   xmlns:inkscape="http://www.inkscape.org/namespaces/inkscape"
   width="300"
   height="300"
   version="1.1"
   viewBox="0 0 79.375 79.375"
   id="svg63"
   sodipodi:docname="panritaSchool.svg"
   inkscape:version="1.0.2-2 (e86c870879, 2021-01-15)">
  <sodipodi:namedview
     pagecolor="#ffffff"
     bordercolor="#666666"
     borderopacity="1"
     objecttolerance="10"
     gridtolerance="10"
     guidetolerance="10"
     inkscape:pageopacity="0"
     inkscape:pageshadow="2"
     inkscape:window-width="1920"
     inkscape:window-height="986"
     id="namedview65"
     showgrid="false"
     inkscape:zoom="0.92490917"
     inkscape:cx="-159.67986"
     inkscape:cy="244.93426"
     inkscape:window-x="-11"
     inkscape:window-y="-11"
     inkscape:window-maximized="1"
     inkscape:current-layer="svg63" />
  <metadata
     id="metadata2">
    <rdf:RDF>
      <cc:Work
         rdf:about="">
        <dc:format>image/svg+xml</dc:format>
        <dc:type
           rdf:resource="http://purl.org/dc/dcmitype/StillImage" />
        <dc:title />
      </cc:Work>
    </rdf:RDF>
  </metadata>
  <defs
     id="defs19">
    <linearGradient
       id="linearGradient4616"
       x1="3.7301"
       x2="39.427"
       y1="277.21"
       y2="277.21"
       gradientTransform="matrix(0.79309,0,0,0.7931,-11.816,49.614968)"
       gradientUnits="userSpaceOnUse">
      <stop
         stop-color="#c0b266"
         offset="0"
         id="stop4" />
      <stop
         stop-color="#c0b266"
         stop-opacity="0"
         offset="1"
         id="stop6" />
    </linearGradient>
    <linearGradient
       id="linearGradient4672"
       x1="6.5201"
       x2="-23.812"
       y1="290.57"
       y2="267.14"
       gradientTransform="matrix(0.79309,0,0,0.7931,-11.816,49.614968)"
       gradientUnits="userSpaceOnUse">
      <stop
         stop-color="#36c"
         offset="0"
         id="stop9" />
      <stop
         stop-color="#36c"
         stop-opacity="0"
         offset="1"
         id="stop11" />
    </linearGradient>
    <linearGradient
       id="linearGradient846"
       x1="39.395"
       x2="39.042"
       y1="-23.142"
       y2="52.821"
       gradientUnits="userSpaceOnUse">
      <stop
         offset="0"
         id="stop14" />
      <stop
         stop-opacity="0"
         offset="1"
         id="stop16" />
    </linearGradient>
  </defs>
  <g
     id="g1051">
    <g
       id="circle21-2"
       transform="scale(1.0000299)"
       style="fill:#ffffff;stroke:none;stroke-width:0.26458;stroke-opacity:1">
      <path
         style="color:#000000;font-style:normal;font-variant:normal;font-weight:normal;font-stretch:normal;font-size:medium;line-height:normal;font-family:sans-serif;font-variant-ligatures:normal;font-variant-position:normal;font-variant-caps:normal;font-variant-numeric:normal;font-variant-alternates:normal;font-variant-east-asian:normal;font-feature-settings:normal;font-variation-settings:normal;text-indent:0;text-align:start;text-decoration:none;text-decoration-line:none;text-decoration-style:solid;text-decoration-color:#000000;letter-spacing:normal;word-spacing:normal;text-transform:none;writing-mode:lr-tb;direction:ltr;text-orientation:mixed;dominant-baseline:auto;baseline-shift:baseline;text-anchor:start;white-space:normal;shape-padding:0;shape-margin:0;inline-size:0;clip-rule:nonzero;display:inline;overflow:visible;visibility:visible;isolation:auto;mix-blend-mode:normal;color-interpolation:sRGB;color-interpolation-filters:linearRGB;solid-color:#000000;solid-opacity:1;vector-effect:none;fill:#ffffff;fill-opacity:1;fill-rule:nonzero;stroke:none;stroke-width:0.26458;stroke-linecap:square;stroke-linejoin:round;stroke-miterlimit:4;stroke-dasharray:none;stroke-dashoffset:0;stroke-opacity:1;color-rendering:auto;image-rendering:auto;shape-rendering:auto;text-rendering:auto;enable-background:accumulate;stop-color:#000000;stop-opacity:1"
         d="m 79.242001,39.687 c 0,21.845624 -17.709377,39.555001 -39.555001,39.555001 C 17.841377,79.242001 0.13199997,61.532624 0.13199997,39.687 0.13199997,17.841377 17.841377,0.13199997 39.687,0.13199997 c 21.845624,0 39.555001,17.70937703 39.555001,39.55500003 z"
         id="path892-4" />
      <path
         style="color:#000000;font-style:normal;font-variant:normal;font-weight:normal;font-stretch:normal;font-size:medium;line-height:normal;font-family:sans-serif;font-variant-ligatures:normal;font-variant-position:normal;font-variant-caps:normal;font-variant-numeric:normal;font-variant-alternates:normal;font-variant-east-asian:normal;font-feature-settings:normal;font-variation-settings:normal;text-indent:0;text-align:start;text-decoration:none;text-decoration-line:none;text-decoration-style:solid;text-decoration-color:#000000;letter-spacing:normal;word-spacing:normal;text-transform:none;writing-mode:lr-tb;direction:ltr;text-orientation:mixed;dominant-baseline:auto;baseline-shift:baseline;text-anchor:start;white-space:normal;shape-padding:0;shape-margin:0;inline-size:0;clip-rule:nonzero;display:inline;overflow:visible;visibility:visible;isolation:auto;mix-blend-mode:normal;color-interpolation:sRGB;color-interpolation-filters:linearRGB;solid-color:#000000;solid-opacity:1;vector-effect:none;fill:#ffffff;fill-opacity:1;fill-rule:nonzero;stroke:none;stroke-linecap:square;stroke-linejoin:round;stroke-miterlimit:4;stroke-dasharray:none;stroke-dashoffset:0;stroke-opacity:1;color-rendering:auto;image-rendering:auto;shape-rendering:auto;text-rendering:auto;enable-background:accumulate;stop-color:#000000;stop-opacity:1"
         d="M 39.6875,0 C 17.770382,0 0,17.770382 0,39.6875 0,61.604618 17.770382,79.375 39.6875,79.375 61.604618,79.375 79.375,61.604618 79.375,39.6875 79.375,17.770382 61.604618,0 39.6875,0 Z m 0,0.26367188 c 21.774129,0 39.421875,17.64969912 39.421875,39.42382812 0,21.774129 -17.647746,39.421875 -39.421875,39.421875 C 17.913371,79.109375 0.26367188,61.461629 0.26367188,39.6875 0.26367188,17.913371 17.913371,0.26367188 39.6875,0.26367188 Z"
         id="path894-7" />
    </g>
    <g
       id="circle21"
       transform="scale(1.0000299)"
       style="stroke-width:0.26457542;stroke:none;stroke-miterlimit:4;stroke-dasharray:none">
      <path
         style="color:#000000;font-style:normal;font-variant:normal;font-weight:normal;font-stretch:normal;font-size:medium;line-height:normal;font-family:sans-serif;font-variant-ligatures:normal;font-variant-position:normal;font-variant-caps:normal;font-variant-numeric:normal;font-variant-alternates:normal;font-variant-east-asian:normal;font-feature-settings:normal;font-variation-settings:normal;text-indent:0;text-align:start;text-decoration:none;text-decoration-line:none;text-decoration-style:solid;text-decoration-color:#000000;letter-spacing:normal;word-spacing:normal;text-transform:none;writing-mode:lr-tb;direction:ltr;text-orientation:mixed;dominant-baseline:auto;baseline-shift:baseline;text-anchor:start;white-space:normal;shape-padding:0;shape-margin:0;inline-size:0;clip-rule:nonzero;display:inline;overflow:visible;visibility:visible;isolation:auto;mix-blend-mode:normal;color-interpolation:sRGB;color-interpolation-filters:linearRGB;solid-color:#000000;solid-opacity:1;vector-effect:none;fill:url(#linearGradient846);fill-opacity:1;fill-rule:nonzero;stroke:none;stroke-width:0.26457542;stroke-linecap:square;stroke-linejoin:round;stroke-miterlimit:4;stroke-dasharray:none;stroke-dashoffset:0;stroke-opacity:1;color-rendering:auto;image-rendering:auto;shape-rendering:auto;text-rendering:auto;enable-background:accumulate;stop-color:#000000;stop-opacity:1"
         d="m 79.242001,39.687 c 0,21.845624 -17.709377,39.555001 -39.555001,39.555001 C 17.841377,79.242001 0.13199997,61.532624 0.13199997,39.687 0.13199997,17.841377 17.841377,0.13199997 39.687,0.13199997 c 21.845624,0 39.555001,17.70937703 39.555001,39.55500003 z"
         id="path892" />
      <path
         style="color:#000000;font-style:normal;font-variant:normal;font-weight:normal;font-stretch:normal;font-size:medium;line-height:normal;font-family:sans-serif;font-variant-ligatures:normal;font-variant-position:normal;font-variant-caps:normal;font-variant-numeric:normal;font-variant-alternates:normal;font-variant-east-asian:normal;font-feature-settings:normal;font-variation-settings:normal;text-indent:0;text-align:start;text-decoration:none;text-decoration-line:none;text-decoration-style:solid;text-decoration-color:#000000;letter-spacing:normal;word-spacing:normal;text-transform:none;writing-mode:lr-tb;direction:ltr;text-orientation:mixed;dominant-baseline:auto;baseline-shift:baseline;text-anchor:start;white-space:normal;shape-padding:0;shape-margin:0;inline-size:0;clip-rule:nonzero;display:inline;overflow:visible;visibility:visible;isolation:auto;mix-blend-mode:normal;color-interpolation:sRGB;color-interpolation-filters:linearRGB;solid-color:#000000;solid-opacity:1;vector-effect:none;fill:#ffffff;fill-opacity:1;fill-rule:nonzero;stroke:none;stroke-linecap:square;stroke-linejoin:round;stroke-miterlimit:4;stroke-dasharray:none;stroke-dashoffset:0;stroke-opacity:1;color-rendering:auto;image-rendering:auto;shape-rendering:auto;text-rendering:auto;enable-background:accumulate;stop-color:#000000;stop-opacity:1;stroke-width:0.26457542"
         d="M 39.6875,0 C 17.770382,0 0,17.770382 0,39.6875 0,61.604618 17.770382,79.375 39.6875,79.375 61.604618,79.375 79.375,61.604618 79.375,39.6875 79.375,17.770382 61.604618,0 39.6875,0 Z m 0,0.26367188 c 21.774129,0 39.421875,17.64969912 39.421875,39.42382812 0,21.774129 -17.647746,39.421875 -39.421875,39.421875 C 17.913371,79.109375 0.26367188,61.461629 0.26367188,39.6875 0.26367188,17.913371 17.913371,0.26367188 39.6875,0.26367188 Z"
         id="path894" />
    </g>
    <g
       transform="matrix(1.2608856,0,0,1.2609042,14.898724,-319.56854)"
       id="g27"
       style="stroke-width:0.26458">
      <g
         id="path23"
         style="opacity:1">
        <path
           style="color:#000000;font-style:normal;font-variant:normal;font-weight:normal;font-stretch:normal;font-size:medium;line-height:normal;font-family:sans-serif;font-variant-ligatures:normal;font-variant-position:normal;font-variant-caps:normal;font-variant-numeric:normal;font-variant-alternates:normal;font-variant-east-asian:normal;font-feature-settings:normal;font-variation-settings:normal;text-indent:0;text-align:start;text-decoration:none;text-decoration-line:none;text-decoration-style:solid;text-decoration-color:#000000;letter-spacing:normal;word-spacing:normal;text-transform:none;writing-mode:lr-tb;direction:ltr;text-orientation:mixed;dominant-baseline:auto;baseline-shift:baseline;text-anchor:start;white-space:normal;shape-padding:0;shape-margin:0;inline-size:0;clip-rule:nonzero;display:inline;overflow:visible;visibility:visible;isolation:auto;mix-blend-mode:normal;color-interpolation:sRGB;color-interpolation-filters:linearRGB;solid-color:#000000;solid-opacity:1;vector-effect:none;fill:#3366cc;fill-opacity:1;fill-rule:nonzero;stroke:none;stroke-width:0.86305;stroke-linecap:butt;stroke-linejoin:miter;stroke-miterlimit:4;stroke-dasharray:none;stroke-dashoffset:0;stroke-opacity:1;color-rendering:auto;image-rendering:auto;shape-rendering:auto;text-rendering:auto;enable-background:accumulate;stop-color:#000000;stop-opacity:1"
           d="m 17.839,257.81 c -0.06836,0.0247 -0.12959,0.0645 -0.20642,0.0957 -0.2215,0.09 -0.47641,0.3513 -0.70334,0.67198 -0.22694,0.32069 -0.42329,0.70082 -0.5084,1.0334 -0.29758,1.1629 -0.07775,2.7879 0.55809,4.1647 0.12427,0.26909 0.54723,0.9015 1.6207,2.393 1.07347,1.4915 2.7956,3.8362 5.5102,7.5149 2.7039,3.6642 4.4109,5.9897 5.4414,7.4211 0.51522,0.71569 0.86098,1.2072 1.078,1.5315 0.10848,0.16216 0.18466,0.28292 0.23317,0.36725 0.02426,0.0421 0.04274,0.0754 0.05352,0.0996 0.01077,0.0242 0.01338,0.0409 0.01338,0.0391 0,0.0305 -0.02027,0.0968 -0.07263,0.1973 -0.05236,0.10048 -0.1359,0.23653 -0.25802,0.41999 -0.24424,0.36692 -0.64231,0.92194 -1.2557,1.7542 -0.43816,0.5945 -0.844,1.134 -1.1448,1.5256 -0.15042,0.19582 -0.27456,0.35561 -0.36314,0.46492 -0.04429,0.0546 -0.08018,0.0969 -0.10512,0.12502 -0.0058,0.007 -0.0088,0.009 -0.01338,0.0137 -0.0027,-0.003 -0.0044,-0.004 -0.0076,-0.008 -0.02099,-0.0254 -0.05226,-0.0648 -0.09174,-0.11525 -0.07894,-0.10087 -0.19429,-0.24958 -0.3402,-0.44147 -0.29183,-0.3838 -0.70858,-0.93817 -1.2213,-1.6233 -1.0254,-1.3703 -2.4304,-3.2616 -3.9678,-5.3407 -2.7123,-3.6682 -4.1136,-5.5591 -4.8967,-6.5714 -0.39152,-0.50613 -0.62871,-0.79369 -0.79891,-0.9728 -0.1702,-0.17911 -0.27613,-0.25142 -0.39563,-0.32427 -0.72245,-0.44051 -1.4475,-0.56312 -2.1807,-0.36725 -0.27316,0.073 -0.46707,0.10912 -0.68996,0.24223 -0.22289,0.13311 -0.47161,0.36037 -0.85816,0.81068 -0.7731,0.9006 -2.1051,2.7005 -4.9043,6.4541 -2.7758,3.7223 -4.2503,5.7132 -5.0763,6.9523 -0.826,1.2391 -1.0052,1.7302 -1.1792,2.434 -0.37409,1.5128 -0.33251,2.6829 0.13952,3.9616 0.15146,0.41029 0.40596,0.89426 0.67085,1.3088 0.26489,0.41456 0.53397,0.75627 0.73392,0.8849 0.37986,0.2445 0.83349,0.20349 1.1716,-0.10743 0.01414,-0.013 0.032205,-0.0355 0.06116,-0.0703 0.028956,-0.0348 0.065965,-0.0818 0.11276,-0.14065 0.0936,-0.11763 0.22261,-0.28176 0.38225,-0.48836 0.31928,-0.41316 0.76227,-0.99374 1.2977,-1.6995 1.071,-1.4115 2.5093,-3.3223 4.0576,-5.3934 1.5483,-2.071 2.9642,-3.9578 3.9984,-5.329 0.51706,-0.6856 0.93982,-1.2427 1.2347,-1.6292 0.14743,-0.19322 0.26204,-0.34454 0.34212,-0.44733 0.04003,-0.0514 0.07211,-0.0906 0.09365,-0.11721 0.0038,-0.005 0.0064,-0.006 0.0096,-0.01 0.0016,0.002 0.0022,0.002 0.0038,0.004 0.02053,0.0233 0.05102,0.0594 0.08983,0.10744 0.07761,0.0961 0.18947,0.24047 0.33256,0.42585 0.28618,0.37077 0.69473,0.90821 1.1964,1.5745 1.0034,1.3325 2.3781,3.1765 3.8799,5.2079 1.7609,2.3818 3.1585,4.256 4.1474,5.5614 0.49445,0.65271 0.88789,1.1635 1.1716,1.5237 0.14185,0.18009 0.25686,0.32158 0.34403,0.42585 0.08717,0.10427 0.14343,0.16856 0.17966,0.19925 0.21097,0.17867 0.58022,0.41523 0.8314,0.53133 l 0.05733,0.0273 v -0.0254 c 0.55273,0.23604 1.3357,0.27638 1.9246,0.0684 0.45053,-0.1591 0.72952,-0.29164 1.2194,-0.82825 0.48986,-0.5366 1.1963,-1.4774 2.5267,-3.2681 0.70009,-0.94229 1.3539,-1.8408 1.8501,-2.5414 0.24811,-0.35029 0.4568,-0.65014 0.61352,-0.88295 0.15672,-0.23281 0.25938,-0.39632 0.30007,-0.47859 0.70223,-1.4196 0.73284,-3.1338 0.08983,-4.9266 -0.07673,-0.21393 -0.11034,-0.34281 -0.2714,-0.62119 -0.16106,-0.27837 -0.44983,-0.7082 -1.0435,-1.5334 -1.1874,-1.6505 -3.5931,-4.8871 -8.6255,-11.666 -4.2491,-5.7237 -6.2258,-8.4031 -7.2227,-9.6226 -0.49845,-0.60974 -0.749,-0.85661 -0.9327,-0.93765 -0.09185,-0.0405 -0.16863,-0.0345 -0.237,-0.01 z m 0.02485,0.0762 c 0.05604,-0.0203 0.10531,-0.0258 0.18157,0.008 0.15252,0.0673 0.40546,0.30667 0.90212,0.9142 0.99331,1.2151 2.9716,3.8969 7.2207,9.6207 5.0324,6.7789 7.4391,10.017 8.6255,11.666 0.59323,0.82458 0.88168,1.2524 1.0397,1.5256 0.15805,0.27317 0.18598,0.39067 0.26375,0.60751 0.63715,1.7764 0.60507,3.467 -0.08601,4.8641 -0.03493,0.0706 -0.1382,0.23491 -0.29434,0.46687 -0.15614,0.23195 -0.36564,0.533 -0.61351,0.88295 -0.49574,0.6999 -1.1465,1.5976 -1.8463,2.5395 -1.3303,1.7905 -2.0386,2.7318 -2.5229,3.2622 -0.48426,0.53048 -0.7394,0.64874 -1.1869,0.80677 -0.58329,0.206 -1.3956,0.17628 -1.9246,-0.0684 -0.24087,-0.11134 -0.61204,-0.34645 -0.8142,-0.51766 -0.02433,-0.0206 -0.08379,-0.0882 -0.1701,-0.19143 -0.08631,-0.10326 -0.20054,-0.24417 -0.34212,-0.4239 -0.28314,-0.35947 -0.67541,-0.86925 -1.1697,-1.5217 -0.98856,-1.305 -2.3867,-3.1798 -4.1474,-5.5614 -1.5019,-2.0315 -2.8762,-3.8751 -3.8799,-5.2079 -0.50183,-0.66641 -0.91182,-1.2052 -1.1984,-1.5764 -0.14327,-0.18562 -0.25423,-0.3288 -0.33256,-0.42585 -0.03916,-0.0485 -0.06974,-0.0863 -0.09174,-0.11135 -0.011,-0.0125 -0.02115,-0.022 -0.02867,-0.0293 -0.0037,-0.004 -0.0068,-0.006 -0.01147,-0.01 -0.0023,-0.002 -0.0089,-0.006 -0.0096,-0.006 -3.11e-4,-1.3e-4 -0.01123,-0.002 -0.01147,-0.002 -2.38e-4,-3e-5 -0.02086,0.002 -0.02103,0.002 -1.63e-4,8e-5 -0.0074,0.006 -0.0076,0.006 -2.4e-4,1.8e-4 -0.0029,0.001 -0.0038,0.002 -0.0019,0.002 -0.0024,0.002 -0.0038,0.004 -0.0027,0.003 -0.0062,0.006 -0.0096,0.01 -0.0068,0.008 -0.01569,0.0195 -0.02675,0.0332 -0.02215,0.0274 -0.05346,0.0675 -0.09365,0.11916 -0.08039,0.1032 -0.19652,0.254 -0.34403,0.44734 -0.29502,0.38667 -0.71565,0.94349 -1.2328,1.6292 -1.0342,1.3713 -2.45,3.2579 -3.9984,5.329 -1.5483,2.071 -2.9887,3.9822 -4.0595,5.3934 -0.53539,0.70563 -0.97873,1.2866 -1.2977,1.6995 -0.15951,0.20642 -0.28717,0.36932 -0.38034,0.4864 -0.04659,0.0585 -0.08446,0.10664 -0.11276,0.14066 -0.02831,0.034 -0.048537,0.056 -0.053518,0.0605 -0.3151,0.28976 -0.72317,0.3287 -1.076,0.10158 -0.17218,-0.11078 -0.44693,-0.4512 -0.70908,-0.86146 -0.26215,-0.41027 -0.51677,-0.89327 -0.66512,-1.2951 -0.46698,-1.265 -0.50711,-2.4108 -0.1357,-3.9127 0.17308,-0.6999 0.34422,-1.1732 1.1678,-2.4086 0.82358,-1.2354 2.2987,-3.2262 5.0744,-6.9484 2.7992,-3.7537 4.134,-5.5551 4.9024,-6.4502 0.38418,-0.44755 0.62606,-0.66705 0.83713,-0.7931 0.21108,-0.12605 0.39516,-0.16077 0.67085,-0.23441 0.71322,-0.19053 1.4115,-0.0723 2.1196,0.35943 0.11738,0.0716 0.21203,0.13548 0.37843,0.3106 0.1664,0.17512 0.40229,0.45968 0.79317,0.96499 0.78177,1.0106 2.1843,2.9032 4.8967,6.5714 1.5374,2.0792 2.9422,3.9702 3.9678,5.3407 0.51278,0.68522 0.93114,1.2392 1.2232,1.6233 0.14603,0.19204 0.26081,0.34199 0.34021,0.44342 0.0397,0.0507 0.06986,0.0888 0.09174,0.11526 0.01094,0.0132 0.0199,0.0237 0.02675,0.0312 0.0034,0.004 0.0062,0.007 0.0096,0.01 0.0017,0.002 0.0052,0.005 0.0058,0.006 2.97e-4,2.1e-4 0.0074,0.004 0.0076,0.004 2.21e-4,1e-4 0.01706,0.004 0.0172,0.004 2.89e-4,0 0.01109,-0.002 0.01147,-0.002 3.76e-4,-1.2e-4 0.0057,-0.003 0.0076,-0.004 0.0038,-0.002 0.0071,-0.004 0.0096,-0.006 0.0048,-0.004 0.0088,-0.007 0.01338,-0.0117 0.0091,-0.009 0.01926,-0.0203 0.03249,-0.0352 0.02646,-0.0298 0.06234,-0.0718 0.10703,-0.12697 0.08939,-0.11032 0.21438,-0.26878 0.36505,-0.46491 0.30133,-0.39226 0.70642,-0.93273 1.1448,-1.5276 0.61363,-0.83256 1.0136,-1.3867 1.2595,-1.7561 0.12296,-0.18471 0.20709,-0.32469 0.26184,-0.42975 0.05475,-0.10508 0.08027,-0.17566 0.08027,-0.23442 0,-0.0247 -0.0084,-0.0439 -0.02102,-0.0723 -0.01265,-0.0284 -0.03033,-0.0638 -0.05543,-0.10744 -0.05019,-0.0872 -0.12607,-0.2082 -0.23508,-0.37115 -0.21804,-0.3259 -0.56441,-0.81937 -1.0799,-1.5354 -1.0309,-1.4321 -2.7393,-3.7568 -5.4433,-7.4211 -2.7145,-3.6786 -4.4352,-6.024 -5.5083,-7.5149 -1.0731,-1.4908 -1.4983,-2.1308 -1.6131,-2.3793 -0.62856,-1.361 -0.84484,-2.9726 -0.55427,-4.1081 0.08129,-0.31766 0.27287,-0.69406 0.49502,-1.008 0.22214,-0.31392 0.47818,-0.56715 0.66894,-0.64463 0.08455,-0.0343 0.14656,-0.0735 0.20259,-0.0937 z"
           id="path898" />
        <path
           style="color:#000000;font-style:normal;font-variant:normal;font-weight:normal;font-stretch:normal;font-size:medium;line-height:normal;font-family:sans-serif;font-variant-ligatures:normal;font-variant-position:normal;font-variant-caps:normal;font-variant-numeric:normal;font-variant-alternates:normal;font-variant-east-asian:normal;font-feature-settings:normal;font-variation-settings:normal;text-indent:0;text-align:start;text-decoration:none;text-decoration-line:none;text-decoration-style:solid;text-decoration-color:#000000;letter-spacing:normal;word-spacing:normal;text-transform:none;writing-mode:lr-tb;direction:ltr;text-orientation:mixed;dominant-baseline:auto;baseline-shift:baseline;text-anchor:start;white-space:normal;shape-padding:0;shape-margin:0;inline-size:0;clip-rule:nonzero;display:inline;overflow:visible;visibility:visible;isolation:auto;mix-blend-mode:normal;color-interpolation:sRGB;color-interpolation-filters:linearRGB;solid-color:#000000;solid-opacity:1;vector-effect:none;fill:#c0b266;fill-opacity:1;fill-rule:nonzero;stroke:none;stroke-linecap:butt;stroke-linejoin:miter;stroke-miterlimit:4;stroke-dasharray:none;stroke-dashoffset:0;stroke-opacity:1;color-rendering:auto;image-rendering:auto;shape-rendering:auto;text-rendering:auto;enable-background:accumulate;stop-color:#000000;stop-opacity:1"
           d="m 17.693359,257.40234 -0.002,0.002 -0.1875,0.0664 -0.0098,0.0234 c -0.0042,0.002 -0.01995,0.0103 -0.02344,0.0117 -0.384391,0.15619 -0.64343,0.46743 -0.894531,0.82226 -0.252026,0.35614 -0.469169,0.76529 -0.574219,1.17579 -0.334168,1.30588 -0.08822,2.99336 0.585938,4.45312 0.172631,0.37381 0.586249,0.96807 1.662109,2.46289 1.076037,1.49507 2.796876,3.8405 5.511719,7.51953 2.703627,3.66383 4.411491,5.9901 5.439453,7.41797 0.513971,0.71396 0.859032,1.20381 1.070312,1.51953 0.09025,0.13492 0.143336,0.22224 0.185547,0.29297 -0.04163,0.0769 -0.107944,0.18608 -0.216797,0.34961 -0.235623,0.35398 -0.632211,0.908 -1.24414,1.73828 -0.436632,0.59243 -0.842236,1.13107 -1.140625,1.51953 -0.05589,0.0728 -0.08498,0.1083 -0.132813,0.16993 -0.03777,-0.0492 -0.05814,-0.0738 -0.101562,-0.13086 -0.290457,-0.382 -0.708287,-0.93442 -1.220703,-1.61914 -1.024573,-1.3692 -2.427788,-3.26121 -3.964844,-5.33985 -2.712395,-3.66833 -4.112557,-5.55718 -4.902344,-6.57812 -0.394728,-0.51028 -0.636956,-0.80469 -0.828125,-1.00586 -0.191838,-0.20188 -0.353287,-0.31657 -0.484375,-0.39649 -0.801632,-0.48879 -1.67051,-0.64178 -2.515625,-0.41601 -0.25825,0.069 -0.512805,0.11708 -0.800781,0.28906 -0.287193,0.17151 -0.565443,0.43511 -0.964844,0.90039 -0.798625,0.93034 -2.1229768,2.72337 -4.9218749,6.47656 -2.7761016,3.72271 -4.2507071,5.7119 -5.0898437,6.97071 -0.839211,1.25891 -1.05893886,1.8449 -1.23828128,2.57031 -0.3883262,1.57037 -0.34645266,2.86363 0.15234376,4.21484 0.16766722,0.4542 0.43347202,0.9553 0.71289062,1.39258 0.2780413,0.43514 0.5196445,0.79215 0.8632813,1.01367 0.5297992,0.34101 1.231515,0.27595 1.6972656,-0.15234 0.061959,-0.057 0.074657,-0.079 0.1015625,-0.11133 0.035512,-0.0427 0.073023,-0.0904 0.1191406,-0.14844 0.095083,-0.11949 0.2239599,-0.28408 0.3847656,-0.49218 0.320791,-0.41512 0.7649559,-0.99685 1.3007813,-1.70313 1.0719032,-1.41269 2.5097689,-3.32468 4.0585936,-5.39648 1.548017,-2.07062 2.964425,-3.95574 3.998047,-5.32618 0.516639,-0.68504 0.940145,-1.24325 1.234375,-1.6289 0.04623,-0.0606 0.06584,-0.0867 0.105469,-0.13867 0.03133,0.0405 0.04482,0.0578 0.08008,0.10351 0.284316,0.36836 0.692335,0.90488 1.193359,1.57031 1.002251,1.33098 2.375776,3.17453 3.876953,5.20508 1.761456,2.38255 3.161568,4.25853 4.152344,5.56641 0.495549,0.65416 0.889363,1.16566 1.175781,1.5293 0.144024,0.18285 0.26098,0.32719 0.351563,0.43554 0.08979,0.1074 0.137518,0.17156 0.232422,0.25196 0.257118,0.21775 0.622068,0.45156 0.929687,0.59375 l 0.669922,0.32031 v -0.29102 c 0.544157,0.1118 1.111206,0.24224 1.636719,0.0566 0.468741,-0.16553 0.873503,-0.37263 1.394531,-0.94336 0.519909,-0.56951 1.221873,-1.51141 2.552734,-3.30273 0.701704,-0.94446 1.358466,-1.84434 1.857422,-2.54883 0.249278,-0.35194 0.459173,-0.65494 0.619141,-0.89258 0.160239,-0.23803 0.260295,-0.3902 0.328125,-0.52734 0.761233,-1.53888 0.783365,-3.3845 0.109375,-5.26367 -0.07165,-0.19978 -0.127748,-0.38558 -0.304687,-0.69141 -0.176601,-0.30523 -0.469992,-0.7413 -1.066407,-1.57031 -1.19258,-1.6577 -3.596554,-4.89109 -8.628906,-11.66992 -4.24886,-5.72338 -6.218357,-8.39579 -7.234375,-9.63867 -0.507174,-0.62042 -0.746526,-0.90737 -1.09375,-1.06055 -0.187477,-0.0827 -0.41275,-0.0731 -0.556641,-0.0215 z m 0.222657,0.93555 c 0.0062,0.0132 0.240601,0.18554 0.697265,0.74414 0.974088,1.19159 2.959642,3.87939 7.208985,9.60352 5.032446,6.77896 7.439863,10.02029 8.621093,11.66211 0.590634,0.82097 0.873802,1.24308 1.015625,1.48828 0.142224,0.24581 0.149012,0.30454 0.232422,0.53711 0.606221,1.69017 0.565687,3.24949 -0.06641,4.52734 -0.003,0.006 -0.11298,0.1912 -0.265625,0.41797 -0.152878,0.2271 -0.360733,0.52672 -0.607422,0.875 -0.49338,0.69657 -1.143898,1.59191 -1.841797,2.53125 -1.329748,1.78976 -2.039994,2.73114 -2.49414,3.22851 -0.454907,0.49833 -0.579396,0.53874 -1.011719,0.69141 -0.45238,0.15977 -1.211292,0.12492 -1.599609,-0.0547 h -0.002 c -0.184111,-0.0851 -0.562789,-0.3263 -0.714843,-0.45507 0.06637,0.0562 -0.03592,-0.0392 -0.119141,-0.13868 -0.08258,-0.0988 -0.194379,-0.23683 -0.333984,-0.41406 -0.28031,-0.35587 -0.670799,-0.86453 -1.164063,-1.51562 -0.986695,-1.30254 -2.384394,-3.17581 -4.144531,-5.55664 -1.502516,-2.03234 -2.877947,-3.87659 -3.882813,-5.21094 -0.502536,-0.66735 -0.912818,-1.20658 -1.201171,-1.58008 -0.143536,-0.18596 -0.254373,-0.33012 -0.337891,-0.43359 -0.03929,-0.0487 -0.07032,-0.0872 -0.103516,-0.125 -0.01819,-0.0207 -0.02769,-0.028 -0.03711,-0.0371 -0.03504,-0.0379 -0.05441,-0.0514 -0.04492,-0.043 l -0.002,-0.002 c -0.04294,-0.037 -0.04597,-0.0352 -0.05859,-0.043 -0.0066,-0.004 -0.01336,-0.009 -0.02539,-0.0156 -0.006,-0.003 -0.02904,-0.0136 -0.0293,-0.0137 -3.3e-5,-2e-5 -0.0059,-0.002 -0.0098,-0.004 -0.01083,-0.004 -0.02728,-0.0117 -0.02734,-0.0117 -6e-6,0 -0.0045,-0.002 -0.0059,-0.002 l -0.146485,-0.18359 -0.140624,0.17383 -0.05859,0.0273 0.02734,-0.0312 -0.09766,0.0742 -0.01172,0.008 c -0.0015,10e-4 -0.0033,10e-4 -0.0039,0.002 -2.41e-4,1.6e-4 -0.0018,0.002 -0.002,0.002 0,0 0.0019,0.004 0.002,0.004 -0.02833,0.023 -0.0545,0.0458 -0.06055,0.0508 -5.36e-4,4.4e-4 -0.0058,0.004 -0.0059,0.004 -0.0144,0.0159 -0.02798,0.0319 -0.03711,0.0449 -0.0051,0.006 -0.01364,0.0147 -0.01758,0.0195 -0.02657,0.0329 -0.05918,0.073 -0.09961,0.125 -0.08182,0.10504 -0.197579,0.25703 -0.345703,0.45118 -0.296221,0.38824 -0.717114,0.945 -1.234375,1.63085 -1.034766,1.37206 -2.451315,3.2586 -4,5.33008 -1.5476828,2.07018 -2.9866065,3.98044 -4.0566406,5.39063 -0.5349936,0.70511 -0.9793631,1.28625 -1.296875,1.69726 -0.1585604,0.20519 -0.283678,0.36571 -0.375,0.48047 -0.04747,0.0596 -0.086076,0.10911 -0.1074219,0.13477 -0.00558,0.007 -0.00735,0.0105 -0.011719,0.0156 l -0.00195,0.002 c -2.729e-4,3.1e-4 -0.00169,-3.1e-4 -0.00195,0 -0.1916747,0.17537 -0.3429296,0.18918 -0.5488281,0.0566 -0.00956,-0.006 -0.3332708,-0.34422 -0.5800782,-0.73047 -0.2476722,-0.38761 -0.4913471,-0.85616 -0.6230468,-1.21289 -0.4404442,-1.19312 -0.4784865,-2.21299 -0.1210938,-3.65821 0.1680498,-0.67955 0.2967537,-1.0574 1.1074219,-2.27343 0.8103492,-1.21556 2.2851274,-3.20787 5.0605469,-6.92969 2.7994516,-3.75404 4.1418706,-5.56235 4.8847656,-6.42774 0.371293,-0.43253 0.584134,-0.61573 0.730469,-0.70312 0.14621,-0.0873 0.271259,-0.11023 0.560547,-0.1875 0.602364,-0.16092 1.15482,-0.0738 1.785156,0.31055 0.108009,0.0659 0.142852,0.0844 0.289062,0.23828 0.145884,0.15353 0.378182,0.43077 0.765625,0.93164 0.775066,1.00193 2.178318,2.89638 4.890625,6.56445 1.537749,2.07967 2.942319,3.97214 3.96875,5.34375 0.513392,0.68604 0.933678,1.23982 1.226563,1.625 0.146464,0.19261 0.26153,0.34419 0.34375,0.44922 0.04041,0.0516 0.07024,0.0899 0.09766,0.12305 0.0093,0.0112 0.01949,0.022 0.0293,0.0332 6.11e-4,7e-4 0.0013,10e-4 0.002,0.002 l 0.02148,0.0371 0.07422,0.0527 c 3.7e-5,2e-5 0.0366,0.024 0.03906,0.0254 0.0025,0.001 0.0047,0.001 0.0059,0.002 0.0023,0.001 0.0039,0.003 0.0059,0.004 0.002,10e-4 0.0041,0.002 0.0078,0.004 0.0018,9.4e-4 0.0023,0.001 0.0078,0.004 0.0027,0.001 0.01556,0.008 0.01563,0.008 0.0028,6.3e-4 0.03594,0.007 0.06641,0.0137 l 0.113281,0.12696 0.103516,-0.10547 0.05078,-0.0176 c 0,0 -0.0067,-0.024 -0.0078,-0.0273 l 0.01953,-0.0195 0.02539,-0.0254 c 0.0052,0.01 0.02317,0.047 0.02344,0.0469 0.0043,-0.002 0.0063,-0.003 0.0078,-0.004 0.0031,-0.002 0.0045,-10e-4 0.0059,-0.002 0,0 0.002,-0.002 0.002,-0.002 0.0176,-0.009 0.04251,-0.0207 0.08008,-0.0508 l 0.002,-0.002 0.0039,-0.004 c -0.0037,0.003 0.01826,-0.013 0.04102,-0.0352 l 0.0039,-0.004 c 0.02046,-0.0205 0.03376,-0.038 0.04687,-0.0527 0.03152,-0.0355 0.07077,-0.0809 0.119141,-0.14063 0.09277,-0.11448 0.220545,-0.27609 0.373047,-0.4746 0.304166,-0.39596 0.710746,-0.93858 1.15039,-1.53516 0.614753,-0.83408 1.016287,-1.38812 1.271485,-1.77148 0.128374,-0.19285 0.219277,-0.34429 0.285156,-0.47071 0.06595,-0.12657 0.128906,-0.24989 0.128906,-0.43359 0,-0.12254 -0.04552,-0.21863 -0.05859,-0.24805 -0.01923,-0.0432 -0.04445,-0.0913 -0.07617,-0.14648 -0.0579,-0.1006 -0.137555,-0.2284 -0.25,-0.39649 -0.22354,-0.33412 -0.571026,-0.82893 -1.087891,-1.54687 -1.033603,-1.43586 -2.743052,-3.76119 -5.447266,-7.42578 -2.714199,-3.6782 -4.433224,-6.02223 -5.503906,-7.50977 -1.070465,-1.48714 -1.509296,-2.17229 -1.572266,-2.30859 -0.58999,-1.27749 -0.780854,-2.82964 -0.527343,-3.82032 0.06122,-0.23922 0.231955,-0.58856 0.427734,-0.86523 0.195034,-0.27561 0.468698,-0.48936 0.480469,-0.49414 0.06051,-0.0245 0.05843,-0.0266 0.0918,-0.043 z m -2.5,20.62695 0.04492,0.004 c -0.0044,-8e-5 -0.01553,2.5e-4 -0.0293,0 -0.0026,-5e-4 -0.0156,-0.004 -0.01563,-0.004 z m 11.955078,9.0586 c 0.0093,0.01 0.016,0.0173 0.02734,0.0273 l -0.01172,-0.01 c -1.02e-4,-1e-4 -0.0069,-0.007 -0.0078,-0.008 -0.0018,-0.002 -0.0039,-0.005 -0.0078,-0.01 z"
           id="path900" />
      </g>
      <g
         id="path25"
         style="opacity:1">
        <path
           style="color:#000000;font-style:normal;font-variant:normal;font-weight:normal;font-stretch:normal;font-size:medium;line-height:normal;font-family:sans-serif;font-variant-ligatures:normal;font-variant-position:normal;font-variant-caps:normal;font-variant-numeric:normal;font-variant-alternates:normal;font-variant-east-asian:normal;font-feature-settings:normal;font-variation-settings:normal;text-indent:0;text-align:start;text-decoration:none;text-decoration-line:none;text-decoration-style:solid;text-decoration-color:#000000;letter-spacing:normal;word-spacing:normal;text-transform:none;writing-mode:lr-tb;direction:ltr;text-orientation:mixed;dominant-baseline:auto;baseline-shift:baseline;text-anchor:start;white-space:normal;shape-padding:0;shape-margin:0;inline-size:0;clip-rule:nonzero;display:inline;overflow:visible;visibility:visible;isolation:auto;mix-blend-mode:normal;color-interpolation:sRGB;color-interpolation-filters:linearRGB;solid-color:#000000;solid-opacity:1;vector-effect:none;fill:url(#linearGradient4672);fill-opacity:1;fill-rule:nonzero;stroke:none;stroke-width:0.063328;stroke-linecap:butt;stroke-linejoin:miter;stroke-miterlimit:4;stroke-dasharray:none;stroke-dashoffset:0;stroke-opacity:1;color-rendering:auto;image-rendering:auto;shape-rendering:auto;text-rendering:auto;enable-background:accumulate;stop-color:#000000;stop-opacity:1"
           d="m 30.441,295.7 c -0.24602,-0.1137 -0.61633,-0.34995 -0.82289,-0.5249 -0.24219,-0.20513 -2.3152,-2.9416 -5.8369,-7.7051 -3.0037,-4.0628 -5.4953,-7.3715 -5.5368,-7.3526 -0.04155,0.0189 -2.6091,3.4234 -5.7058,7.5656 -3.0966,4.1422 -5.7553,7.6463 -5.9083,7.7869 -0.3266,0.30035 -0.75646,0.34043 -1.1228,0.10463 -0.37213,-0.2394 -1.0902,-1.3633 -1.39,-2.1754 -0.46951,-1.2719 -0.50979,-2.429 -0.13704,-3.9364 0.34712,-1.4037 0.69696,-1.9285 6.2485,-9.373 5.5984,-7.5073 5.3333,-7.1984 6.431,-7.4917 0.72324,-0.1932 1.4358,-0.073 2.151,0.36313 0.47378,0.28883 0.6542,0.52206 6.0788,7.8584 3.0748,4.1584 5.6209,7.5607 5.6579,7.5607 0.03706,0 0.78459,-0.9731 1.6612,-2.1625 1.227,-1.6648 1.5938,-2.2158 1.5938,-2.3944 0,-0.18371 -1.4187,-2.1545 -6.8266,-9.483 -5.4291,-7.3572 -6.8882,-9.3844 -7.1272,-9.902 -0.6322,-1.3689 -0.84952,-2.9874 -0.55544,-4.1366 0.16639,-0.65021 0.77523,-1.5106 1.1875,-1.678 0.6455,-0.26221 0.05402,-0.98576 8.5523,10.462 10.065,13.558 9.6257,12.947 9.9347,13.809 0.64009,1.7846 0.60993,3.4869 -0.08673,4.8953 -0.15124,0.30574 -1.3596,2.0118 -2.7595,3.8959 -2.6607,3.5812 -2.8296,3.7662 -3.7276,4.0833 -0.59489,0.21009 -1.4115,0.18113 -1.9531,-0.0693 z"
           id="path904" />
        <path
           style="color:#000000;font-style:normal;font-variant:normal;font-weight:normal;font-stretch:normal;font-size:medium;line-height:normal;font-family:sans-serif;font-variant-ligatures:normal;font-variant-position:normal;font-variant-caps:normal;font-variant-numeric:normal;font-variant-alternates:normal;font-variant-east-asian:normal;font-feature-settings:normal;font-variation-settings:normal;text-indent:0;text-align:start;text-decoration:none;text-decoration-line:none;text-decoration-style:solid;text-decoration-color:#000000;letter-spacing:normal;word-spacing:normal;text-transform:none;writing-mode:lr-tb;direction:ltr;text-orientation:mixed;dominant-baseline:auto;baseline-shift:baseline;text-anchor:start;white-space:normal;shape-padding:0;shape-margin:0;inline-size:0;clip-rule:nonzero;display:inline;overflow:visible;visibility:visible;isolation:auto;mix-blend-mode:normal;color-interpolation:sRGB;color-interpolation-filters:linearRGB;solid-color:#000000;solid-opacity:1;vector-effect:none;fill:url(#linearGradient4616);fill-opacity:1;fill-rule:nonzero;stroke:none;stroke-linecap:butt;stroke-linejoin:miter;stroke-miterlimit:4;stroke-dasharray:none;stroke-dashoffset:0;stroke-opacity:1;color-rendering:auto;image-rendering:auto;shape-rendering:auto;text-rendering:auto;enable-background:accumulate;stop-color:#000000;stop-opacity:1"
           d="m 20.673828,258.49805 c -0.06721,0.0243 -0.127524,0.0642 -0.205078,0.0957 -0.218621,0.0888 -0.472796,0.34997 -0.699219,0.66992 -0.226423,0.31996 -0.421196,0.69846 -0.505859,1.0293 -0.296779,1.15975 -0.07839,2.78318 0.55664,4.1582 0.123186,0.26678 0.547625,0.90118 1.621094,2.39258 1.07347,1.4914 2.795196,3.837 5.509766,7.51563 2.70393,3.66422 4.410931,5.98845 5.441406,7.41992 0.515238,0.71573 0.861042,1.20872 1.078125,1.5332 0.108542,0.16224 0.183723,0.28254 0.232422,0.36719 0.02435,0.0423 0.04175,0.0749 0.05273,0.0996 0.01098,0.0247 0.01563,0.0436 0.01563,0.0449 0,0.0338 -0.02159,0.0982 -0.07422,0.19922 -0.05263,0.101 -0.135602,0.23828 -0.257813,0.42187 -0.244421,0.36719 -0.642455,0.92164 -1.255859,1.75391 -0.438202,0.59456 -0.843631,1.13564 -1.144532,1.52734 -0.15045,0.19585 -0.274611,0.35348 -0.363281,0.46289 -0.04433,0.0547 -0.08037,0.0967 -0.105469,0.125 -0.0085,0.01 -0.01362,0.0154 -0.01953,0.0215 -0.0043,-0.005 -0.0078,-0.009 -0.01367,-0.0156 -0.02108,-0.0255 -0.0523,-0.0628 -0.0918,-0.11328 -0.07899,-0.10093 -0.193918,-0.25145 -0.339843,-0.44336 -0.291852,-0.38382 -0.709934,-0.93789 -1.222657,-1.62305 -1.025445,-1.3703 -2.429426,-3.26068 -3.966796,-5.33984 -2.712305,-3.66817 -4.113582,-5.56016 -4.896485,-6.57226 -0.391451,-0.50605 -0.629028,-0.79202 -0.798828,-0.97071 -0.1698,-0.17869 -0.273278,-0.25149 -0.392578,-0.32422 -0.720974,-0.43965 -1.444368,-0.56061 -2.175781,-0.36523 -0.273393,0.0731 -0.467706,0.1078 -0.689453,0.24023 -0.221747,0.13243 -0.469168,0.35859 -0.855469,0.8086 -0.772602,0.90002 -2.105116,2.6995 -4.904297,6.45312 -2.7757926,3.72228 -4.2504151,5.71446 -5.0761719,6.95313 -0.8257567,1.23867 -1.0038,1.72827 -1.1777343,2.43164 -0.3737841,1.51158 -0.3327949,2.67788 0.1386718,3.95508 0.1511009,0.4093 0.4053411,0.8945 0.6699219,1.30859 0.2645808,0.41409 0.5351892,0.75593 0.7324219,0.88281 0.3771921,0.24279 0.826353,0.20135 1.1621094,-0.10742 0.013214,-0.0121 0.031658,-0.0337 0.060547,-0.0684 0.028888,-0.0347 0.066502,-0.0818 0.1132813,-0.14062 0.093559,-0.11758 0.2212315,-0.28367 0.3808593,-0.49024 0.3192558,-0.41313 0.7633575,-0.99349 1.2988282,-1.69922 1.0709414,-1.41146 2.5102554,-3.32338 4.0585934,-5.39453 1.548328,-2.07107 2.963919,-3.95691 3.998047,-5.32812 0.517064,-0.68561 0.939505,-1.24245 1.234375,-1.62891 0.147435,-0.19323 0.261692,-0.34444 0.341797,-0.44726 0.04005,-0.0514 0.07214,-0.0905 0.09375,-0.11719 0.0058,-0.007 0.0093,-0.0104 0.01367,-0.0156 0.0033,0.004 0.0056,0.005 0.0098,0.01 0.02069,0.0235 0.051,0.0593 0.08984,0.10742 0.07768,0.0962 0.190879,0.24037 0.333985,0.42578 0.286211,0.37083 0.695532,0.90795 1.197265,1.57422 1.003465,1.33255 2.377102,3.17569 3.878906,5.20703 1.760893,2.38181 3.159564,4.25713 4.148438,5.5625 0.494437,0.65269 0.886269,1.16334 1.169922,1.52344 0.141826,0.18005 0.256673,0.32162 0.34375,0.42578 0.08708,0.10416 0.144666,0.16956 0.179687,0.19922 0.210074,0.17793 0.57988,0.41366 0.830078,0.5293 l 0.04492,0.0215 v -0.0195 c 0.550929,0.23926 1.341049,0.27693 1.931641,0.0684 0.450235,-0.15899 0.727521,-0.29021 1.216797,-0.82617 0.489276,-0.53597 1.195005,-1.47693 2.52539,-3.26758 0.700078,-0.94222 1.353438,-1.8405 1.84961,-2.54102 0.248086,-0.35025 0.456629,-0.6501 0.613281,-0.88281 0.156652,-0.23271 0.260731,-0.3956 0.300781,-0.47656 0.700995,-1.41717 0.730248,-3.129 0.08789,-4.91992 -0.07685,-0.21438 -0.108822,-0.34329 -0.269531,-0.6211 -0.16071,-0.27781 -0.449315,-0.70611 -1.042969,-1.53125 -1.187308,-1.65028 -3.594458,-4.88702 -8.626953,-11.66601 -4.249121,-5.72386 -6.22614,-8.40401 -7.222656,-9.62305 -0.498259,-0.60952 -0.746983,-0.85385 -0.927735,-0.93359 -0.09038,-0.0399 -0.16716,-0.0361 -0.234375,-0.0117 z m 0.02148,0.0605 c 0.05719,-0.0207 0.107815,-0.0265 0.185547,0.008 0.155465,0.0686 0.409406,0.31018 0.90625,0.91797 0.993689,1.21557 2.971544,3.89718 7.220703,9.62109 5.032505,6.779 7.438458,10.01484 8.625,11.66406 0.593272,0.82461 0.882657,1.25164 1.041016,1.52539 0.158359,0.27375 0.186019,0.39471 0.263672,0.61133 0.637823,1.77828 0.608341,3.4695 -0.08398,4.86914 -0.03557,0.0719 -0.140677,0.23866 -0.296875,0.4707 -0.156199,0.23204 -0.365385,0.53087 -0.613282,0.88086 -0.495793,0.69998 -1.147833,1.59914 -1.847656,2.54102 -1.330314,1.79055 -2.036635,2.7306 -2.521484,3.26172 -0.484849,0.53111 -0.743642,0.65243 -1.191407,0.81054 -0.585449,0.20676 -1.396295,0.17738 -1.927734,-0.0684 -0.241841,-0.11177 -0.61336,-0.34952 -0.816406,-0.52149 -0.02553,-0.0216 -0.08547,-0.0861 -0.171875,-0.18945 -0.0864,-0.10336 -0.200194,-0.24602 -0.341797,-0.42578 -0.283206,-0.35954 -0.67562,-0.86898 -1.169922,-1.52149 -0.988604,-1.30502 -2.38763,-3.18081 -4.148437,-5.5625 -1.501896,-2.03146 -2.875272,-3.87425 -3.878907,-5.20703 -0.501817,-0.66639 -0.910764,-1.20497 -1.197265,-1.57617 -0.143251,-0.1856 -0.255733,-0.32883 -0.333985,-0.42578 -0.03913,-0.0485 -0.06996,-0.0865 -0.0918,-0.11133 -0.01092,-0.0124 -0.02013,-0.0204 -0.02734,-0.0273 -0.0036,-0.003 -0.0056,-0.007 -0.0098,-0.01 -0.0021,-0.002 -0.0091,-0.006 -0.0098,-0.006 -3.11e-4,-1.3e-4 -0.0095,-0.002 -0.0098,-0.002 -2.37e-4,-3e-5 -0.01742,0.002 -0.01758,0.002 -1.63e-4,7e-5 -0.0056,0.004 -0.0059,0.004 -2.39e-4,1.7e-4 -0.0011,0.003 -0.002,0.004 -0.0016,0.001 -0.0026,0.003 -0.0039,0.004 -0.0026,0.003 -0.0065,0.004 -0.0098,0.008 -0.0066,0.008 -0.01435,0.0196 -0.02539,0.0332 -0.02208,0.0273 -0.05357,0.0656 -0.09375,0.11719 -0.08036,0.10316 -0.196248,0.25395 -0.34375,0.44727 -0.295004,0.38664 -0.717271,0.94325 -1.234375,1.6289 -1.034209,1.37132 -2.449675,3.25895 -3.998047,5.33008 -1.548262,2.07105 -2.9877853,3.98325 -4.0585939,5.39453 -0.5354043,0.70565 -0.9778245,1.28635 -1.296875,1.69922 -0.1595252,0.20644 -0.2895925,0.37114 -0.3828125,0.48828 -0.04661,0.0586 -0.08295,0.10458 -0.1113281,0.13868 -0.028378,0.0341 -0.048777,0.0571 -0.054687,0.0625 -0.3174436,0.29193 -0.7284965,0.33037 -1.0839844,0.10156 -0.1748973,-0.11252 -0.4504539,-0.4545 -0.7128906,-0.86524 -0.2624367,-0.41073 -0.5173165,-0.89212 -0.6660156,-1.29492 -0.4675533,-1.2666 -0.5064816,-2.41475 -0.1347656,-3.91797 0.1731856,-0.70033 0.3441405,-1.17633 1.1679687,-2.41211 0.8238282,-1.23577 2.2984714,-3.227 5.074219,-6.94921 2.799219,-3.75368 4.133471,-5.55355 4.902344,-6.44922 0.384436,-0.44784 0.627619,-0.67013 0.839844,-0.79688 0.212225,-0.12674 0.396418,-0.16077 0.671875,-0.23437 0.715066,-0.19102 1.417527,-0.0732 2.126953,0.35937 0.11759,0.0717 0.214061,0.13697 0.380859,0.3125 0.166798,0.17553 0.402018,0.46139 0.792969,0.9668 0.781902,1.01081 2.184189,2.90215 4.896484,6.57031 1.53743,2.07924 2.941242,3.9694 3.966797,5.33984 0.512778,0.68523 0.93062,1.24094 1.222657,1.625 0.146018,0.19204 0.260499,0.34198 0.339843,0.44336 0.03967,0.0507 0.07197,0.0889 0.09375,0.11524 0.01089,0.0132 0.01872,0.0239 0.02539,0.0312 0.0033,0.004 0.0067,0.005 0.0098,0.008 0.0015,0.001 0.0033,0.005 0.0039,0.006 2.97e-4,2.1e-4 0.0056,0.002 0.0059,0.002 2.21e-4,1.1e-4 0.01353,0.004 0.01367,0.004 2.9e-4,0 0.01134,-0.002 0.01172,-0.002 3.76e-4,-1.2e-4 0.0042,-10e-4 0.0059,-0.002 0.0033,-0.002 0.0056,-0.004 0.0078,-0.006 0.0044,-0.003 0.0073,-0.006 0.01172,-0.01 0.0088,-0.008 0.02005,-0.0204 0.0332,-0.0352 0.0263,-0.0296 0.06277,-0.0718 0.107421,-0.12695 0.08931,-0.11021 0.21264,-0.2707 0.363282,-0.4668 0.301282,-0.3922 0.708076,-0.9325 1.146484,-1.52734 0.613596,-0.83253 1.012083,-1.3867 1.257813,-1.75586 0.122864,-0.18458 0.207228,-0.32317 0.261718,-0.42774 0.05449,-0.10457 0.08008,-0.17302 0.08008,-0.22851 0,-0.0217 -0.0071,-0.0424 -0.01953,-0.0703 -0.01244,-0.028 -0.03164,-0.062 -0.05664,-0.10547 -0.05001,-0.0869 -0.125414,-0.20823 -0.234374,-0.3711 -0.217921,-0.32573 -0.564654,-0.81916 -1.080079,-1.53515 -1.03085,-1.43199 -2.737436,-3.75565 -5.441406,-7.41992 -2.71453,-3.67858 -4.43666,-6.02473 -5.509765,-7.51563 -1.073106,-1.4909 -1.49942,-2.13004 -1.615235,-2.38086 -0.629375,-1.36278 -0.844115,-2.97658 -0.552734,-4.11523 0.08173,-0.31937 0.273432,-0.69513 0.496093,-1.00977 0.222662,-0.31464 0.478227,-0.56981 0.671876,-0.64844 0.08382,-0.034 0.145936,-0.073 0.203124,-0.0937 z"
           id="path906" />
      </g>
    </g>
    <g
       shape-rendering="auto"
       id="g59"
       style="stroke-width:0.26458"
       transform="scale(0.71136,1.4058)">
      <path
         style="color:#000000;font-style:normal;font-variant:normal;font-weight:normal;font-stretch:normal;font-size:medium;line-height:normal;font-family:sans-serif;font-variant-ligatures:normal;font-variant-position:normal;font-variant-caps:normal;font-variant-numeric:normal;font-variant-alternates:normal;font-variant-east-asian:normal;font-feature-settings:normal;font-variation-settings:normal;text-indent:0;text-align:start;text-decoration:none;text-decoration-line:none;text-decoration-style:solid;text-decoration-color:#000000;letter-spacing:normal;word-spacing:normal;text-transform:none;writing-mode:lr-tb;direction:ltr;text-orientation:mixed;dominant-baseline:auto;baseline-shift:baseline;text-anchor:start;white-space:normal;shape-padding:0;shape-margin:0;inline-size:0;clip-rule:nonzero;display:inline;overflow:visible;visibility:visible;opacity:1;isolation:auto;mix-blend-mode:normal;color-interpolation:sRGB;color-interpolation-filters:linearRGB;solid-color:#000000;solid-opacity:1;vector-effect:none;fill:#3366cc;fill-opacity:1;fill-rule:nonzero;stroke:none;stroke-width:0.26458;stroke-linecap:butt;stroke-linejoin:miter;stroke-miterlimit:4;stroke-dasharray:none;stroke-dashoffset:0;stroke-opacity:1;color-rendering:auto;image-rendering:auto;shape-rendering:auto;text-rendering:auto;enable-background:accumulate;stop-color:#000000;stop-opacity:1"
         d="m 9.8148,44.433 c 0.26925,-0.19944 0.58337,-0.36398 0.94236,-0.49362 0.359,-0.12964 0.73793,-0.19446 1.1368,-0.19446 0.48863,0 0.92242,0.09474 1.3014,0.2842 0.38891,0.18947 0.70303,0.4637 0.94236,0.8227 0.23933,0.34902 0.3939,0.77284 0.4637,1.2714 0.07978,0.4986 0.05983,1.057 -0.05983,1.6753 -0.12964,0.62824 -0.33406,1.1917 -0.61328,1.6903 -0.26924,0.4986 -0.59334,0.92242 -0.97228,1.2714 -0.37894,0.34902 -0.79776,0.61827 -1.2565,0.80774 -0.45874,0.18947 -0.93239,0.2842 -1.421,0.2842 -0.39888,0 -0.75289,-0.05983 -1.062,-0.1795 C 8.9074,51.54302 8.65809,51.3735 8.46863,51.16408 l -0.68807,3.3955 h -2.2288 l 2.139,-10.635 h 2.2288 z m -1.0471,5.2503 c 0.11966,0.16952 0.28919,0.30913 0.50858,0.41883 0.22936,0.09972 0.48365,0.14958 0.76286,0.14958 0.51855,0 0.97726,-0.19446 1.3761,-0.58337 0.40886,-0.39888 0.69804,-1.0221 0.86757,-1.8698 0.16952,-0.84762 0.12964,-1.4659 -0.11966,-1.8548 -0.23933,-0.39888 -0.61827,-0.59832 -1.1368,-0.59832 -0.27922,0 -0.55345,0.05485 -0.8227,0.16454 -0.26925,0.09972 -0.4986,0.23933 -0.68807,0.41883 z"
         id="path29" />
      <g
         id="g43">
        <path
           style="color:#000000;font-style:normal;font-variant:normal;font-weight:normal;font-stretch:normal;font-size:medium;line-height:normal;font-family:sans-serif;font-variant-ligatures:normal;font-variant-position:normal;font-variant-caps:normal;font-variant-numeric:normal;font-variant-alternates:normal;font-variant-east-asian:normal;font-feature-settings:normal;font-variation-settings:normal;text-indent:0;text-align:start;text-decoration:none;text-decoration-line:none;text-decoration-style:solid;text-decoration-color:#000000;letter-spacing:normal;word-spacing:normal;text-transform:none;writing-mode:lr-tb;direction:ltr;text-orientation:mixed;dominant-baseline:auto;baseline-shift:baseline;text-anchor:start;white-space:normal;shape-padding:0;shape-margin:0;inline-size:0;clip-rule:nonzero;display:inline;overflow:visible;visibility:visible;opacity:1;isolation:auto;mix-blend-mode:normal;color-interpolation:sRGB;color-interpolation-filters:linearRGB;solid-color:#000000;solid-opacity:1;vector-effect:none;fill:#000000;fill-opacity:1;fill-rule:nonzero;stroke:none;stroke-width:0.26458;stroke-linecap:butt;stroke-linejoin:miter;stroke-miterlimit:4;stroke-dasharray:none;stroke-dashoffset:0;stroke-opacity:1;color-rendering:auto;image-rendering:auto;shape-rendering:auto;text-rendering:auto;enable-background:accumulate;stop-color:#000000;stop-opacity:1"
           d="m 17.578,51.853 c -0.39888,0 -0.76286,-0.05485 -1.0919,-0.16454 -0.32908,-0.10969 -0.60331,-0.26925 -0.8227,-0.47866 -0.21939,-0.20941 -0.37395,-0.46869 -0.4637,-0.77782 -0.07978,-0.30913 -0.07978,-0.66314 0,-1.062 0.15955,-0.80774 0.58835,-1.4509 1.2864,-1.9296 0.70802,-0.48863 1.6454,-0.73295 2.8121,-0.73295 h 1.436 l 0.07479,-0.35899 c 0.07978,-0.37894 0.01994,-0.6432 -0.1795,-0.79278 -0.18947,-0.14958 -0.55345,-0.22437 -1.0919,-0.22437 -0.47866,0 -0.9623,0.06482 -1.4509,0.19446 -0.47866,0.11966 -0.9274,0.2842 -1.3462,0.49362 l 0.10471,-1.5856 c 0.4288,-0.19944 0.93239,-0.36398 1.5108,-0.49362 0.57841,-0.12964 1.1518,-0.19446 1.7202,-0.19446 1.2066,0 2.0443,0.22936 2.513,0.68807 0.46869,0.44874 0.59334,1.2066 0.37395,2.2736 l -0.98724,4.9661 h -2.2288 l 0.10471,-0.50858 c -0.37894,0.2493 -0.73793,0.42381 -1.077,0.52353 -0.32908,0.10969 -0.72796,0.16454 -1.1966,0.16454 z m 0.83765,-1.5407 c 0.30914,0 0.61827,-0.04986 0.9274,-0.14958 0.30913,-0.10969 0.57838,-0.27423 0.80774,-0.49362 l 0.2842,-1.436 h -1.3612 c -0.50858,0 -0.88751,0.09972 -1.1368,0.29916 -0.2493,0.18947 -0.40885,0.45373 -0.47866,0.79278 -0.05983,0.33905 -0.005,0.58835 0.16454,0.7479 0.16952,0.15955 0.43378,0.23933 0.79278,0.23933 z"
           id="path31" />
        <path
           style="color:#000000;font-style:normal;font-variant:normal;font-weight:normal;font-stretch:normal;font-size:medium;line-height:normal;font-family:sans-serif;font-variant-ligatures:normal;font-variant-position:normal;font-variant-caps:normal;font-variant-numeric:normal;font-variant-alternates:normal;font-variant-east-asian:normal;font-feature-settings:normal;font-variation-settings:normal;text-indent:0;text-align:start;text-decoration:none;text-decoration-line:none;text-decoration-style:solid;text-decoration-color:#000000;letter-spacing:normal;word-spacing:normal;text-transform:none;writing-mode:lr-tb;direction:ltr;text-orientation:mixed;dominant-baseline:auto;baseline-shift:baseline;text-anchor:start;white-space:normal;shape-padding:0;shape-margin:0;inline-size:0;clip-rule:nonzero;display:inline;overflow:visible;visibility:visible;opacity:1;isolation:auto;mix-blend-mode:normal;color-interpolation:sRGB;color-interpolation-filters:linearRGB;solid-color:#000000;solid-opacity:1;vector-effect:none;fill:#000000;fill-opacity:1;fill-rule:nonzero;stroke:none;stroke-width:0.26458;stroke-linecap:butt;stroke-linejoin:miter;stroke-miterlimit:4;stroke-dasharray:none;stroke-dashoffset:0;stroke-opacity:1;color-rendering:auto;image-rendering:auto;shape-rendering:auto;text-rendering:auto;enable-background:accumulate;stop-color:#000000;stop-opacity:1"
           d="m 28.752,45.346 c -0.28919,0 -0.56841,0.05485 -0.83765,0.16454 -0.26925,0.10969 -0.4986,0.2493 -0.68807,0.41883 l -1.1518,5.7439 h -2.2288 l 1.5556,-7.7483 h 2.2288 l -0.10471,0.50858 c 0.27922,-0.19944 0.59832,-0.36398 0.95732,-0.49362 0.36897,-0.12964 0.76286,-0.19446 1.1817,-0.19446 0.99721,0 1.7102,0.30913 2.139,0.9274 0.4288,0.6083 0.52353,1.5158 0.2842,2.7224 l -0.85261,4.278 h -2.2288 l 0.85261,-4.2481 c 0.14958,-0.73793 0.12964,-1.2665 -0.05983,-1.5856 -0.18947,-0.32908 -0.53849,-0.49362 -1.0471,-0.49362 z"
           id="path33" />
        <path
           style="color:#000000;font-style:normal;font-variant:normal;font-weight:normal;font-stretch:normal;font-size:medium;line-height:normal;font-family:sans-serif;font-variant-ligatures:normal;font-variant-position:normal;font-variant-caps:normal;font-variant-numeric:normal;font-variant-alternates:normal;font-variant-east-asian:normal;font-feature-settings:normal;font-variation-settings:normal;text-indent:0;text-align:start;text-decoration:none;text-decoration-line:none;text-decoration-style:solid;text-decoration-color:#000000;letter-spacing:normal;word-spacing:normal;text-transform:none;writing-mode:lr-tb;direction:ltr;text-orientation:mixed;dominant-baseline:auto;baseline-shift:baseline;text-anchor:start;white-space:normal;shape-padding:0;shape-margin:0;inline-size:0;clip-rule:nonzero;display:inline;overflow:visible;visibility:visible;opacity:1;isolation:auto;mix-blend-mode:normal;color-interpolation:sRGB;color-interpolation-filters:linearRGB;solid-color:#000000;solid-opacity:1;vector-effect:none;fill:#000000;fill-opacity:1;fill-rule:nonzero;stroke:none;stroke-width:0.26458;stroke-linecap:butt;stroke-linejoin:miter;stroke-miterlimit:4;stroke-dasharray:none;stroke-dashoffset:0;stroke-opacity:1;color-rendering:auto;image-rendering:auto;shape-rendering:auto;text-rendering:auto;enable-background:accumulate;stop-color:#000000;stop-opacity:1"
           d="m 39.312,45.705 c -0.12964,-0.08975 -0.28919,-0.15457 -0.47866,-0.19446 -0.1795,-0.03989 -0.37395,-0.05983 -0.58337,-0.05983 -0.40886,0 -0.77782,0.10471 -1.1069,0.31412 -0.31911,0.19944 -0.58835,0.48863 -0.80774,0.86757 l -1.0022,5.0409 h -2.2288 l 1.5556,-7.7483 h 2.2288 l -0.13462,0.67312 c 0.2493,-0.2493 0.54846,-0.45373 0.89749,-0.61328 0.34902,-0.15955 0.73295,-0.23933 1.1518,-0.23933 0.19944,0 0.3939,0.01994 0.58337,0.05983 0.18947,0.02991 0.34902,0.07479 0.47866,0.13462 z"
           id="path35" />
        <path
           style="color:#000000;font-style:normal;font-variant:normal;font-weight:normal;font-stretch:normal;font-size:medium;line-height:normal;font-family:sans-serif;font-variant-ligatures:normal;font-variant-position:normal;font-variant-caps:normal;font-variant-numeric:normal;font-variant-alternates:normal;font-variant-east-asian:normal;font-feature-settings:normal;font-variation-settings:normal;text-indent:0;text-align:start;text-decoration:none;text-decoration-line:none;text-decoration-style:solid;text-decoration-color:#000000;letter-spacing:normal;word-spacing:normal;text-transform:none;writing-mode:lr-tb;direction:ltr;text-orientation:mixed;dominant-baseline:auto;baseline-shift:baseline;text-anchor:start;white-space:normal;shape-padding:0;shape-margin:0;inline-size:0;clip-rule:nonzero;display:inline;overflow:visible;visibility:visible;opacity:1;isolation:auto;mix-blend-mode:normal;color-interpolation:sRGB;color-interpolation-filters:linearRGB;solid-color:#000000;solid-opacity:1;vector-effect:none;fill:#000000;fill-opacity:1;fill-rule:nonzero;stroke:none;stroke-width:0.26458;stroke-linecap:butt;stroke-linejoin:miter;stroke-miterlimit:4;stroke-dasharray:none;stroke-dashoffset:0;stroke-opacity:1;color-rendering:auto;image-rendering:auto;shape-rendering:auto;text-rendering:auto;enable-background:accumulate;stop-color:#000000;stop-opacity:1"
           d="m 40.987,43.925 h 2.2437 l -1.5556,7.7483 h -2.2437 z m 0.25429,-2.0493 c 0.06981,-0.36897 0.21939,-0.64818 0.44874,-0.83765 0.23933,-0.18947 0.58835,-0.2842 1.0471,-0.2842 0.45875,0 0.76286,0.09474 0.91244,0.2842 0.15955,0.18947 0.20443,0.46869 0.13462,0.83765 -0.07978,0.37894 -0.23434,0.66314 -0.4637,0.85261 -0.22936,0.1795 -0.57339,0.26925 -1.0321,0.26925 -0.45871,0 -0.76785,-0.08975 -0.9274,-0.26925 -0.15955,-0.18947 -0.19944,-0.47367 -0.11966,-0.85261 z"
           id="path37" />
        <path
           style="color:#000000;font-style:normal;font-variant:normal;font-weight:normal;font-stretch:normal;font-size:medium;line-height:normal;font-family:sans-serif;font-variant-ligatures:normal;font-variant-position:normal;font-variant-caps:normal;font-variant-numeric:normal;font-variant-alternates:normal;font-variant-east-asian:normal;font-feature-settings:normal;font-variation-settings:normal;text-indent:0;text-align:start;text-decoration:none;text-decoration-line:none;text-decoration-style:solid;text-decoration-color:#000000;letter-spacing:normal;word-spacing:normal;text-transform:none;writing-mode:lr-tb;direction:ltr;text-orientation:mixed;dominant-baseline:auto;baseline-shift:baseline;text-anchor:start;white-space:normal;shape-padding:0;shape-margin:0;inline-size:0;clip-rule:nonzero;display:inline;overflow:visible;visibility:visible;opacity:1;isolation:auto;mix-blend-mode:normal;color-interpolation:sRGB;color-interpolation-filters:linearRGB;solid-color:#000000;solid-opacity:1;vector-effect:none;fill:#000000;fill-opacity:1;fill-rule:nonzero;stroke:none;stroke-width:0.26458;stroke-linecap:butt;stroke-linejoin:miter;stroke-miterlimit:4;stroke-dasharray:none;stroke-dashoffset:0;stroke-opacity:1;color-rendering:auto;image-rendering:auto;shape-rendering:auto;text-rendering:auto;enable-background:accumulate;stop-color:#000000;stop-opacity:1"
           d="m 44.503,43.925 h 1.2415 l 0.4637,-2.3185 h 2.2288 l -0.4637,2.3185 h 2.2437 l -0.31412,1.5706 h -2.2437 l -0.62824,3.0814 c -0.0698,0.34902 -0.10471,0.63323 -0.10471,0.85261 0.01,0.20941 0.04986,0.37894 0.11966,0.50858 0.0698,0.11966 0.16952,0.20443 0.29916,0.25429 0.13961,0.03989 0.30914,0.05983 0.50858,0.05983 0.31911,0 0.64818,-0.04487 0.98723,-0.13462 l -0.13462,1.5856 c -0.23933,0.04986 -0.48365,0.08476 -0.73295,0.10471 -0.2493,0.02991 -0.48863,0.04487 -0.71799,0.04487 -0.66813,0 -1.1917,-0.08476 -1.5706,-0.25429 -0.36897,-0.16952 -0.62824,-0.42381 -0.77782,-0.76286 -0.14958,-0.33905 -0.20941,-0.76785 -0.1795,-1.2864 0.02991,-0.51855 0.11468,-1.1219 0.25429,-1.8099 l 0.44874,-2.2437 h -1.2415 z"
           id="path39" />
        <path
           style="color:#000000;font-style:normal;font-variant:normal;font-weight:normal;font-stretch:normal;font-size:medium;line-height:normal;font-family:sans-serif;font-variant-ligatures:normal;font-variant-position:normal;font-variant-caps:normal;font-variant-numeric:normal;font-variant-alternates:normal;font-variant-east-asian:normal;font-feature-settings:normal;font-variation-settings:normal;text-indent:0;text-align:start;text-decoration:none;text-decoration-line:none;text-decoration-style:solid;text-decoration-color:#000000;letter-spacing:normal;word-spacing:normal;text-transform:none;writing-mode:lr-tb;direction:ltr;text-orientation:mixed;dominant-baseline:auto;baseline-shift:baseline;text-anchor:start;white-space:normal;shape-padding:0;shape-margin:0;inline-size:0;clip-rule:nonzero;display:inline;overflow:visible;visibility:visible;opacity:1;isolation:auto;mix-blend-mode:normal;color-interpolation:sRGB;color-interpolation-filters:linearRGB;solid-color:#000000;solid-opacity:1;vector-effect:none;fill:#000000;fill-opacity:1;fill-rule:nonzero;stroke:none;stroke-width:0.26458;stroke-linecap:butt;stroke-linejoin:miter;stroke-miterlimit:4;stroke-dasharray:none;stroke-dashoffset:0;stroke-opacity:1;color-rendering:auto;image-rendering:auto;shape-rendering:auto;text-rendering:auto;enable-background:accumulate;stop-color:#000000;stop-opacity:1"
           d="m 52.371,51.853 c -0.39888,0 -0.76286,-0.05485 -1.0919,-0.16454 -0.32908,-0.10969 -0.60331,-0.26925 -0.8227,-0.47866 -0.21939,-0.20941 -0.37395,-0.46869 -0.4637,-0.77782 -0.07978,-0.30913 -0.07978,-0.66314 0,-1.062 0.15955,-0.80774 0.58835,-1.4509 1.2864,-1.9296 0.70802,-0.48863 1.6454,-0.73295 2.8121,-0.73295 h 1.436 l 0.07479,-0.35899 c 0.07978,-0.37894 0.01994,-0.6432 -0.1795,-0.79278 -0.18947,-0.14958 -0.55345,-0.22437 -1.0919,-0.22437 -0.47866,0 -0.9623,0.06482 -1.4509,0.19446 -0.47866,0.11966 -0.9274,0.2842 -1.3462,0.49362 l 0.10471,-1.5856 c 0.4288,-0.19944 0.93239,-0.36398 1.5108,-0.49362 0.57841,-0.12964 1.1518,-0.19446 1.7202,-0.19446 1.2066,0 2.0443,0.22936 2.513,0.68807 0.46869,0.44874 0.59334,1.2066 0.37395,2.2736 l -0.98723,4.9661 h -2.2288 l 0.10471,-0.50858 c -0.37894,0.2493 -0.73793,0.42381 -1.077,0.52353 -0.32908,0.10969 -0.72796,0.16454 -1.1966,0.16454 z m 0.83765,-1.5407 c 0.30913,0 0.61827,-0.04986 0.9274,-0.14958 0.30913,-0.10969 0.57838,-0.27423 0.80774,-0.49362 l 0.2842,-1.436 h -1.3612 c -0.50858,0 -0.88751,0.09972 -1.1368,0.29916 -0.2493,0.18947 -0.40885,0.45373 -0.47866,0.79278 -0.05983,0.33905 -0.005,0.58835 0.16454,0.7479 0.16952,0.15955 0.43378,0.23933 0.79278,0.23933 z"
           id="path41" />
      </g>
      <path
         style="color:#000000;font-style:normal;font-variant:normal;font-weight:normal;font-stretch:normal;font-size:medium;line-height:normal;font-family:sans-serif;font-variant-ligatures:normal;font-variant-position:normal;font-variant-caps:normal;font-variant-numeric:normal;font-variant-alternates:normal;font-variant-east-asian:normal;font-feature-settings:normal;font-variation-settings:normal;text-indent:0;text-align:start;text-decoration:none;text-decoration-line:none;text-decoration-style:solid;text-decoration-color:#000000;letter-spacing:normal;word-spacing:normal;text-transform:none;writing-mode:lr-tb;direction:ltr;text-orientation:mixed;dominant-baseline:auto;baseline-shift:baseline;text-anchor:start;white-space:normal;shape-padding:0;shape-margin:0;inline-size:0;clip-rule:nonzero;display:inline;overflow:visible;visibility:visible;opacity:1;isolation:auto;mix-blend-mode:normal;color-interpolation:sRGB;color-interpolation-filters:linearRGB;solid-color:#000000;solid-opacity:1;vector-effect:none;fill:#c0b266;fill-opacity:1;fill-rule:nonzero;stroke:none;stroke-width:0.26458;stroke-linecap:butt;stroke-linejoin:miter;stroke-miterlimit:4;stroke-dasharray:none;stroke-dashoffset:0;stroke-opacity:1;color-rendering:auto;image-rendering:auto;shape-rendering:auto;text-rendering:auto;enable-background:accumulate;stop-color:#000000;stop-opacity:1"
         d="m 58.339,43.97 c 0,-0.91743 0.33406,-1.6354 1.0022,-2.154 0.66813,-0.52852 1.6304,-0.79278 2.8869,-0.79278 0.51855,0 1.0271,0.04487 1.5257,0.13462 0.4986,0.08975 0.9623,0.21939 1.3911,0.38891 l -0.16454,1.8847 c -0.87754,-0.36897 -1.7401,-0.55345 -2.5878,-0.55345 -0.6083,0 -1.0421,0.09474 -1.3014,0.2842 -0.25927,0.18947 -0.38891,0.4288 -0.38891,0.71799 0,0.31911 0.12964,0.60331 0.38891,0.85261 0.25927,0.23933 0.7479,0.47866 1.4659,0.71799 1.0969,0.36897 1.8947,0.81272 2.3933,1.3313 0.4986,0.51855 0.7479,1.1767 0.7479,1.9745 0,0.98724 -0.33406,1.7501 -1.0022,2.2886 -0.66813,0.53849 -1.6853,0.80774 -3.0515,0.80774 -0.56841,0 -1.1418,-0.05983 -1.7202,-0.1795 -0.56841,-0.11966 -1.082,-0.29418 -1.5407,-0.52353 l 0.1795,-2.0493 c 0.41883,0.28919 0.88253,0.51356 1.3911,0.67312 0.51855,0.14958 1.057,0.22437 1.6155,0.22437 0.53849,0 0.96729,-0.08975 1.2864,-0.26925 0.31911,-0.18947 0.47866,-0.47866 0.47866,-0.86757 0,-0.1795 -0.02992,-0.34404 -0.08975,-0.49362 -0.05983,-0.14958 -0.16953,-0.2842 -0.32908,-0.40387 -0.14958,-0.12964 -0.35401,-0.25429 -0.61328,-0.37395 -0.25927,-0.11966 -0.58336,-0.24432 -0.97228,-0.37395 -1.0271,-0.31911 -1.785,-0.74292 -2.2736,-1.2714 -0.47866,-0.52852 -0.71799,-1.1867 -0.71799,-1.9745 z"
         id="path45" />
      <g
         id="g55">
        <path
           style="color:#000000;font-style:normal;font-variant:normal;font-weight:normal;font-stretch:normal;font-size:medium;line-height:normal;font-family:sans-serif;font-variant-ligatures:normal;font-variant-position:normal;font-variant-caps:normal;font-variant-numeric:normal;font-variant-alternates:normal;font-variant-east-asian:normal;font-feature-settings:normal;font-variation-settings:normal;text-indent:0;text-align:start;text-decoration:none;text-decoration-line:none;text-decoration-style:solid;text-decoration-color:#000000;letter-spacing:normal;word-spacing:normal;text-transform:none;writing-mode:lr-tb;direction:ltr;text-orientation:mixed;dominant-baseline:auto;baseline-shift:baseline;text-anchor:start;white-space:normal;shape-padding:0;shape-margin:0;inline-size:0;clip-rule:nonzero;display:inline;overflow:visible;visibility:visible;opacity:1;isolation:auto;mix-blend-mode:normal;color-interpolation:sRGB;color-interpolation-filters:linearRGB;solid-color:#000000;solid-opacity:1;vector-effect:none;fill:#000000;fill-opacity:1;fill-rule:nonzero;stroke:none;stroke-width:0.26458;stroke-linecap:butt;stroke-linejoin:miter;stroke-miterlimit:4;stroke-dasharray:none;stroke-dashoffset:0;stroke-opacity:1;color-rendering:auto;image-rendering:auto;shape-rendering:auto;text-rendering:auto;enable-background:accumulate;stop-color:#000000;stop-opacity:1"
           d="m 69.079,47.799 c 0,0.77782 0.20941,1.3811 0.62824,1.8099 0.4288,0.4288 1.0172,0.6432 1.7651,0.6432 0.38891,0 0.7479,-0.03989 1.077,-0.11966 0.32908,-0.08975 0.62325,-0.22437 0.88253,-0.40387 l 0.14958,1.6454 c -0.31911,0.16952 -0.6781,0.28919 -1.077,0.359 -0.39888,0.07978 -0.80774,0.11966 -1.2266,0.11966 -0.69804,0 -1.3213,-0.08975 -1.8698,-0.26925 -0.54846,-0.18947 -1.0172,-0.45872 -1.4061,-0.80774 -0.37894,-0.35899 -0.67312,-0.78779 -0.88253,-1.2864 -0.19944,-0.4986 -0.29916,-1.062 -0.29916,-1.6903 0,-0.62824 0.09972,-1.1917 0.29916,-1.6903 0.20941,-0.4986 0.50359,-0.92242 0.88253,-1.2714 0.37894,-0.34902 0.83267,-0.61827 1.3612,-0.80774 0.53849,-0.18947 1.1418,-0.2842 1.8099,-0.2842 0.41883,0 0.82768,0.03989 1.2266,0.11966 0.40886,0.06981 0.78281,0.18448 1.1219,0.34404 l -0.16454,1.6454 c -0.25927,-0.16952 -0.56342,-0.29418 -0.91244,-0.37395 -0.33905,-0.08975 -0.69804,-0.13462 -1.077,-0.13462 -0.6781,0 -1.2316,0.2144 -1.6603,0.6432 -0.41883,0.4288 -0.62824,1.0321 -0.62824,1.8099 z"
           id="path47" />
        <path
           style="color:#000000;font-style:normal;font-variant:normal;font-weight:normal;font-stretch:normal;font-size:medium;line-height:normal;font-family:sans-serif;font-variant-ligatures:normal;font-variant-position:normal;font-variant-caps:normal;font-variant-numeric:normal;font-variant-alternates:normal;font-variant-east-asian:normal;font-feature-settings:normal;font-variation-settings:normal;text-indent:0;text-align:start;text-decoration:none;text-decoration-line:none;text-decoration-style:solid;text-decoration-color:#000000;letter-spacing:normal;word-spacing:normal;text-transform:none;writing-mode:lr-tb;direction:ltr;text-orientation:mixed;dominant-baseline:auto;baseline-shift:baseline;text-anchor:start;white-space:normal;shape-padding:0;shape-margin:0;inline-size:0;clip-rule:nonzero;display:inline;overflow:visible;visibility:visible;opacity:1;isolation:auto;mix-blend-mode:normal;color-interpolation:sRGB;color-interpolation-filters:linearRGB;solid-color:#000000;solid-opacity:1;vector-effect:none;fill:#000000;fill-opacity:1;fill-rule:nonzero;stroke:none;stroke-width:0.26458;stroke-linecap:butt;stroke-linejoin:miter;stroke-miterlimit:4;stroke-dasharray:none;stroke-dashoffset:0;stroke-opacity:1;color-rendering:auto;image-rendering:auto;shape-rendering:auto;text-rendering:auto;enable-background:accumulate;stop-color:#000000;stop-opacity:1"
           d="m 78.637,45.346 c -0.28919,0 -0.55844,0.05485 -0.80774,0.16454 -0.23933,0.10969 -0.43877,0.2493 -0.59832,0.41883 v 5.7439 h -2.2288 v -10.919 h 2.2288 v 3.6797 c 0.23933,-0.19944 0.52852,-0.36398 0.86757,-0.49362 0.33905,-0.12964 0.71799,-0.19446 1.1368,-0.19446 0.99721,0 1.77,0.30913 2.3185,0.9274 0.55844,0.6083 0.83765,1.5158 0.83765,2.7224 v 4.278 h -2.2288 v -4.2481 c 0,-0.73793 -0.12964,-1.2665 -0.38891,-1.5856 -0.2493,-0.32908 -0.62824,-0.49362 -1.1368,-0.49362 z"
           id="path49" />
        <path
           style="color:#000000;font-style:normal;font-variant:normal;font-weight:normal;font-stretch:normal;font-size:medium;line-height:normal;font-family:sans-serif;font-variant-ligatures:normal;font-variant-position:normal;font-variant-caps:normal;font-variant-numeric:normal;font-variant-alternates:normal;font-variant-east-asian:normal;font-feature-settings:normal;font-variation-settings:normal;text-indent:0;text-align:start;text-decoration:none;text-decoration-line:none;text-decoration-style:solid;text-decoration-color:#000000;letter-spacing:normal;word-spacing:normal;text-transform:none;writing-mode:lr-tb;direction:ltr;text-orientation:mixed;dominant-baseline:auto;baseline-shift:baseline;text-anchor:start;white-space:normal;shape-padding:0;shape-margin:0;inline-size:0;clip-rule:nonzero;display:inline;overflow:visible;visibility:visible;opacity:1;isolation:auto;mix-blend-mode:normal;color-interpolation:sRGB;color-interpolation-filters:linearRGB;solid-color:#000000;solid-opacity:1;vector-effect:none;fill:#000000;fill-opacity:1;fill-rule:nonzero;stroke:none;stroke-width:0.26458;stroke-linecap:butt;stroke-linejoin:miter;stroke-miterlimit:4;stroke-dasharray:none;stroke-dashoffset:0;stroke-opacity:1;color-rendering:auto;image-rendering:auto;shape-rendering:auto;text-rendering:auto;enable-background:accumulate;stop-color:#000000;stop-opacity:1"
           d="m 87.836,51.853 c -0.61827,0 -1.1767,-0.09972 -1.6753,-0.29916 -0.48863,-0.19944 -0.90746,-0.47866 -1.2565,-0.83765 -0.34902,-0.359 -0.61827,-0.78779 -0.80774,-1.2864 -0.18947,-0.49861 -0.2842,-1.0421 -0.2842,-1.6304 0,-0.58835 0.09474,-1.1268 0.2842,-1.6155 0.18947,-0.4986 0.45872,-0.9274 0.80774,-1.2864 0.34902,-0.359 0.76785,-0.63821 1.2565,-0.83765 0.4986,-0.20941 1.057,-0.31412 1.6753,-0.31412 0.6183,0 1.1717,0.10471 1.6603,0.31412 0.4986,0.19944 0.92242,0.47866 1.2714,0.83765 0.34902,0.359 0.61827,0.78779 0.80774,1.2864 0.18947,0.48863 0.2842,1.0271 0.2842,1.6155 0,0.58835 -0.09474,1.1318 -0.2842,1.6304 -0.18947,0.4986 -0.45872,0.9274 -0.80774,1.2864 -0.34902,0.359 -0.77284,0.63821 -1.2714,0.83765 -0.48863,0.19944 -1.0421,0.29916 -1.6603,0.29916 z m 0,-1.6005 c 0.54846,0 0.97726,-0.20941 1.2864,-0.62824 0.31911,-0.4288 0.47866,-1.0371 0.47866,-1.8249 0,-0.7878 -0.15955,-1.3911 -0.47866,-1.8099 -0.30913,-0.4288 -0.73793,-0.6432 -1.2864,-0.6432 -0.54846,0 -0.98225,0.2144 -1.3014,0.6432 -0.30913,0.41883 -0.4637,1.0221 -0.4637,1.8099 0,0.7878 0.15457,1.3961 0.4637,1.8249 0.31911,0.41883 0.75289,0.62824 1.3014,0.62824 z"
           id="path51" />
        <path
           style="color:#000000;font-style:normal;font-variant:normal;font-weight:normal;font-stretch:normal;font-size:medium;line-height:normal;font-family:sans-serif;font-variant-ligatures:normal;font-variant-position:normal;font-variant-caps:normal;font-variant-numeric:normal;font-variant-alternates:normal;font-variant-east-asian:normal;font-feature-settings:normal;font-variation-settings:normal;text-indent:0;text-align:start;text-decoration:none;text-decoration-line:none;text-decoration-style:solid;text-decoration-color:#000000;letter-spacing:normal;word-spacing:normal;text-transform:none;writing-mode:lr-tb;direction:ltr;text-orientation:mixed;dominant-baseline:auto;baseline-shift:baseline;text-anchor:start;white-space:normal;shape-padding:0;shape-margin:0;inline-size:0;clip-rule:nonzero;display:inline;overflow:visible;visibility:visible;opacity:1;isolation:auto;mix-blend-mode:normal;color-interpolation:sRGB;color-interpolation-filters:linearRGB;solid-color:#000000;solid-opacity:1;vector-effect:none;fill:#000000;fill-opacity:1;fill-rule:nonzero;stroke:none;stroke-width:0.26458;stroke-linecap:butt;stroke-linejoin:miter;stroke-miterlimit:4;stroke-dasharray:none;stroke-dashoffset:0;stroke-opacity:1;color-rendering:auto;image-rendering:auto;shape-rendering:auto;text-rendering:auto;enable-background:accumulate;stop-color:#000000;stop-opacity:1"
           d="m 96.931,51.853 c -0.61827,0 -1.1767,-0.09972 -1.6753,-0.29916 -0.48863,-0.19944 -0.90746,-0.47866 -1.2565,-0.83765 -0.34902,-0.359 -0.61827,-0.78779 -0.80774,-1.2864 -0.18947,-0.49861 -0.2842,-1.0421 -0.2842,-1.6304 0,-0.58835 0.09474,-1.1268 0.2842,-1.6155 0.18947,-0.4986 0.45872,-0.9274 0.80774,-1.2864 0.34902,-0.359 0.76785,-0.63821 1.2565,-0.83765 0.4986,-0.20941 1.057,-0.31412 1.6753,-0.31412 0.61827,0 1.1717,0.10471 1.6603,0.31412 0.4986,0.19944 0.92242,0.47866 1.2714,0.83765 0.34903,0.359 0.61827,0.78779 0.80774,1.2864 0.18947,0.48863 0.2842,1.0271 0.2842,1.6155 0,0.58835 -0.0947,1.1318 -0.2842,1.6304 -0.18947,0.4986 -0.45871,0.9274 -0.80774,1.2864 -0.34902,0.359 -0.77284,0.63821 -1.2714,0.83765 -0.48863,0.19944 -1.0421,0.29916 -1.6603,0.29916 z m 0,-1.6005 c 0.54846,0 0.97726,-0.20941 1.2864,-0.62824 0.31911,-0.4288 0.47866,-1.0371 0.47866,-1.8249 0,-0.7878 -0.15955,-1.3911 -0.47866,-1.8099 -0.30913,-0.4288 -0.73793,-0.6432 -1.2864,-0.6432 -0.54846,0 -0.98225,0.2144 -1.3014,0.6432 -0.30913,0.41883 -0.4637,1.0221 -0.4637,1.8099 0,0.7878 0.15457,1.3961 0.4637,1.8249 0.31911,0.41883 0.75289,0.62824 1.3014,0.62824 z"
           id="path53" />
      </g>
      <path
         style="color:#000000;font-style:normal;font-variant:normal;font-weight:normal;font-stretch:normal;font-size:medium;line-height:normal;font-family:sans-serif;font-variant-ligatures:normal;font-variant-position:normal;font-variant-caps:normal;font-variant-numeric:normal;font-variant-alternates:normal;font-variant-east-asian:normal;font-feature-settings:normal;font-variation-settings:normal;text-indent:0;text-align:start;text-decoration:none;text-decoration-line:none;text-decoration-style:solid;text-decoration-color:#000000;letter-spacing:normal;word-spacing:normal;text-transform:none;writing-mode:lr-tb;direction:ltr;text-orientation:mixed;dominant-baseline:auto;baseline-shift:baseline;text-anchor:start;white-space:normal;shape-padding:0;shape-margin:0;inline-size:0;clip-rule:nonzero;display:inline;overflow:visible;visibility:visible;opacity:1;isolation:auto;mix-blend-mode:normal;color-interpolation:sRGB;color-interpolation-filters:linearRGB;solid-color:#000000;solid-opacity:1;vector-effect:none;fill:#3366cc;fill-opacity:1;fill-rule:nonzero;stroke:none;stroke-width:0.26458;stroke-linecap:butt;stroke-linejoin:miter;stroke-miterlimit:4;stroke-dasharray:none;stroke-dashoffset:0;stroke-opacity:1;color-rendering:auto;image-rendering:auto;shape-rendering:auto;text-rendering:auto;enable-background:accumulate;stop-color:#000000;stop-opacity:1"
         d="m 102.53,40.754 h 2.2288 V 51.673 H 102.53 Z"
         id="path57" />
    </g>
  </g>
</svg>
