<?xml version="1.0" encoding="iso-8859-1"?>
<!-- Uploaded to: SVG Repo, www.svgrepo.com, Generator: SVG Repo Mixer Tools -->
<svg height="800px" width="800px" version="1.1" id="Layer_1" xmlns="http://www.w3.org/2000/svg" xmlns:xlink="http://www.w3.org/1999/xlink" 
	 viewBox="0 0 511.996 511.996" xml:space="preserve">
<path style="fill:#8CC0C5;" d="M124.065,339.196l-3.371-7.654c-5.427-12.373-8.986-26.59-10.564-42.249l-1.425-14.089h63.829
	l0.589,12.177c0.597,12.356,2.142,24.61,4.582,36.437l3.183,15.386h-56.823V339.196z"/>
<path style="fill:#A9D0D3;" d="M108.705,275.196l1.425-14.089c1.587-15.659,5.146-29.875,10.564-42.249l3.371-7.654h56.832
	l-3.183,15.386c-2.441,11.819-3.985,24.073-4.582,36.437l-0.589,12.169H108.705z"/>
<g>
	<path style="fill:#C5DFE2;" d="M317.9,211.196l-2.935-8.704c-4.036-11.938-9.02-22.75-14.822-32.145l-25.745-41.626l42.829,23.697
		c17.519,9.694,32.427,22.571,44.305,38.255l15.539,20.523H317.9z"/>
	<path style="fill:#C5DFE2;" d="M249.574,211.196v-80.794l18.185,8.422c17.596,8.149,33.237,27.631,44.032,54.852l6.946,17.519
		L249.574,211.196L249.574,211.196z"/>
</g>
<g>
	<path style="fill:#A9D0D3;" d="M326.595,275.196l-0.58-12.186c-0.589-12.305-2.133-24.559-4.582-36.429l-3.183-15.386h56.832
		l3.362,7.646c5.427,12.348,8.986,26.573,10.573,42.257l1.425,14.089h-63.846V275.196z"/>
	<path style="fill:#A9D0D3;" d="M249.574,275.196v-64h68.54l2.304,9.916c2.679,11.631,4.403,24.917,5.231,40.602l0.717,13.483
		H249.574z"/>
</g>
<g>
	<path style="fill:#6FB0B6;" d="M181.921,397.973c-17.519-9.694-32.427-22.571-44.305-38.255l-15.539-20.523h59.17l2.944,8.704
		c4.036,11.93,9.028,22.75,14.831,32.154l25.668,41.583L181.921,397.973z"/>
	<path style="fill:#6FB0B6;" d="M249.574,339.196h69.163l-6.946,17.519c-10.803,27.221-26.445,46.703-44.032,54.852l-18.185,8.422
		L249.574,339.196L249.574,339.196z"/>
</g>
<path style="fill:#8CC0C5;" d="M249.574,339.196v-64h76.791l-0.717,13.483c-0.836,15.684-2.551,28.971-5.231,40.602l-2.304,9.916
	H249.574z"/>
<path style="fill:#C5DFE2;" d="M122.077,211.196l15.539-20.523c11.887-15.684,26.795-28.561,44.305-38.255l42.778-23.663
	l-25.685,41.591c-5.811,9.404-10.795,20.215-14.831,32.154l-2.944,8.704h-59.162V211.196z"/>
<path style="fill:#8CC0C5;" d="M318.25,339.196l3.183-15.386c2.449-11.87,3.994-24.124,4.582-36.429l0.58-12.186h63.838
	l-1.425,14.089c-1.596,15.684-5.154,29.909-10.573,42.257l-3.362,7.646H318.25V339.196z"/>
<path style="fill:#6FB0B6;" d="M300.134,380.045c5.82-9.404,10.812-20.215,14.831-32.145l2.935-8.704h59.179l-15.539,20.523
	c-11.887,15.684-26.795,28.561-44.305,38.255l-42.812,23.689L300.134,380.045z"/>
<path style="fill:#8CC0C5;" d="M181.042,339.196l-2.304-9.916c-2.688-11.665-4.412-24.943-5.239-40.602l-0.717-13.483h76.791v64
	H181.042z"/>
<path style="fill:#C5DFE2;" d="M180.428,211.196l6.938-17.519c10.795-27.213,26.428-46.694,44.023-54.852l18.185-8.431v80.802
	H180.428z"/>
<path style="fill:#A9D0D3;" d="M172.782,275.196l0.717-13.483c0.836-15.659,2.551-28.945,5.239-40.602l2.304-9.916h68.531v64
	H172.782z"/>
<path style="fill:#6FB0B6;" d="M231.389,411.567c-17.604-8.158-33.237-27.639-44.023-54.852l-6.938-17.519h69.154v80.802
	L231.389,411.567z"/>
<g>
	<path style="fill:#573A32;" d="M95.974,275.196c0,84.83,68.77,153.6,153.6,153.6s153.6-68.77,153.6-153.6s-68.77-153.6-153.6-153.6
		S95.974,190.366,95.974,275.196z M188.125,163.614c-6.289,10.18-11.699,21.871-16.068,34.782h-24.235
		C158.651,184.102,172.347,172.343,188.125,163.614z M132.428,223.996h32.759c-2.517,12.186-4.19,25.028-4.83,38.4h-37.478
		C124.236,248.913,127.188,235.925,132.428,223.996z M132.428,326.396c-5.239-11.93-8.192-24.917-9.557-38.4h37.478
		c0.64,13.372,2.313,26.214,4.83,38.4H132.428z M147.831,351.996h24.235c4.361,12.911,9.779,24.602,16.068,34.782
		C172.347,378.048,158.651,366.289,147.831,351.996z M236.774,399.953c-14.148-6.554-27.827-23.535-37.513-47.957h37.513V399.953z
		 M236.774,326.396h-45.568c-2.705-11.716-4.207-24.747-4.924-38.4h50.492V326.396z M236.774,262.396h-50.492
		c0.725-13.653,2.219-26.684,4.924-38.4h45.568V262.396z M236.774,198.396h-37.513c9.685-24.422,23.364-41.395,37.513-47.957
		V198.396z M311.022,386.778c6.289-10.18,11.699-21.871,16.068-34.782h24.235C340.505,366.289,326.8,378.048,311.022,386.778z
		 M366.728,326.396h-32.759c2.517-12.186,4.19-25.028,4.83-38.4h37.487C374.92,301.478,371.967,314.466,366.728,326.396z
		 M366.728,223.996c5.239,11.93,8.192,24.917,9.557,38.4h-37.487c-0.64-13.372-2.313-26.214-4.83-38.4H366.728z M351.325,198.396
		H327.09c-4.361-12.911-9.779-24.602-16.06-34.782C326.8,172.343,340.505,184.102,351.325,198.396z M262.374,150.438
		c14.148,6.554,27.827,23.535,37.513,47.957h-37.513V150.438L262.374,150.438z M262.374,223.996h45.559
		c2.705,11.716,4.207,24.747,4.924,38.4h-50.492v-38.4H262.374z M262.374,287.996h50.492c-0.725,13.653-2.219,26.684-4.924,38.4
		h-45.559v-38.4H262.374z M262.374,351.996h37.513c-9.685,24.422-23.364,41.395-37.513,47.957V351.996L262.374,351.996z"/>
	<path style="fill:#573A32;" d="M498.781,386.453c-1.826-6.827-8.841-10.88-15.676-9.054l-23.945,6.417
		c17.007-32.606,27.204-69.299,27.204-108.621c0-111.07-76.578-204.023-179.746-229.589c0.282,1.843,0.555,3.695,0.555,5.589
		c0,7.014-2.005,13.687-5.513,19.567c91.298,23.287,159.113,105.984,159.113,204.433c0,33.988-8.405,65.937-22.733,94.404
		l-5.777-21.538c-1.826-6.827-8.841-10.88-15.676-9.054c-3.413,0.913-6.135,3.123-7.774,5.965c-1.638,2.842-2.193,6.298-1.28,9.711
		l14.054,52.454c1.835,6.835,8.841,10.88,15.676,9.054l52.454-14.054C496.562,400.303,500.616,393.289,498.781,386.453z"/>
	<path style="fill:#573A32;" d="M45.977,332.173c0.145,0,0.29,0.06,0.444,0.06c-5.111-18.176-8.038-37.248-8.038-57.037
		c0-112.222,88.09-203.87,198.699-210.398L221.328,80.55c-5.001,5.001-5.001,13.099,0,18.099c2.5,2.5,5.769,3.746,9.045,3.746
		s6.554-1.246,9.054-3.746l38.4-38.4c5.001-5.001,5.001-13.099,0-18.099l-38.4-38.4c-5.001-5.001-13.099-5.001-18.099,0
		s-5.001,13.099,0,18.099l17.109,17.109C112.861,44.813,12.774,148.177,12.774,275.196c0,22.724,3.388,44.621,9.361,65.425
		C28.765,335.339,37.059,332.173,45.977,332.173z"/>
	<path style="fill:#573A32;" d="M400.784,422.336c-38.391,39.45-91.947,64.06-151.211,64.06
		c-73.438,0-137.745-38.025-175.582-95.078l21.137,5.666c6.827,1.835,13.85-2.219,15.676-9.054c0.913-3.413,0.358-6.878-1.28-9.711
		c-1.638-2.833-4.361-5.043-7.774-5.965l-52.454-14.054c-6.835-1.826-13.85,2.219-15.676,9.054l-14.054,52.454
		c-1.826,6.835,2.219,13.841,9.054,15.676c6.827,1.835,13.85-2.219,15.676-9.054l6.349-23.68
		c42.095,65.587,115.217,109.346,198.929,109.346c66.995,0,127.36-27.938,170.436-72.653
		C411.818,436.109,405.128,430.101,400.784,422.336z"/>
</g>
</svg>