<?xml version="1.0" encoding="UTF-8" standalone="no"?>
<svg
   xmlns:dc="http://purl.org/dc/elements/1.1/"
   xmlns:cc="http://creativecommons.org/ns#"
   xmlns:rdf="http://www.w3.org/1999/02/22-rdf-syntax-ns#"
   xmlns:svg="http://www.w3.org/2000/svg"
   xmlns="http://www.w3.org/2000/svg"
   xmlns:sodipodi="http://sodipodi.sourceforge.net/DTD/sodipodi-0.dtd"
   xmlns:inkscape="http://www.inkscape.org/namespaces/inkscape"
   viewBox="0 0 780 780"
   version="1.1"
   sodipodi:docname="smpn_210_jakarta.svg"
   inkscape:version="0.92.4 (5da689c313, 2019-01-14)"
   height="100"
   width="100"
   id="svg1">
  <defs
     id="defs1">
    <inkscape:path-effect
       effect="skeletal"
       id="path-effect918"
       is_visible="true"
       pattern="m 60.47348,-15.113881 c -0.874574,-3.898361 -2.266886,-7.745623 -4.625196,-11.062342 -1.850005,-2.601845 -4.332088,-4.80664 -7.211907,-6.390348 -2.824858,-1.553479 -5.970037,-2.540188 -9.1612,-3.236766 h -1.1e-5 c -3.446413,-0.752292 -6.96203,-1.186645 -10.473147,-1.601596 v 0 c -7.567756,-0.894375 -15.2458,-1.731956 -22.332585,-4.371354 h -2.31e-5 c -3.8157169,-1.421123 -7.41664965,-3.361791 -10.5846739,-5.806588 -3.71938,-2.870283 -6.823763,-6.401784 -9.347104,-10.245077 -2.523353,3.843293 -5.627734,7.374794 -9.347114,10.245077 l -1.2e-5,6e-6 c -3.168024,2.444797 -6.768969,4.385459 -10.584687,5.806582 -7.086784,2.639398 -14.764826,3.476979 -22.332583,4.371354 l -1.1e-5,10e-7 c -3.511107,0.41495 -7.026723,0.849303 -10.473136,1.601595 -3.191163,0.696578 -6.336378,1.683287 -9.161211,3.236766 -2.879819,1.583708 -5.361902,3.788503 -7.211895,6.390348 -2.358308,3.316722 -3.750637,7.163981 -4.625211,11.062345"
       copytype="repeated_stretched"
       prop_scale="0.57037784"
       scale_y_rel="false"
       spacing="0"
       normal_offset="0"
       tang_offset="0"
       prop_units="false"
       vertical_pattern="false"
       fuse_tolerance="0" />
    <inkscape:path-effect
       fuse_tolerance="0"
       vertical_pattern="false"
       prop_units="false"
       tang_offset="0"
       normal_offset="0"
       spacing="0"
       scale_y_rel="false"
       prop_scale="1"
       copytype="repeated"
       pattern="M 0,0 H 1"
       is_visible="true"
       id="path-effect906"
       effect="skeletal" />
    <inkscape:path-effect
       effect="skeletal"
       id="path-effect884"
       is_visible="true"
       pattern="M 0,0 H 1"
       copytype="single_stretched"
       prop_scale="1"
       scale_y_rel="false"
       spacing="0"
       normal_offset="0"
       tang_offset="0"
       prop_units="false"
       vertical_pattern="false"
       fuse_tolerance="0" />
    <inkscape:path-effect
       effect="skeletal"
       id="path-effect877"
       is_visible="true"
       pattern="M 0,0 H 1"
       copytype="repeated"
       prop_scale="5"
       scale_y_rel="false"
       spacing="0"
       normal_offset="0"
       tang_offset="0"
       prop_units="false"
       vertical_pattern="false"
       fuse_tolerance="0" />
    <inkscape:path-effect
       effect="skeletal"
       id="path-effect884-3"
       is_visible="true"
       pattern="M 0,0 H 1"
       copytype="single_stretched"
       prop_scale="1"
       scale_y_rel="false"
       spacing="0"
       normal_offset="0"
       tang_offset="0"
       prop_units="false"
       vertical_pattern="false"
       fuse_tolerance="0" />
  </defs>
  <sodipodi:namedview
     id="logo210"
     bordercolor="#666666"
     borderopacity="1"
     gridtolerance="10"
     guidetolerance="10"
     inkscape:current-layer="g6294"
     inkscape:cx="24.029363"
     inkscape:cy="35.654834"
     inkscape:pageopacity="0"
     inkscape:pageshadow="2"
     inkscape:window-height="986"
     inkscape:window-maximized="1"
     inkscape:window-width="1920"
     inkscape:window-x="-11"
     inkscape:window-y="-11"
     inkscape:zoom="5.6568542"
     objecttolerance="10"
     pagecolor="#ffffff"
     showgrid="false"
     inkscape:document-rotation="0" />
  <metadata
     id="metadata13">
    <rdf:RDF>
      <cc:Work
         rdf:about="">
        <dc:title />
        <dc:format>image/svg+xml</dc:format>
        <dc:type
           rdf:resource="http://purl.org/dc/dcmitype/StillImage" />
      </cc:Work>
    </rdf:RDF>
  </metadata>
  <g
     id="g6294"
     transform="matrix(2.1004303,0,0,2.101134,-17.60477,-21.955343)">
    <path
       sodipodi:nodetypes="ccccccccccc"
       inkscape:connector-curvature="0"
       id="path989-6"
       d="M 99.178512,74.46798 C 111.87962,27.764032 162.51708,63.07593 193.04958,21.115422 c 32.0107,43.230718 78.83823,4.370624 94.39235,54.566268 47.18433,-7.79941 29.9436,55.1271 81.97701,71.77545 -32.00597,42.09694 18.63735,82.53129 -22.39638,107.82513 15.13921,39.70169 -47.84099,57.86277 -47.73173,99.33359 -47.35794,-15.47305 -66.11477,39.19709 -107.15022,12.27126 -37.93864,29.93768 -49.56518,-29.48883 -107.451718,-12.13168 -1.875,-59.69297 -61.66799,-53.17625 -45.06603,-99.47317 -35.84672,-20.62665 0.90476,-81.4595 -20.52113,-106.76108 45.32246,-15.1398 36.32396,-75.01081 80.07678,-74.05321 z"
       style="fill:#ffffff;fill-opacity:1;stroke:#ed1b24;stroke-width:3.71290278;stroke-linecap:butt;stroke-linejoin:miter;stroke-miterlimit:4;stroke-dasharray:none;stroke-opacity:1" />
    <path
       sodipodi:nodetypes="ccccccccccc"
       inkscape:connector-curvature="0"
       id="path989-8-4"
       d="m 112.23705,93.223024 c 10.84155,-39.86603 54.0652,-9.72414 80.12744,-45.54122 27.32401,36.90132 67.29552,3.73072 80.57236,46.57723 40.27609,-6.6575 25.55957,47.055926 69.97478,61.266806 -27.31999,35.93352 15.90865,70.4479 -19.11734,92.03848 12.92268,33.88898 -40.8366,49.39109 -40.74333,84.79018 -40.42426,-13.20764 -56.43492,33.45824 -91.46237,10.47462 -32.38404,25.55453 -42.30835,-25.17138 -91.71974,-10.35547 -1.60048,-50.95334 -52.63917,-45.39073 -38.4679,-84.90933 -30.59841,-17.6067 0.77229,-69.53305 -17.51663,-91.13022 38.6868,-12.92319 31.00577,-64.028466 68.35273,-63.211076 z"
       style="fill:#ffd825;fill-opacity:1;stroke:none;stroke-width:3.32900167;stroke-linecap:butt;stroke-linejoin:miter;stroke-miterlimit:4;stroke-dasharray:none;stroke-opacity:1" />
    <path
       sodipodi:nodetypes="ccccccccccc"
       inkscape:connector-curvature="0"
       id="path989-8"
       d="m 112.29107,93.800667 c 10.84155,-39.866032 54.0652,-9.724141 80.12744,-45.541221 27.32401,36.90132 67.29552,3.730719 80.57236,46.577234 40.27609,-6.6575 25.55957,47.05593 69.97478,61.2668 -27.31999,35.93353 15.90865,70.4479 -19.11734,92.03848 12.92268,33.88898 -40.8366,49.39109 -40.74333,84.79019 -40.42426,-13.20765 -56.43492,33.45824 -91.46237,10.47461 C 159.25857,368.96129 149.33426,318.23539 99.922872,333.05129 98.322398,282.09796 47.283702,287.66057 61.454973,248.14196 30.856562,230.53526 62.227266,178.60892 43.938342,157.01175 82.625141,144.08856 74.944113,92.983272 112.29107,93.800667 Z"
       style="fill:none;stroke:#060507;stroke-width:3.32900167;stroke-linecap:butt;stroke-linejoin:miter;stroke-miterlimit:4;stroke-dasharray:none;stroke-opacity:1" />
    <path
       sodipodi:nodetypes="ccccccccccc"
       inkscape:connector-curvature="0"
       id="path989"
       d="m 99.178514,74.467981 c 12.701106,-46.703952 63.338576,-11.39205 93.871076,-53.352563 32.01069,43.230725 78.83821,4.370624 94.39233,54.566274 47.18433,-7.79941 29.9436,55.127098 81.97701,71.775448 -32.00597,42.09694 18.63735,82.53129 -22.39638,107.82513 15.13921,39.70169 -47.84099,57.86277 -47.73173,99.33359 -47.35793,-15.47305 -66.11476,39.19709 -107.15021,12.27126 C 154.20198,396.82481 142.57543,337.39829 84.688897,354.75544 82.81389,295.06247 23.020901,301.57919 39.622862,255.28227 3.7761385,234.65562 40.527616,173.82277 19.10173,148.52119 64.424189,133.38139 55.42569,73.510383 99.178514,74.467981 Z"
       style="fill:none;stroke:#ed1b24;stroke-width:12.47999954;stroke-linecap:butt;stroke-linejoin:miter;stroke-miterlimit:4;stroke-dasharray:none;stroke-opacity:1" />
    <g
       id="text4819"
       style="font-style:normal;font-weight:normal;font-size:83.80744934px;line-height:1.25;font-family:sans-serif;letter-spacing:0px;word-spacing:0px;fill:#000000;fill-opacity:1;stroke:#000000;stroke-width:2.33999991;stroke-miterlimit:4;stroke-dasharray:none;stroke-opacity:1"
       transform="translate(-143.38729,-231.95962)"
       aria-label="SMP NEGERI 210">
      <path
         inkscape:connector-curvature="0"
         id="path4852"
         style="font-style:normal;font-variant:normal;font-weight:normal;font-stretch:normal;font-size:41.59999847px;font-family:'Britannic Bold';-inkscape-font-specification:'Britannic Bold, ';letter-spacing:2.26200008px;word-spacing:0.078px;stroke:#000000;stroke-width:2.33999991;stroke-miterlimit:4;stroke-dasharray:none;stroke-opacity:1"
         d="m 215.47195,425.68858 0.6943,3.73682 q -1.11743,-0.24266 -1.86899,-0.24192 -4.83437,0.005 -4.8286,5.87506 0.005,4.63125 3.3358,4.62798 2.49843,-0.002 4.28084,-5.1839 3.42299,-9.99712 10.14643,-10.00372 3.94062,-0.004 6.34025,2.79689 2.37931,2.80079 2.38388,7.45235 0.0101,10.29843 -7.97268,10.30628 -0.65,6.4e-4 -1.60479,-0.1 l -0.85694,-3.87885 q 1.76763,0.44514 3.06763,0.44386 5.15937,-0.005 5.15356,-5.916 -0.005,-4.73281 -3.72184,-4.72916 -2.76249,0.003 -4.84911,5.67196 -2.99821,8.18889 -9.59976,8.19537 -3.7375,0.004 -6.01518,-2.71596 -2.298,-2.73993 -2.30237,-7.18837 -0.009,-9.14062 8.21757,-9.1487 z" />
      <path
         inkscape:connector-curvature="0"
         id="path4854"
         style="font-style:normal;font-variant:normal;font-weight:normal;font-stretch:normal;font-size:41.59999847px;font-family:'Britannic Bold';-inkscape-font-specification:'Britannic Bold, ';letter-spacing:2.26200008px;word-spacing:0.078px;stroke:#000000;stroke-width:2.33999991;stroke-miterlimit:4;stroke-dasharray:none;stroke-opacity:1"
         d="m 216.56862,386.03186 26.60094,7.81999 -2.18845,7.44436 -18.51348,-5.44248 16.98958,10.62625 -1.26609,4.30682 -19.76567,-0.0306 18.20167,5.35082 -0.76195,2.59189 -26.60093,-7.81999 2.30302,-7.83413 17.39858,0.16048 -14.72316,-9.26131 z" />
      <path
         inkscape:connector-curvature="0"
         id="path4856"
         style="font-style:normal;font-variant:normal;font-weight:normal;font-stretch:normal;font-size:41.59999847px;font-family:'Britannic Bold';-inkscape-font-specification:'Britannic Bold, ';letter-spacing:2.26200008px;word-spacing:0.078px;stroke:#000000;stroke-width:2.33999991;stroke-miterlimit:4;stroke-dasharray:none;stroke-opacity:1"
         d="m 246.58539,387.50253 -23.16594,-15.23486 6.57387,-9.99615 q 5.59169,-8.50267 12.39722,-4.02708 6.87341,4.52024 0.6567,13.9733 l -1.52907,2.32508 9.48701,6.23904 z m -7.20561,-14.366 0.99333,-1.51046 q 2.41079,-3.66582 -2.44303,-6.85788 -4.54833,-2.99117 -6.95912,0.67465 l -0.99334,1.51045 z" />
      <path
         inkscape:connector-curvature="0"
         id="path4858"
         style="font-style:normal;font-variant:normal;font-weight:normal;font-stretch:normal;font-size:41.59999847px;font-family:'Britannic Bold';-inkscape-font-specification:'Britannic Bold, ';letter-spacing:2.26200008px;word-spacing:0.078px;stroke:#000000;stroke-width:2.33999991;stroke-miterlimit:4;stroke-dasharray:none;stroke-opacity:1"
         d="m 275.1365,320.88787 15.09443,23.2577 -5.1627,3.35063 -19.26628,-8.41818 9.55428,14.72135 -2.26613,1.47074 -15.09444,-23.25769 4.27669,-2.77561 20.91531,9.01882 -10.3173,-15.89702 z" />
      <path
         inkscape:connector-curvature="0"
         id="path4860"
         style="font-style:normal;font-variant:normal;font-weight:normal;font-stretch:normal;font-size:41.59999847px;font-family:'Britannic Bold';-inkscape-font-specification:'Britannic Bold, ';letter-spacing:2.26200008px;word-spacing:0.078px;stroke:#000000;stroke-width:2.33999991;stroke-miterlimit:4;stroke-dasharray:none;stroke-opacity:1"
         d="m 304.98348,309.31844 0.8737,2.6421 -9.43056,3.11854 2.63385,7.96487 7.9263,-2.62111 0.8737,2.6421 -7.9263,2.62111 3.45016,10.4334 11.03125,-3.64786 0.8737,2.6421 -18.66826,6.1733 -8.70512,-26.32457 z" />
      <path
         inkscape:connector-curvature="0"
         id="path4862"
         style="font-style:normal;font-variant:normal;font-weight:normal;font-stretch:normal;font-size:41.59999847px;font-family:'Britannic Bold';-inkscape-font-specification:'Britannic Bold, ';letter-spacing:2.26200008px;word-spacing:0.078px;stroke:#000000;stroke-width:2.33999991;stroke-miterlimit:4;stroke-dasharray:none;stroke-opacity:1"
         d="m 330.05582,318.64005 11.39537,-0.67967 0.89131,14.94376 -2.55484,0.15238 -0.98557,-1.85399 q -3.20412,2.5719 -6.93499,2.79442 -6.14377,0.36644 -9.76911,-3.10043 -3.60627,-3.48835 -4.00537,-10.17958 -0.38821,-6.50875 2.96127,-10.73755 3.36855,-4.25028 9.18789,-4.59737 7.66451,-0.45714 9.794,7.2704 l -3.66863,1.94845 -0.0399,-0.66913 -0.15032,-1.49683 q -0.67671,-4.86365 -4.81311,-4.61693 -3.04147,0.1814 -4.00188,2.8433 -0.9604,2.66191 -0.53833,9.73839 0.39425,6.61013 1.42791,8.92927 1.05394,2.31792 3.5885,2.16675 2.98064,-0.17778 2.7823,-3.50312 l -0.40635,-6.81289 -3.99446,0.23824 z" />
      <path
         inkscape:connector-curvature="0"
         id="path4864"
         style="font-style:normal;font-variant:normal;font-weight:normal;font-stretch:normal;font-size:41.59999847px;font-family:'Britannic Bold';-inkscape-font-specification:'Britannic Bold, ';letter-spacing:2.26200008px;word-spacing:0.078px;stroke:#000000;stroke-width:2.33999991;stroke-miterlimit:4;stroke-dasharray:none;stroke-opacity:1"
         d="m 371.79274,310.14679 -0.55802,2.72629 -9.73106,-1.99176 -1.68221,8.21867 8.17887,1.67406 -0.55802,2.72629 -8.17887,-1.67406 -2.20356,10.76586 11.38276,2.32984 -0.55802,2.72629 -19.26314,-3.9428 5.55984,-27.1634 z" />
      <path
         inkscape:connector-curvature="0"
         id="path4866"
         style="font-style:normal;font-variant:normal;font-weight:normal;font-stretch:normal;font-size:41.59999847px;font-family:'Britannic Bold';-inkscape-font-specification:'Britannic Bold, ';letter-spacing:2.26200008px;word-spacing:0.078px;stroke:#000000;stroke-width:2.33999991;stroke-miterlimit:4;stroke-dasharray:none;stroke-opacity:1"
         d="m 372.5162,339.28427 12.42031,-24.78907 10.66021,5.34119 q 4.15875,2.0837 5.76412,5.09185 1.61447,2.98998 0.14042,5.93198 -2.25659,4.5038 -8.27821,3.1907 2.23269,2.39095 2.42211,4.00807 0.20758,1.62621 -1.25799,5.27677 -1.74775,4.3498 -1.36778,6.22143 l -7.80901,-3.91263 q 0.11984,-2.09831 1.41192,-4.6771 l 0.7007,-1.4892 0.89179,-1.87057 q 2.1474,-4.28587 -1.30309,-6.01471 l -1.23492,-0.61874 -5.96903,11.91328 z m 14.18878,-10.36216 1.45284,0.72793 q 4.08611,2.0473 6.22441,-2.22042 2.13829,-4.26771 -1.94782,-6.31502 l -1.45284,-0.72793 z" />
      <path
         inkscape:connector-curvature="0"
         id="path4868"
         style="font-style:normal;font-variant:normal;font-weight:normal;font-stretch:normal;font-size:41.59999847px;font-family:'Britannic Bold';-inkscape-font-specification:'Britannic Bold, ';letter-spacing:2.26200008px;word-spacing:0.078px;stroke:#000000;stroke-width:2.33999991;stroke-miterlimit:4;stroke-dasharray:none;stroke-opacity:1"
         d="m 421.04131,336.87998 -17.42413,21.56761 -6.25698,-5.05491 17.42413,-21.56762 z" />
      <path
         inkscape:connector-curvature="0"
         id="path4870"
         style="font-style:normal;font-variant:normal;font-weight:normal;font-stretch:normal;font-size:41.59999847px;font-family:'Britannic Bold';-inkscape-font-specification:'Britannic Bold, ';letter-spacing:2.26200008px;word-spacing:0.078px;stroke:#000000;stroke-width:2.33999991;stroke-miterlimit:4;stroke-dasharray:none;stroke-opacity:1"
         d="m 434.93284,388.45367 -5.736,3.38927 -10.51915,-17.80259 3.37515,-1.9943 q 3.70496,0.76 8.10703,1.98105 9.81921,2.76248 13.03697,0.86118 4.28451,-2.53162 2.27988,-5.92426 -2.43862,-4.12712 -7.61502,-1.06851 -1.22414,0.72332 -3.09377,2.63021 l -1.3059,-4.20658 q 1.39586,-1.39102 2.39266,-1.98001 7.25744,-4.28826 12.55835,4.68299 2.24229,3.79485 1.81774,7.34879 -0.42456,3.55394 -3.34502,5.27958 -3.34017,1.97363 -10.13721,-0.54553 l -3.0301,-1.13518 -3.42674,-1.20752 q -0.32669,-0.11367 -1.46576,-0.64389 z" />
      <path
         inkscape:connector-curvature="0"
         id="path4872"
         style="font-style:normal;font-variant:normal;font-weight:normal;font-stretch:normal;font-size:41.59999847px;font-family:'Britannic Bold';-inkscape-font-specification:'Britannic Bold, ';letter-spacing:2.26200008px;word-spacing:0.078px;stroke:#000000;stroke-width:2.33999991;stroke-miterlimit:4;stroke-dasharray:none;stroke-opacity:1"
         d="m 462.80029,406.24648 -26.7987,7.11278 -1.99054,-7.49971 20.18247,-5.35673 q -2.25009,-2.61821 -3.1094,-5.14321 l 3.5339,-0.93794 q 2.15744,5.75313 6.92125,7.07368 z" />
      <path
         inkscape:connector-curvature="0"
         id="path4874"
         style="font-style:normal;font-variant:normal;font-weight:normal;font-stretch:normal;font-size:41.59999847px;font-family:'Britannic Bold';-inkscape-font-specification:'Britannic Bold, ';letter-spacing:2.26200008px;word-spacing:0.078px;stroke:#000000;stroke-width:2.33999991;stroke-miterlimit:4;stroke-dasharray:none;stroke-opacity:1"
         d="m 466.315,436.34725 q -0.13261,11.59767 -14.43168,11.43417 -14.29906,-0.16351 -14.16645,-11.76119 0.13285,-11.61799 14.43192,-11.45448 14.29906,0.16351 14.16621,11.7815 z m -2.21391,-0.0253 q 0.0362,-3.16854 -12.04892,-3.30673 -12.08515,-0.1382 -12.12138,3.03035 -0.036,3.14823 12.04915,3.28642 12.08515,0.13819 12.12115,-3.01004 z" />
    </g>
    <g
       id="text4880"
       style="font-style:normal;font-weight:normal;font-size:135.20001221px;line-height:1.25;font-family:sans-serif;letter-spacing:0px;word-spacing:0px;fill:#000000;fill-opacity:1;stroke:none;stroke-width:7.80000019"
       transform="matrix(0.68713581,0,0,0.68713581,-49.306401,-132.79756)"
       aria-label="JAKARTA">
      <path
         inkscape:connector-curvature="0"
         id="path4889"
         style="font-style:normal;font-variant:normal;font-weight:900;font-stretch:normal;font-size:41.59999847px;font-family:ARIAL;-inkscape-font-specification:'ARIAL Heavy';letter-spacing:15.60000038px;stroke-width:7.80000019"
         d="m 245.48148,601.15013 6.56706,6.4743 -11.36568,11.52853 q -3.5794,3.63069 -6.09846,4.88387 -2.50459,1.26743 -5.75507,0.65856 -3.23601,-0.59461 -6.27364,-3.58933 -3.21121,-3.16585 -4.12029,-5.77353 -0.90908,-2.60769 -0.23827,-5.22661 0.69955,-2.61913 2.95027,-5.24929 l 7.10467,5.3214 q -1.36881,1.41736 -1.80761,2.32538 -0.43881,0.90802 -0.3027,1.8694 0.10513,0.64561 0.79945,1.33012 1.09933,1.0838 2.4042,0.77289 1.33358,-0.31112 3.2445,-2.24942 z" />
      <path
         inkscape:connector-curvature="0"
         id="path4891"
         style="font-style:normal;font-variant:normal;font-weight:900;font-stretch:normal;font-size:41.59999847px;font-family:ARIAL;-inkscape-font-specification:'ARIAL Heavy';letter-spacing:15.60000038px;stroke-width:7.80000019"
         d="m 265.81921,646.62103 -9.05864,-5.27234 -3.71913,3.52297 -8.1282,-4.7308 24.65226,-20.10641 8.67242,5.04756 -5.30609,31.36633 -8.32131,-4.8432 z m 1.57124,-6.53577 2.54075,-10.90703 -8.21117,7.6067 z" />
      <path
         inkscape:connector-curvature="0"
         id="path4893"
         style="font-style:normal;font-variant:normal;font-weight:900;font-stretch:normal;font-size:41.59999847px;font-family:ARIAL;-inkscape-font-specification:'ARIAL Heavy';letter-spacing:15.60000038px;stroke-width:7.80000019"
         d="m 297.80557,634.46925 8.90717,2.30889 -2.82367,10.8931 12.16343,-8.47208 11.83691,3.06832 -13.31843,8.15171 6.3183,20.79605 -10.97175,-2.84406 -3.00234,-13.43151 -5.84979,3.62468 -1.82468,7.03922 -8.90718,-2.30889 z" />
      <path
         inkscape:connector-curvature="0"
         id="path4895"
         style="font-style:normal;font-variant:normal;font-weight:900;font-stretch:normal;font-size:41.59999847px;font-family:ARIAL;-inkscape-font-specification:'ARIAL Heavy';letter-spacing:15.60000038px;stroke-width:7.80000019"
         d="m 357.8748,667.62738 -10.47963,0.18438 -1.35549,4.94024 -9.40324,0.16544 10.66662,-29.9704 10.03283,-0.17652 11.71429,29.57663 -9.62664,0.16937 z m -2.04266,-6.40412 -3.47843,-10.64514 -3.0815,10.76056 z" />
      <path
         inkscape:connector-curvature="0"
         id="path4897"
         style="font-style:normal;font-variant:normal;font-weight:900;font-stretch:normal;font-size:41.59999847px;font-family:ARIAL;-inkscape-font-specification:'ARIAL Heavy';letter-spacing:15.60000038px;stroke-width:7.80000019"
         d="m 387.5357,669.10406 -8.30193,-28.59746 14.72788,-4.27555 q 4.0965,-1.18922 6.46566,-1.11556 2.36916,0.0737 4.25062,1.60029 1.87579,1.50711 2.66861,4.23811 0.69088,2.37987 0.18052,4.41048 -0.51603,2.0111 -1.97972,3.59932 -0.93321,1.0112 -2.77318,2.03183 1.73298,0.068 2.60764,0.38515 0.58962,0.20956 1.84057,1.09432 1.27046,0.8791 1.76379,1.41272 l 6.67882,7.05034 -9.98765,2.89944 -7.25774,-7.36875 q -1.39001,-1.43663 -2.2395,-1.73995 -1.14839,-0.38575 -2.35783,-0.0347 l -0.78029,0.22652 3.36947,11.60675 z m 3.93762,-19.58687 3.72587,-1.08163 q 0.60472,-0.17556 2.22759,-1.0697 0.82686,-0.4304 1.16353,-1.31073 0.35617,-0.88599 0.0844,-1.82233 -0.40207,-1.38501 -1.49509,-1.87145 -1.09301,-0.48643 -3.51189,0.21578 l -3.88192,1.12693 z" />
      <path
         inkscape:connector-curvature="0"
         id="path4899"
         style="font-style:normal;font-variant:normal;font-weight:900;font-stretch:normal;font-size:41.59999847px;font-family:ARIAL;-inkscape-font-specification:'ARIAL Heavy';letter-spacing:15.60000038px;stroke-width:7.80000019"
         d="m 415.17413,628.43538 24.06126,-14.26164 3.74924,6.32547 -8.07284,4.78495 11.43417,19.29094 -7.91557,4.69174 -11.43417,-19.29094 -8.07284,4.78495 z" />
      <path
         inkscape:connector-curvature="0"
         id="path4901"
         style="font-style:normal;font-variant:normal;font-weight:900;font-stretch:normal;font-size:41.59999847px;font-family:ARIAL;-inkscape-font-specification:'ARIAL Heavy';letter-spacing:15.60000038px;stroke-width:7.80000019"
         d="m 477.19114,612.6806 -7.4143,7.40842 2.45431,4.49663 -6.65276,6.64748 -13.13074,-28.9756 7.09819,-7.09256 28.96516,13.15374 -6.81081,6.80541 z m -5.91633,-3.19096 -9.8941,-5.24646 5.25298,9.8839 z" />
    </g>
    <g
       transform="translate(-325.8189,143.36093)"
       id="g5598">
      <path
         sodipodi:nodetypes="cscsscsssccsscssscccccccsssssssccscsssscccsccsscsccsscccssssccccscccccscsscccccccsccccsccccccssccccccccccccccsccssscscsccscssssscssccccccccsssccccccccccscccccscsscccsccssccccccccccccsccccccssccccscsccssscccssccsscsscssscccccsscscscccccssssssscsssssccssscssscsscscccc"
         style="fill:#ffffff;fill-opacity:1;stroke-width:0.18347"
         inkscape:connector-curvature="0"
         d="m 519.14492,130.78277 c 0.18347,-0.3119 0.33025,-0.64214 0.33025,-0.73388 0,-0.2752 1.79801,-3.9813 1.99982,-4.09138 0.0917,-0.055 0.44033,-0.66049 0.77058,-1.33933 0.33024,-0.67884 0.77057,-1.48611 0.99073,-1.79801 0.22017,-0.31189 0.67884,-1.02743 0.99074,-1.59618 0.33025,-0.56876 0.82562,-1.21091 1.10082,-1.41272 0.27521,-0.20182 0.6605,-0.64215 0.84396,-0.99074 0.18348,-0.34859 0.53207,-0.75223 0.75223,-0.88066 0.22017,-0.12843 0.60545,-0.53206 0.84396,-0.88065 0.40364,-0.60545 2.31173,-2.25668 2.89883,-2.53189 0.14678,-0.0734 0.38529,-0.2752 0.51372,-0.45867 0.12842,-0.18347 0.34859,-0.33025 0.47702,-0.33025 0.12843,0 0.67884,-0.23851 1.22925,-0.55041 0.55041,-0.29355 1.11916,-0.55041 1.26594,-0.55041 0.14678,0 0.51372,-0.12843 0.80727,-0.2752 0.29355,-0.14678 0.71553,-0.27521 0.95404,-0.27521 0.23851,0 0.66049,-0.0917 0.9357,-0.22016 0.2752,-0.11009 1.10082,-0.23851 1.798,-0.25686 0.71554,-0.0367 1.66958,-0.11008 2.1466,-0.16513 0.49537,-0.0734 1.11917,-0.0367 1.44942,0.0917 0.42198,0.14678 0.75222,0.14678 1.2109,0 0.51371,-0.16512 0.67884,-0.14678 0.97239,0.11008 0.20182,0.18347 0.75223,0.34859 1.32098,0.40364 0.53207,0.0367 1.30264,0.20181 1.70627,0.34859 0.40364,0.14677 1.15587,0.33024 1.65123,0.42198 0.49537,0.0917 1.37603,0.33025 1.92644,0.55041 0.55041,0.22016 1.13751,0.38529 1.30264,0.38529 0.16512,0 0.53206,0.12843 0.82561,0.2752 0.29355,0.14678 0.78892,0.27521 1.10082,0.27521 0.3119,0 0.6238,0.11008 0.67884,0.25686 0.055,0.14677 0.33025,0.29355 0.6238,0.34859 0.55041,0.0917 1.59619,0.45867 2.12825,0.71553 0.18347,0.0917 0.47702,0.16512 0.69719,0.16512 0.22016,0 0.51371,0.0734 0.69718,0.16513 0.80727,0.42198 1.68793,0.75222 2.05487,0.75222 0.5871,0 2.77039,0.55041 3.3575,0.84397 0.29355,0.14677 0.66049,0.25685 0.84396,0.25685 0.18347,0 0.56876,0.12843 0.88066,0.27521 0.31189,0.14678 0.95404,0.33025 1.44941,0.38529 0.49537,0.0734 1.06412,0.20181 1.26594,0.3119 1.35768,0.69718 12.18241,1.28429 13.37497,0.71553 0.29355,-0.14678 1.15586,-0.29355 1.92643,-0.33025 0.77057,-0.0367 1.76131,-0.20181 2.21999,-0.33024 0.45867,-0.14678 1.06412,-0.3119 1.37602,-0.36694 0.29355,-0.0734 0.899,-0.27521 1.32099,-0.47703 0.42198,-0.20181 0.84396,-0.34859 0.91735,-0.34859 0.38528,0 3.17403,-1.22925 3.81617,-1.68792 0.40364,-0.29355 0.82562,-0.51372 0.9357,-0.51372 0.11008,0 0.899,-0.38529 1.76131,-0.84396 0.84396,-0.45868 1.79801,-0.97239 2.09156,-1.11917 0.9357,-0.47702 1.37602,-0.97239 1.37602,-1.59619 0,-0.3119 -0.0734,-0.66049 -0.16512,-0.75222 -0.0917,-0.0917 -0.34859,-0.88066 -0.55041,-1.72462 -0.44033,-1.77966 -1.2476,-4.6051 -1.54115,-5.39402 -0.16512,-0.47702 -2.01817,-2.86213 -2.56858,-3.32081 -0.12843,-0.0917 -0.49537,-0.55041 -0.84396,-1.00908 -0.34859,-0.45868 -0.97239,-1.2109 -1.37602,-1.66958 -0.40364,-0.45867 -1.15587,-1.394369 -1.66958,-2.073209 -0.51372,-0.67884 -1.61454,-1.96313 -2.47685,-2.86213 -0.86231,-0.899 -2.25668,-2.36676 -3.11899,-3.28411 -1.74296,-1.8714 -1.8347,-1.90809 -3.55931,-1.30264 -1.92644,0.67884 -2.71536,0.78892 -6.25633,0.86231 -4.07304,0.0917 -5.96278,-0.14678 -9.35697,-1.17421 -0.80727,-0.23851 -1.79801,-0.53206 -2.20164,-0.64214 -0.40364,-0.11008 -0.80727,-0.25686 -0.88066,-0.33025 -0.18347,-0.16512 1.90809,-1.5228 11.70539,-7.632348 4.23816,-2.64197 8.32954,-5.21055 9.08176,-5.68757 l 1.37603,-0.88066 1.00908,-2.84378 c 0.55041,-1.5595 1.26595,-3.24742 1.5595,-3.72444 0.88065,-1.43107 1.33933,-2.38511 1.35768,-2.82544 0,-0.22016 0.0917,-0.45868 0.20181,-0.51372 0.11009,-0.055 0.18347,-0.34859 0.18347,-0.62379 0,-0.75223 0.38529,-1.74297 1.41272,-3.59602 4.64179,-8.36623 7.19203,-13.65016 8.03599,-16.64073 0.2752,-0.97239 0.2752,-1.1742 0,-2.29337 -0.29355,-1.26594 -0.9357,-7.00855 -1.15586,-10.18259 -0.055,-0.99073 0,-4.82526 0.12843,-8.53135 l 0.23851,-6.7517 -0.40364,-0.91735 c -0.77057,-1.74296 -2.25668,-2.82543 -3.88956,-2.82543 h -0.84396 l -0.23851,-0.95405 c -0.36694,-1.48611 -1.19256,-3.1373401 -1.74297,-3.5960101 -0.73388,-0.5871 -1.798,-0.53206 -3.17403,0.14678 -2.31172,1.1558601 -3.70609,3.6510501 -3.70609,6.6416101 0,0.55041 -0.18347,1.39437 -0.44033,2.05486 -0.23851,0.60545 -0.49537,1.48611 -0.55041,1.94479 -0.0917,0.67883 -0.22017,0.899 -0.67884,1.15586 -0.6238,0.36694 -1.5228,1.54114 -1.92644,2.47684 -0.14677,0.34859 -0.33024,1.59619 -0.40363,2.78875 l -0.14678,2.16494 -0.84396,1.2476 c -0.84396,1.24759 -2.33007,4.20146 -2.33007,4.66014 0,0.12842 -0.22016,0.91735 -0.49537,1.72461 -0.45867,1.37603 -0.49536,1.68793 -0.51371,5.10047 l -0.0183,3.63271 -1.17421,0.97239 c -1.22925,1.02743 -3.6327,3.46758 -4.80691,4.8803 -0.56876,0.67884 -0.71553,0.77057 -0.86231,0.53206 -0.51372,-0.86231 -3.22907,-4.07303 -4.18312,-4.93534 -1.76131,-1.61454 -3.76113,-3.13734 -4.77022,-3.65105 -0.51371,-0.25686 -1.04577,-0.56876 -1.1742,-0.67884 -0.3119,-0.25686 -2.75205,-1.13752 -3.6694,-1.33933 -0.36694,-0.0734 -0.75223,-0.20182 -0.86231,-0.25686 -0.38529,-0.23851 -1.98148,-0.53207 -3.52263,-0.64215 -1.76131,-0.12843 -1.72461,-0.11008 -2.27502,-2.03651 -0.16513,-0.55041 -0.69719,-1.63289 -1.19256,-2.40346 -0.86231,-1.30264 -2.36676,-2.91717 -2.75205,-2.91717 -0.0917,0 -0.20182,-0.16513 -0.25686,-0.3486 -0.0734,-0.25686 0.0917,-0.47702 0.49537,-0.77057 0.899,-0.64215 3.57767,-4.01799 3.57767,-4.51336 0,-0.0917 0.33024,-0.67884 0.73388,-1.30264 0.40363,-0.6238 0.82561,-1.5228 0.93569,-1.99982 0.11009,-0.47703 0.3119,-1.02744 0.44033,-1.2476 0.66049,-1.06413 1.19256,-4.40328 1.19256,-7.54062 0,-0.99073 -0.0917,-3.46758 -0.20182,-5.4857501 -0.16512,-2.82544 -0.27521,-3.72444 -0.47702,-3.88956 -0.40364,-0.33025 -0.67884,-0.14678 -1.68793,1.22925 -1.24759,1.66957 -3.68774,3.9262501 -4.91699,4.5317001 -0.53207,0.25686 -1.02743,0.42199 -1.10082,0.36694 -0.0734,-0.055 -0.0183,-0.91735 0.0917,-1.9080801 0.44033,-3.77949 -0.44033,-9.99912 -1.77966,-12.67778 -0.16512,-0.33025 -0.53206,-0.80727 -0.80726,-1.06413 -0.27521,-0.25685 -0.49537,-0.53206 -0.49537,-0.62379 0,-0.25686 -0.6605,-0.56876 -0.95405,-0.45868 -0.14677,0.055 -0.49537,0.64215 -0.78892,1.30264 -0.80727,1.81635 -4.01799,4.97203 -4.66014,4.5684 -0.0917,-0.055 -0.22016,-0.33025 -0.2752,-0.60545 -0.055,-0.27521 -0.36694,-0.99074 -0.64215,-1.61454 -0.2752,-0.62379 -0.66049,-1.39437 -0.80726,-1.74296 -0.16513,-0.34859 -0.44033,-0.84396 -0.60546,-1.10082 -0.18347,-0.25686 -0.49536,-0.73388 -0.69718,-1.08247 -0.49537,-0.82562 -1.59619,-2.4768499 -1.72462,-2.5869299 -0.055,-0.055 -0.34859,-0.42198 -0.64214,-0.82562 -0.67884,-0.93569 -2.60528,-3.10064 -3.28412,-3.74278 -1.99982,-1.8347 -2.75205,-2.47685 -3.99964,-3.3942 -1.8347,-1.33933 -2.10991,-1.44941 -2.95387,-1.06413 -0.75223,0.3486 -4.34824,3.11899 -4.34824,3.35751 0,0.0917 -0.3119,0.34859 -0.67884,0.60545 -0.36694,0.25685 -1.06412,0.899 -1.50445,1.46776 -0.44033,0.56875 -0.95405,1.06412 -1.11917,1.11916 -0.36694,0.12843 -4.07303,5.3389799 -4.51336,6.3297199 -0.0734,0.14677 -0.25686,0.47702 -0.40364,0.71553 -0.16512,0.23851 -0.62379,1.22925 -1.02743,2.20164 -1.06412,2.49519 -1.15586,2.49519 -3.72444,-0.45867 -0.44033,-0.49537 -1.00908,-1.30264 -1.26594,-1.77966 -0.60545,-1.10082 -1.2109,-1.19256 -1.88974,-0.29355 -1.57784,2.14659 -2.91718,4.38493 -3.02726,5.11881 -0.0734,0.44033 -0.22016,0.97239002 -0.33024,1.17421002 -0.16513,0.29355 -0.38529,3.92624998 -0.33025,5.04541998 0.11008,2.03652 0.11008,4.0363401 0,4.0363401 -0.29355,0 -1.19255,-0.45867 -2.09156,-1.0824701 -1.26594,-0.86231 -1.50445,-1.08247 -2.31172,-2.12825 -2.12825,-2.82544 -3.15568,-3.61436 -3.37585,-2.60528 -0.34859,1.57784 -0.5871,7.4121901 -0.44033,10.2376301 0.18347,3.33915 0.38529,4.62344 0.95405,6.1279 0.25686,0.69718 0.47702,1.39437 0.47702,1.55949 0,0.33025 0.99074,2.34842 1.37603,2.7704 0.12842,0.14677 0.29355,0.49537 0.36694,0.77057 0.0734,0.27521 0.38528,0.77058 0.71553,1.10082 0.33024,0.33025 0.78892,0.89901 1.02743,1.2476 0.47702,0.67884 1.81635,2.01817 2.67866,2.67866 l 0.51372,0.38529 -0.95405,0.95404 c -1.11916,1.11917 -2.31172,3.0823 -2.82543,4.66014 -0.20182,0.6238 -0.44033,1.2109 -0.53207,1.32098 -0.0917,0.0917 -0.899,0.22017 -1.77966,0.29356 -0.88065,0.0734 -1.85304,0.20181 -2.14659,0.31189 -0.29356,0.11009 -1.26595,0.36694 -2.1466,0.58711 -1.43107,0.34859 -3.9813,1.48611 -5.57749,2.49519 -2.27503,1.44941 -7.04525,6.03616 -7.44888,7.15533 -0.11009,0.3119 -0.3486,0.66049 -0.53207,0.77057 -0.2752,0.18347 -0.53206,-0.0183 -1.74296,-1.39437 -1.37603,-1.55949 -3.0823,-3.21072 -4.5684,-4.40328 l -0.73388,-0.5871 0.055,-3.26577 c 0.0734,-4.53171 -0.27521,-6.20128 -1.90809,-9.30193 -1.13752,-2.16494 -1.41272,-2.66031 -1.79801,-3.24742 -0.23851,-0.36694 -0.36694,-1.08247 -0.47702,-2.697 -0.12843,-1.88975 -0.22016,-2.33007 -0.66049,-3.15569 -0.45868,-0.82561 -1.74297,-2.18329 -2.09156,-2.18329 -0.0734,0 -0.18347,-0.44033 -0.25686,-0.95405 -0.0734,-0.53206 -0.33024,-1.41271 -0.56875,-1.96312 -0.3119,-0.71554 -0.45868,-1.46776 -0.51372,-2.56858 -0.11008,-2.03652 -0.6238,-3.37585 -1.79801,-4.67849 -1.65123,-1.8163501 -3.90791,-2.4585001 -5.08212,-1.4677601 -0.53206,0.45868 -1.46776,2.4951901 -1.76131,3.8895601 -0.12843,0.56876 -0.16512,0.60546 -0.97239,0.60546 -1.70627,0 -3.39419,1.33933 -3.99964,3.15568 -0.27521,0.82561 -0.27521,1.44941 -0.0734,6.80674 0.2752,7.08194 0.16512,10.18258 -0.49537,15.2647 -0.71553,5.41237 -0.69719,6.10955 0.29355,8.62309 0.899,2.25668 3.44924,7.35715 6.1279,12.2191 0.97239,1.77966 1.77966,3.33916 1.77966,3.48593 0,0.44033 0.97239,3.3575 1.2109,3.65106 0.12843,0.14677 0.40363,0.73388 0.6238,1.28429 0.22016,0.55041 0.49537,1.13751 0.64214,1.28429 0.42198,0.47702 0.9357,1.68792 1.76131,4.03634 0.44033,1.26594 0.86231,2.38511 0.95405,2.51353 0.0917,0.12843 1.96313,1.30264 4.14642,2.64197 2.18329,1.33933 4.51336,2.7704 5.17385,3.19238 0.6605,0.42198 2.21999,1.41272 3.48593,2.201638 2.07322,1.28429 8.23781,5.21055 8.42128,5.35732 0.20181,0.16513 -0.40364,0.49537 -1.11917,0.60546 -0.44033,0.0734 -1.63288,0.38528 -2.66031,0.69718 -1.02744,0.3119 -2.03652,0.56876 -2.23834,0.56876 -0.20182,0 -0.40363,0.0734 -0.45867,0.16512 -0.0917,0.16512 -0.56876,0.25686 -3.13734,0.60545 -2.12825,0.29355 -6.715,0.40364 -6.93517,0.18347 -0.11008,-0.11008 -0.53206,-0.20181 -0.93569,-0.20181 -0.75223,0 -1.02744,-0.055 -3.0823,-0.71554 -0.67884,-0.22016 -1.37602,-0.38528 -1.55949,-0.38528 -0.18347,0 -0.6605,0.38528 -1.06413,0.84396 -0.40363,0.45867 -1.77966,1.92643 -3.0456,3.24741 -1.28429,1.32099 -2.82544,3.02726 -3.43089,3.77949 -0.60545,0.75222 -1.30264,1.57784 -1.54115,1.834699 -0.23851,0.25685 -0.77057,0.88065 -1.15586,1.37602 -0.38529,0.49537 -1.32098,1.57784 -2.05486,2.38511 -0.99074,1.10082 -1.39438,1.68792 -1.59619,2.38511 -0.3119,1.08247 -0.6605,3.59601 -0.77058,5.68757 -0.0734,1.41272 -0.23851,2.4218 -0.51371,3.0456 -0.16513,0.40364 0.66049,1.35768 1.57784,1.8347 0.40363,0.20182 0.88065,0.53207 1.08247,0.73388 0.20182,0.20182 0.44033,0.36694 0.55041,0.36694 0.16512,0 1.57784,0.64215 4.2932,1.94478 0.49537,0.23852 1.08247,0.44033 1.30264,0.44033 0.22016,0 0.45867,0.0734 0.56875,0.16513 0.3119,0.31189 4.12808,1.4861 4.82526,1.4861 0.38529,0 0.77058,0.0734 0.86231,0.16513 0.29356,0.2752 2.16495,0.42198 5.87104,0.44032 3.22908,0.0184 4.03634,-0.0367 6.97186,-0.5871 0.51372,-0.0917 1.37603,-0.25686 1.92644,-0.34859 0.55041,-0.11009 1.2109,-0.27521 1.46776,-0.36694 0.899,-0.36694 2.95387,-0.95405 3.30246,-0.95405 0.20182,0 0.40363,-0.0734 0.45867,-0.16512 0.055,-0.0917 0.33025,-0.20182 0.60545,-0.25686 0.27521,-0.055 1.17421,-0.34859 1.98148,-0.66049 0.80727,-0.3119 1.59619,-0.56876 1.76131,-0.56876 0.16513,0 0.6238,-0.16512 1.04578,-0.36694 0.42198,-0.20181 0.86231,-0.36694 0.97239,-0.36694 0.23851,0 3.3575,-1.19255 3.88957,-1.46776 0.18347,-0.0917 0.51371,-0.18347 0.77057,-0.18347 0.25686,0 0.49537,-0.0734 0.55041,-0.16512 0.055,-0.0917 0.6238,-0.29355 1.2476,-0.47702 0.62379,-0.18347 1.798,-0.51372 2.56858,-0.75223 0.77057,-0.23851 1.798,-0.47702 2.25668,-0.51372 0.45867,-0.0367 0.93569,-0.16512 1.06412,-0.25685 0.67884,-0.55041 8.20111,-0.56876 8.8616,-0.0367 0.11009,0.0917 0.60546,0.23851 1.10082,0.3486 0.49537,0.11008 1.13752,0.36694 1.41272,0.56875 0.27521,0.20182 0.56876,0.36694 0.64215,0.36694 0.36694,0 2.7704,1.74297 3.61436,2.62362 0.51371,0.53207 1.26594,1.19256 1.66957,1.46776 0.40364,0.27521 0.9357,0.82562 1.15587,1.22925 0.22016,0.40364 0.47702,0.73388 0.55041,0.73388 0.18347,0 1.54114,1.94478 2.03651,2.93552 0.22017,0.45868 0.56876,0.97239 0.75223,1.15586 0.18347,0.18347 0.34859,0.47703 0.34859,0.67884 0,0.18347 0.0917,0.40364 0.18347,0.45868 0.11008,0.055 0.44033,0.5871 0.73388,1.15586 0.29355,0.56876 0.6238,1.17421 0.71554,1.32098 0.20181,0.3119 1.10082,2.29338 1.55949,3.3942 0.60545,1.46776 1.26594,1.76131 1.79801,0.80727 z"
         id="path2" />
      <g
         id="g5111"
         transform="translate(-7.2282,-9.0784971)">
        <path
           id="path3-7"
           d="m 505.77811,26.869111 c -0.0734,-0.348593 -0.25686,-1.119166 -0.40363,-1.687924 -0.14678,-0.568757 -0.22017,-1.10082 -0.16512,-1.137514 1.76495,-0.660898 3.67648,3.496234 7.90755,1.614536 -2.52383,-3.6414 -4.14739,-7.344334 -3.6694,-11.79712 0.0917,-0.678841 0.22017,-1.027432 0.42198,-1.045779 0.14678,-0.01833 0.77058,0.550407 1.37603,1.247596 2.07321,2.440151 3.70609,3.889564 5.55914,4.95369 0.77057,0.440326 1.02743,0.513716 1.22925,0.34859 0.20181,-0.165126 0.22016,-0.330244 0.0734,-0.678842 -0.014,-9.4303948 4.62287,-18.9006382 7.9356,-18.89939396 3.38016,0.00127 7.4453,8.47518006 7.73273,18.34898896 0,1.541149 0.29356,1.669577 1.66958,0.752225 2.18189,-1.406605 3.92648,-3.404309 5.77931,-5.155505 0.42198,-0.697187 0.97239,-0.788921 1.26594,-0.220163 0.7428,5.201002 -1.46657,7.582049 -3.33915,11.301753 -0.69719,0.880656 -0.45868,1.320984 0.73388,1.357678 2.57414,0.208217 5.32405,-2.360723 6.69665,-2.054866 -3.62131,24.644333 -37.89676,20.581157 -40.80374,2.75205 z"
           inkscape:connector-curvature="0"
           style="fill:#ed1b24;fill-opacity:1;stroke-width:0.18346997"
           sodipodi:nodetypes="csccccccscscccccccc" />
        <path
           sodipodi:nodetypes="ccccccc"
           inkscape:connector-curvature="0"
           id="path4923"
           d="m 461.13483,99.832214 c 19.81379,7.879456 46.70962,-22.083852 64.37193,3.823876 21.67794,-28.186701 42.71505,5.32643 65.50635,-3.733418 l 11.03086,14.133288 c -39.58342,20.86989 -48.64008,-25.609642 -76.70175,9.1831 -23.34371,-35.165548 -44.72401,12.70217 -75.89967,-9.514 z"
           style="fill:none;stroke:#020000;stroke-width:3.9000001;stroke-linecap:butt;stroke-linejoin:miter;stroke-opacity:1" />
        <path
           sodipodi:nodetypes="ccccc"
           inkscape:connector-curvature="0"
           id="path4927"
           d="m 448.62295,114.12818 -0.70186,7.16792 c 34.70637,21.18435 55.89795,-28.509952 77.63508,15.08626 19.65578,-41.649863 44.81371,5.01246 79.18758,-15.48236 l -1.63337,-5.74717"
           style="fill:none;stroke:#020000;stroke-width:3.9000001;stroke-linecap:butt;stroke-linejoin:miter;stroke-opacity:1" />
        <g
           style="stroke:#020000;stroke-opacity:1"
           id="g4999">
          <g
             style="stroke:#020000;stroke-opacity:1"
             id="g4950">
            <g
               style="stroke:#020000;stroke-opacity:1"
               id="g4939">
              <path
                 style="fill:none;stroke:#020000;stroke-width:0.77999997;stroke-linecap:butt;stroke-linejoin:miter;stroke-opacity:1"
                 d="M 525.15937,100.66875 C 522.58971,81.480796 507.51682,67.142875 487.0125,68.25 477.53258,63.226861 471.24822,45.377125 458.06719,48.689062 c -1.20942,0.303887 -1.76034,3.460737 -0.442,4.485721 2.8428,2.210211 4.96523,8.081706 9.42861,12.780406 7.72474,8.132002 11.40004,13.225424 14.71808,19.479186"
                 id="path4929"
                 inkscape:connector-curvature="0"
                 sodipodi:nodetypes="ccsssc" />
              <path
                 style="fill:none;stroke:#020000;stroke-width:0.6190145;stroke-linecap:butt;stroke-linejoin:miter;stroke-opacity:1"
                 d="m 460.39859,48.956886 c 4.61544,-0.653694 10.26697,5.332187 9.75222,5.865076 0.52293,2.279625 -3.36708,5.170205 -6.58431,5.197209 -0.0851,0.125268 -6.68531,-5.79296 -5.80871,-9.308859 0.21312,-0.854748 1.22494,-1.552895 2.6408,-1.753426 z"
                 id="path4935"
                 inkscape:connector-curvature="0"
                 sodipodi:nodetypes="sccss" />
            </g>
            <path
               sodipodi:nodetypes="cccccc"
               inkscape:connector-curvature="0"
               id="path4941"
               d="m 483.50485,95.81722 c -6.41328,-5.084321 -12.98531,-10.411198 -21.33888,-14.363688 -3.48196,-10.864414 -8.90543,-20.084483 -13.83332,-30.367083 2.57222,-14.646763 1.14388,-26.563814 1.15601,-26.551682 1.3751,-5.878969 5.65953,-3.359246 6.91341,-0.449268 3.57567,5.121328 1.80797,14.914243 4.30893,22.061732"
               style="fill:none;stroke:#020000;stroke-width:0.77999997;stroke-linecap:butt;stroke-linejoin:miter;stroke-opacity:1" />
            <path
               sodipodi:nodetypes="ccc"
               inkscape:connector-curvature="0"
               id="path4943"
               d="m 454.22812,21.389062 c 1.3074,-6.988713 2.8211,-6.940387 6.3375,-2.742187 2.19388,11.529821 -2.64636,0.223369 2.4375,28.457812"
               style="fill:none;stroke:#020000;stroke-width:0.77999997;stroke-linecap:butt;stroke-linejoin:miter;stroke-opacity:1" />
          </g>
          <g
             style="stroke:#020000;stroke-opacity:1"
             id="g4987">
            <path
               sodipodi:nodetypes="cssc"
               inkscape:connector-curvature="0"
               id="path4952"
               d="m 460.99219,25.898437 c 0,0 -0.10252,-0.990219 0.97499,-0.73125 0.58567,0.140759 0.5316,2.676421 0.58738,6.771502 0.057,4.187119 1.7504,4.474222 1.85012,13.886311"
               style="fill:none;stroke:#020000;stroke-width:0.77999997;stroke-linecap:butt;stroke-linejoin:miter;stroke-opacity:1" />
            <path
               sodipodi:nodetypes="cssc"
               inkscape:connector-curvature="0"
               id="path4952-2"
               d="m 463.01454,28.74944 c 0,0 -0.60693,-0.578088 0.50101,-0.601982 0.98095,-0.02116 2.74108,1.38905 2.82802,8.021092 0.0556,4.242571 1.01788,6.859086 1.03143,12.593632"
               style="fill:none;stroke:#020000;stroke-width:0.77999991;stroke-linecap:butt;stroke-linejoin:miter;stroke-opacity:1" />
            <path
               sodipodi:nodetypes="csc"
               inkscape:connector-curvature="0"
               id="path4952-2-5"
               d="m 466.35326,37.671839 c 0.98095,-0.01405 2.0636,0.886335 2.69876,5.757283 0.26446,2.028098 0.81089,3.325732 -0.21817,7.199364"
               style="fill:none;stroke:#020000;stroke-width:1.95000005;stroke-linecap:butt;stroke-linejoin:miter;stroke-opacity:1" />
          </g>
        </g>
        <g
           style="stroke:#020000;stroke-opacity:1"
           transform="matrix(-1,0,0,1,1053.9098,0)"
           id="g5021">
          <g
             style="stroke:#020000;stroke-opacity:1"
             id="g5011">
            <g
               style="stroke:#020000;stroke-opacity:1"
               id="g5005">
              <path
                 sodipodi:nodetypes="ccsssc"
                 inkscape:connector-curvature="0"
                 id="path5001"
                 d="M 525.15937,100.66875 C 522.58971,81.480796 507.51682,67.142875 487.0125,68.25 477.53258,63.226861 471.24822,45.377125 458.06719,48.689062 c -1.20942,0.303887 -1.76034,3.460737 -0.442,4.485721 2.8428,2.210211 4.96523,8.081706 9.42861,12.780406 7.72474,8.132002 11.40004,13.225424 14.71808,19.479186"
                 style="fill:none;stroke:#020000;stroke-width:0.77999997;stroke-linecap:butt;stroke-linejoin:miter;stroke-opacity:1" />
              <path
                 sodipodi:nodetypes="sccss"
                 inkscape:connector-curvature="0"
                 id="path5003"
                 d="m 460.39859,48.956886 c 4.61544,-0.653694 10.26697,5.332187 9.75222,5.865076 0.52293,2.279625 -3.36708,5.170205 -6.58431,5.197209 -0.0851,0.125268 -6.68531,-5.79296 -5.80871,-9.308859 0.21312,-0.854748 1.22494,-1.552895 2.6408,-1.753426 z"
                 style="fill:none;stroke:#020000;stroke-width:0.6190145;stroke-linecap:butt;stroke-linejoin:miter;stroke-opacity:1" />
            </g>
            <path
               style="fill:none;stroke:#020000;stroke-width:0.77999997;stroke-linecap:butt;stroke-linejoin:miter;stroke-opacity:1"
               d="m 483.50485,95.81722 c -6.41328,-5.084321 -12.98531,-10.411198 -21.33888,-14.363688 -3.48196,-10.864414 -8.90543,-20.084483 -13.83332,-30.367083 2.57222,-14.646763 1.14388,-26.563814 1.15601,-26.551682 1.3751,-5.878969 5.65953,-3.359246 6.91341,-0.449268 3.57567,5.121328 1.80797,14.914243 4.30893,22.061732"
               id="path5007"
               inkscape:connector-curvature="0"
               sodipodi:nodetypes="cccccc" />
            <path
               style="fill:none;stroke:#020000;stroke-width:0.77999997;stroke-linecap:butt;stroke-linejoin:miter;stroke-opacity:1"
               d="m 454.22812,21.389062 c 1.3074,-6.988713 2.8211,-6.940387 6.3375,-2.742187 2.19388,11.529821 -2.64636,0.223369 2.4375,28.457812"
               id="path5009"
               inkscape:connector-curvature="0"
               sodipodi:nodetypes="ccc" />
          </g>
          <g
             style="stroke:#020000;stroke-opacity:1"
             id="g5019">
            <path
               style="fill:none;stroke:#020000;stroke-width:0.77999997;stroke-linecap:butt;stroke-linejoin:miter;stroke-opacity:1"
               d="m 460.99219,25.898437 c 0,0 -0.10252,-0.990219 0.97499,-0.73125 0.58567,0.140759 0.5316,2.676421 0.58738,6.771502 0.057,4.187119 1.7504,4.474222 1.85012,13.886311"
               id="path5013"
               inkscape:connector-curvature="0"
               sodipodi:nodetypes="cssc" />
            <path
               style="fill:none;stroke:#020000;stroke-width:0.77999991;stroke-linecap:butt;stroke-linejoin:miter;stroke-opacity:1"
               d="m 463.01454,28.74944 c 0,0 -0.60693,-0.578088 0.50101,-0.601982 0.98095,-0.02116 2.74108,1.38905 2.82802,8.021092 0.0556,4.242571 1.01788,6.859086 1.03143,12.593632"
               id="path5015"
               inkscape:connector-curvature="0"
               sodipodi:nodetypes="cssc" />
            <path
               style="fill:none;stroke:#020000;stroke-width:1.95000005;stroke-linecap:butt;stroke-linejoin:miter;stroke-opacity:1"
               d="m 466.35326,37.671839 c 0.98095,-0.01405 2.0636,0.886335 2.69876,5.757283 0.26446,2.028098 0.81089,3.325732 -0.21817,7.199364"
               id="path5017"
               inkscape:connector-curvature="0"
               sodipodi:nodetypes="csc" />
          </g>
        </g>
        <path
           sodipodi:nodetypes="ccccc"
           inkscape:connector-curvature="0"
           id="rect5023"
           d="m 513.09373,51.431251 24.98438,-0.304687 c 5.35588,0.565035 7.10402,6.965738 1.52344,9.079686 l -27.48282,-0.06094 c -4.43082,-0.485589 -5.26969,-8.180169 0.975,-8.714061 z"
           style="opacity:1;fill:none;fill-opacity:1;stroke:#020000;stroke-width:1.95000005;stroke-miterlimit:4;stroke-dasharray:none;stroke-opacity:1" />
        <path
           sodipodi:nodetypes="ccccc"
           inkscape:connector-curvature="0"
           id="rect5023-4"
           d="m 514.70655,60.839642 21.32659,-0.278855 c 4.57176,0.51713 6.06397,6.375179 1.30041,8.309906 l -23.45925,-0.05576 c -3.78213,-0.444421 -4.49819,-7.48665 0.83225,-7.975279 z"
           style="opacity:1;fill:none;fill-opacity:1;stroke:#020000;stroke-width:1.72354877;stroke-miterlimit:4;stroke-dasharray:none;stroke-opacity:1" />
        <path
           sodipodi:nodetypes="ccccc"
           inkscape:connector-curvature="0"
           id="rect5023-4-7"
           d="m 514.96425,69.696282 21.91942,0.07112 c 2.01077,0.217282 2.15426,4.909963 -0.35931,4.870077 l -20.14431,-0.03452 c -3.80555,0.36321 -2.93289,-4.379762 -1.4158,-4.90668 z"
           style="opacity:1;fill:none;fill-opacity:1;stroke:#020000;stroke-width:1.23167408;stroke-miterlimit:4;stroke-dasharray:none;stroke-opacity:1" />
        <path
           sodipodi:nodetypes="ccccc"
           inkscape:connector-curvature="0"
           id="rect5058"
           d="m 516.10578,74.755303 h 2.74652 v 8.850947 l -2.74652,-3.4125 z"
           style="opacity:1;fill:#000000;fill-opacity:1;stroke:#020000;stroke-width:0.77999997;stroke-miterlimit:4;stroke-dasharray:none;stroke-opacity:1" />
        <path
           style="opacity:1;fill:#000000;fill-opacity:1;stroke:#020000;stroke-width:0.84901685;stroke-miterlimit:4;stroke-dasharray:none;stroke-opacity:1"
           d="m 536.01347,75.194668 h -2.63918 v 10.913078 l 2.63918,-4.207559 z"
           id="path5070"
           inkscape:connector-curvature="0"
           sodipodi:nodetypes="ccccc" />
        <path
           sodipodi:nodetypes="ccccccccccccc"
           inkscape:connector-curvature="0"
           id="path5072"
           d="m 515.85667,51.084655 -0.16368,-4.937424 C 492.09114,34.872476 494.70993,18.452419 495.4071,15.166536 c 0,0 5.16213,5.417353 9.42738,5.98889 -1.86858,-6.15169 -1.90518,-12.5685126 1.58259,-16.0465499 l 5.65462,4.7701394 c 2.65562,-7.894881 7.58193,-14.0867487 14.13509,-19.0584705 7.27504,4.964848 11.98276,11.1011155 14.5494,19.1507745 3.16031,-1.7324868 5.55823,-3.2255074 6.5687,-4.8624434 2.90945,5.5623369 1.28351,9.6122869 1.59304,14.7268349 4.06041,0.05032 5.38233,-1.716676 7.88227,-3.851004 1.38691,16.881486 -8.43015,23.222359 -19.7349,30.679596 l -0.20592,4.401324"
           style="fill:none;stroke:#020000;stroke-width:3.9000001;stroke-linecap:butt;stroke-linejoin:miter;stroke-opacity:1" />
        <path
           sodipodi:nodetypes="ccc"
           inkscape:connector-curvature="0"
           id="path5074"
           d="m 549.04411,38.477332 c 3.1797,3.055875 5.46104,6.366742 5.42926,9.652008 8.82352,-0.824984 15.21831,4.919197 21.37229,11.806473"
           style="fill:none;stroke:#020000;stroke-width:3.9000001;stroke-linecap:butt;stroke-linejoin:miter;stroke-opacity:1" />
        <path
           style="fill:none;stroke:#020000;stroke-width:3.9000001;stroke-linecap:butt;stroke-linejoin:miter;stroke-opacity:1"
           d="m 504.5844,38.477332 c -3.1797,3.055875 -5.46104,6.366742 -5.42926,9.652008 -8.82352,-0.824984 -15.21831,4.919197 -21.37229,11.806473"
           id="path5076"
           inkscape:connector-curvature="0"
           sodipodi:nodetypes="ccc" />
      </g>
    </g>
    <g
       id="g5329" />
    <g
       transform="rotate(73.6665,-1786.8745,4338.6592)"
       id="text5982"
       style="font-style:normal;font-weight:normal;font-size:41.60000229px;line-height:1.25;font-family:sans-serif;letter-spacing:0px;word-spacing:0px;fill:#000000;fill-opacity:1;stroke:none;stroke-width:7.80000019"
       aria-label="DOA" />
    <g
       aria-label="DOA"
       transform="matrix(1.0956979,-0.10670402,0.08804401,0.9040862,0,0)"
       style="font-style:normal;font-weight:normal;font-size:10.20451164px;line-height:1.25;font-family:sans-serif;letter-spacing:0px;word-spacing:0px;fill:#000000;fill-opacity:1;stroke:none;stroke-width:1.91334617"
       id="text6168">
      <path
         d="m 95.255544,278.38281 0.05979,-0.18436 h 2.157497 q 1.370234,0 2.027947,0.31391 0.662702,0.31391 1.056332,0.99155 0.39363,0.67266 0.39363,1.44498 0,0.66269 -0.22921,1.29051 -0.22422,0.62283 -0.51321,1.00152 -0.284015,0.3737 -0.876953,0.82712 -0.592938,0.45342 -1.285529,0.67266 -0.692592,0.21426 -1.728987,0.21426 h -2.860054 l 0.06477,-0.18436 q 0.393631,-0.01 0.528163,-0.0698 0.199307,-0.0847 0.293978,-0.2292 0.144497,-0.20928 0.323873,-0.84207 l 1.195842,-4.0858 q 0.139514,-0.48331 0.139514,-0.75736 0,-0.19433 -0.129549,-0.29896 -0.129549,-0.10464 -0.508233,-0.10464 z m 1.768848,0.18934 -1.464905,5.05742 q -0.164428,0.56802 -0.164428,0.70255 0,0.0797 0.04983,0.15446 0.05481,0.0747 0.144498,0.0997 0.129549,0.0448 0.418544,0.0448 0.78228,0 1.449958,-0.15944 0.67266,-0.16443 1.10117,-0.48332 0.607886,-0.46339 0.971621,-1.27557 0.363735,-0.81217 0.363735,-1.84857 0,-1.17093 -0.558059,-1.73895 -0.558059,-0.57301 -1.629334,-0.57301 -0.264081,0 -0.682626,0.0199 z"
         style="font-style:italic;font-variant:normal;font-weight:normal;font-stretch:normal;font-size:10.20451164px;font-family:'Times New Roman';-inkscape-font-specification:'Times New Roman,  Italic';stroke-width:1.91334617"
         id="path6296"
         inkscape:connector-curvature="0" />
      <path
         d="m 106.16261,278.04399 q 0.67266,0 1.19086,0.29398 0.5182,0.28899 0.81218,0.862 0.29397,0.56802 0.29397,1.18089 0,1.08623 -0.6328,2.28207 -0.62781,1.19086 -1.64428,1.81867 -1.01646,0.62782 -2.10268,0.62782 -0.78228,0 -1.31045,-0.34381 -0.52318,-0.34878 -0.77729,-0.91681 -0.24914,-0.56802 -0.24914,-1.10117 0,-0.94671 0.45343,-1.8685 0.4584,-0.92678 1.0912,-1.54463 0.6328,-0.62283 1.3503,-0.95667 0.71751,-0.33384 1.5247,-0.33384 z m -0.16941,0.31889 q -0.49827,0 -0.9766,0.24913 -0.47336,0.24416 -0.94173,0.8072 -0.46837,0.55806 -0.84207,1.4649 -0.4584,1.11612 -0.4584,2.10767 0,0.70754 0.36373,1.25564 0.36374,0.54311 1.11612,0.54311 0.45342,0 0.88691,-0.22422 0.43848,-0.22422 0.91183,-0.76733 0.59294,-0.68263 0.99654,-1.73896 0.40359,-1.06131 0.40359,-1.97812 0,-0.67764 -0.36373,-1.19584 -0.36374,-0.52318 -1.09619,-0.52318 z"
         style="font-style:italic;font-variant:normal;font-weight:normal;font-stretch:normal;font-size:10.20451164px;font-family:'Times New Roman';-inkscape-font-specification:'Times New Roman,  Italic';stroke-width:1.91334617"
         id="path6298"
         inkscape:connector-curvature="0" />
      <path
         d="m 113.76617,278.04399 -0.51322,5.62045 q -0.0399,0.39364 -0.0399,0.5182 0,0.19931 0.0747,0.30394 0.0947,0.1445 0.25412,0.21426 0.16443,0.0698 0.54809,0.0698 l -0.0548,0.18436 h -2.66074 l 0.0548,-0.18436 h 0.1146 q 0.32387,0 0.52816,-0.13952 0.1445,-0.0947 0.22422,-0.31391 0.0548,-0.15446 0.10464,-0.72747 l 0.0797,-0.85702 h -1.93328 l -0.68761,0.93176 q -0.23418,0.31391 -0.29397,0.45343 -0.0598,0.13453 -0.0598,0.25411 0,0.15945 0.12955,0.27405 0.12955,0.1146 0.42851,0.12457 l -0.0548,0.18436 h -1.99805 l 0.0548,-0.18436 q 0.36872,-0.0149 0.64775,-0.24415 0.28401,-0.23419 0.84207,-0.99156 l 4.03597,-5.4909 z m -0.98657,1.65923 -1.95819,2.66573 h 1.69909 z"
         style="font-style:italic;font-variant:normal;font-weight:normal;font-stretch:normal;font-size:10.20451164px;font-family:'Times New Roman';-inkscape-font-specification:'Times New Roman,  Italic';stroke-width:1.91334617"
         id="path6300"
         inkscape:connector-curvature="0" />
    </g>
    <g
       aria-label="USAHA"
       transform="matrix(1.0161578,-0.07514829,0.07238157,0.97874624,0,0)"
       style="font-style:normal;font-weight:normal;font-size:9.44489861px;line-height:1.25;font-family:sans-serif;letter-spacing:0px;word-spacing:0px;fill:#000000;fill-opacity:1;stroke:none;stroke-width:1.77091861"
       id="text6168-4">
      <path
         d="m 134.7,250.33836 h 2.64255 l -0.0507,0.17064 q -0.40584,0.009 -0.58109,0.0784 -0.17063,0.0646 -0.29515,0.2352 -0.1199,0.17063 -0.25365,0.63181 l -0.64103,2.21365 q -0.17064,0.5903 -0.20292,0.77478 -0.0553,0.29515 -0.0553,0.5488 0,0.55802 0.41506,0.94541 0.41506,0.38277 1.11143,0.38277 0.45657,0 0.81629,-0.17063 0.35971,-0.17525 0.61336,-0.48424 0.25826,-0.3136 0.4704,-0.84395 0.21214,-0.53496 0.37356,-1.07915 l 0.55341,-1.90927 q 0.20753,-0.71483 0.20753,-0.93158 0,-0.15219 -0.14297,-0.25826 -0.13835,-0.11068 -0.56725,-0.13374 l 0.0507,-0.17064 h 1.98768 l -0.0507,0.17064 q -0.3505,0 -0.5073,0.0692 -0.15219,0.0646 -0.26748,0.23982 -0.11529,0.17063 -0.25826,0.6687 l -0.67793,2.31972 q -0.32743,1.12988 -0.61798,1.66946 -0.29054,0.53497 -0.84395,0.8993 -0.5488,0.35971 -1.36508,0.35971 -0.9408,0 -1.51727,-0.53035 -0.57647,-0.53496 -0.57647,-1.22212 0,-0.27209 0.0507,-0.58108 0.0369,-0.20292 0.17986,-0.70099 l 0.61798,-2.12602 q 0.12913,-0.46118 0.12913,-0.67793 0,-0.17064 -0.13374,-0.26287 -0.12913,-0.0969 -0.65948,-0.12452 z"
         style="font-style:italic;font-variant:normal;font-weight:normal;font-stretch:normal;font-size:9.44489861px;font-family:'Times New Roman';-inkscape-font-specification:'Times New Roman,  Italic';stroke-width:1.77091861"
         id="path6303"
         inkscape:connector-curvature="0" />
      <path
         d="m 140.35403,256.73488 0.51652,-2.31972 h 0.1568 q -0.0323,0.33666 -0.0323,0.55803 0,0.63181 0.40122,1.02842 0.40583,0.39661 1.05609,0.39661 0.60415,0 0.91775,-0.36894 0.3136,-0.37355 0.3136,-0.85779 0,-0.3136 -0.14297,-0.57185 -0.21675,-0.38278 -1.15755,-1.34664 -0.45657,-0.46118 -0.5857,-0.68715 -0.21214,-0.37356 -0.21214,-0.784 0,-0.65487 0.48885,-1.12066 0.48885,-0.46579 1.2544,-0.46579 0.25826,0 0.48885,0.0507 0.14296,0.0277 0.52113,0.18447 0.26748,0.10607 0.29515,0.11529 0.0646,0.0138 0.14296,0.0138 0.13375,0 0.23059,-0.0692 0.0969,-0.0692 0.22598,-0.29515 h 0.17525 l -0.47963,2.07529 h -0.1568 q 0.0185,-0.2767 0.0185,-0.44734 0,-0.55802 -0.36894,-0.91313 -0.36894,-0.3551 -0.97308,-0.3551 -0.47963,0 -0.77939,0.28131 -0.29977,0.28132 -0.29977,0.65026 0,0.32283 0.18908,0.61798 0.1937,0.29054 0.88085,0.95464 0.69177,0.65948 0.89468,1.03303 0.20292,0.36894 0.20292,0.78861 0,0.47502 -0.25364,0.92236 -0.24904,0.44273 -0.71944,0.68715 -0.4704,0.24442 -1.02842,0.24442 -0.27671,0 -0.51652,-0.0507 -0.23981,-0.0507 -0.76556,-0.24903 -0.17985,-0.0692 -0.29976,-0.0692 -0.27209,0 -0.42428,0.36894 z"
         style="font-style:italic;font-variant:normal;font-weight:normal;font-stretch:normal;font-size:9.44489861px;font-family:'Times New Roman';-inkscape-font-specification:'Times New Roman,  Italic';stroke-width:1.77091861"
         id="path6305"
         inkscape:connector-curvature="0" />
      <path
         d="m 149.87733,250.1954 -0.47501,5.20207 q -0.0369,0.36433 -0.0369,0.47963 0,0.18447 0.0692,0.28131 0.0876,0.13374 0.2352,0.19831 0.15219,0.0646 0.50729,0.0646 l -0.0507,0.17064 h -2.46268 l 0.0507,-0.17064 h 0.10607 q 0.29977,0 0.48885,-0.12913 0.13374,-0.0876 0.20753,-0.29054 0.0507,-0.14296 0.0968,-0.67332 l 0.0738,-0.79322 h -1.78936 l -0.63643,0.8624 q -0.21675,0.29054 -0.27209,0.41967 -0.0553,0.12452 -0.0553,0.2352 0,0.14758 0.1199,0.25365 0.11991,0.10607 0.39662,0.11529 l -0.0507,0.17064 h -1.84932 l 0.0507,-0.17064 q 0.34127,-0.0138 0.59953,-0.22597 0.26287,-0.21676 0.77939,-0.91774 l 3.73553,-5.08217 z m -0.91313,1.53572 -1.81242,2.46729 h 1.57261 z"
         style="font-style:italic;font-variant:normal;font-weight:normal;font-stretch:normal;font-size:9.44489861px;font-family:'Times New Roman';-inkscape-font-specification:'Times New Roman,  Italic';stroke-width:1.77091861"
         id="path6307"
         inkscape:connector-curvature="0" />
      <path
         d="m 153.11479,253.12848 h 2.88697 l 0.45656,-1.54494 q 0.12913,-0.45195 0.12913,-0.70099 0,-0.1199 -0.0599,-0.20292 -0.0553,-0.0876 -0.17525,-0.12913 -0.11991,-0.0415 -0.4704,-0.0415 l 0.0461,-0.17064 h 2.51802 l -0.0553,0.17064 q -0.31821,-0.005 -0.47501,0.0646 -0.22137,0.0969 -0.32744,0.24904 -0.15219,0.21675 -0.30899,0.76094 l -1.10221,3.77704 q -0.13835,0.4704 -0.13835,0.67332 0,0.17524 0.11991,0.26748 0.12451,0.0876 0.58569,0.1199 l -0.0507,0.17064 h -2.43501 l 0.0646,-0.17064 q 0.35972,-0.009 0.47963,-0.0646 0.18447,-0.083 0.26748,-0.21214 0.1199,-0.17986 0.29515,-0.784 l 0.56264,-1.91389 h -2.9008 l -0.56725,1.91389 q -0.13374,0.46117 -0.13374,0.67332 0,0.17524 0.1199,0.26748 0.11991,0.0876 0.58109,0.1199 l -0.0369,0.17064 h -2.45346 l 0.0599,-0.17064 q 0.36433,-0.009 0.48424,-0.0646 0.18447,-0.083 0.27209,-0.21214 0.11991,-0.18908 0.29516,-0.784 l 1.10682,-3.77704 q 0.13374,-0.46118 0.13374,-0.70099 0,-0.1199 -0.06,-0.20292 -0.0553,-0.0876 -0.17986,-0.12913 -0.11991,-0.0415 -0.47501,-0.0415 l 0.0553,-0.17064 h 2.4673 l -0.0507,0.17064 q -0.30899,-0.005 -0.45657,0.0646 -0.21675,0.0922 -0.31821,0.24443 -0.13835,0.20291 -0.30438,0.76555 z"
         style="font-style:italic;font-variant:normal;font-weight:normal;font-stretch:normal;font-size:9.44489861px;font-family:'Times New Roman';-inkscape-font-specification:'Times New Roman,  Italic';stroke-width:1.77091861"
         id="path6309"
         inkscape:connector-curvature="0" />
      <path
         d="m 162.47668,250.1954 -0.47502,5.20207 q -0.0369,0.36433 -0.0369,0.47963 0,0.18447 0.0692,0.28131 0.0876,0.13374 0.2352,0.19831 0.15218,0.0646 0.50729,0.0646 l -0.0507,0.17064 h -2.46268 l 0.0507,-0.17064 h 0.10607 q 0.29976,0 0.48884,-0.12913 0.13375,-0.0876 0.20753,-0.29054 0.0507,-0.14296 0.0969,-0.67332 l 0.0738,-0.79322 h -1.78937 l -0.63642,0.8624 q -0.21675,0.29054 -0.27209,0.41967 -0.0553,0.12452 -0.0553,0.2352 0,0.14758 0.11991,0.25365 0.11991,0.10607 0.39661,0.11529 l -0.0507,0.17064 h -1.84932 l 0.0507,-0.17064 q 0.34127,-0.0138 0.59953,-0.22597 0.26287,-0.21676 0.77939,-0.91774 l 3.73553,-5.08217 z m -0.91313,1.53572 -1.81243,2.46729 h 1.57261 z"
         style="font-style:italic;font-variant:normal;font-weight:normal;font-stretch:normal;font-size:9.44489861px;font-family:'Times New Roman';-inkscape-font-specification:'Times New Roman,  Italic';stroke-width:1.77091861"
         id="path6311"
         inkscape:connector-curvature="0" />
    </g>
    <g
       aria-label="RAIH"
       transform="scale(1.0189328,0.981419)"
       style="font-style:normal;font-weight:normal;font-size:9.44489861px;line-height:1.25;font-family:sans-serif;letter-spacing:0px;word-spacing:0px;fill:#000000;fill-opacity:1;stroke:none;stroke-width:1.77091861"
       id="text6168-4-8">
      <path
         d="m 202.57729,243.68147 -1.00075,-3.03915 q -0.35049,0.005 -0.71944,-0.0692 l -0.53957,1.89083 q -0.10607,0.36894 -0.10607,0.62258 0,0.1937 0.13374,0.30438 0.10146,0.083 0.55341,0.11991 l -0.0415,0.17063 h -2.42117 l 0.0507,-0.17063 q 0.34127,-0.0138 0.46117,-0.0692 0.18908,-0.0784 0.27671,-0.21214 0.14758,-0.21675 0.30899,-0.76555 l 1.09299,-3.77704 q 0.11068,-0.37817 0.11068,-0.5857 0,-0.21214 -0.17525,-0.35971 -0.17063,-0.14758 -0.49346,-0.14297 l 0.0553,-0.17063 h 2.0384 q 1.02382,0 1.47577,0.38739 0.45195,0.38738 0.45195,1.0192 0,0.60414 -0.46579,1.10682 -0.46117,0.49807 -1.26823,0.63181 l 0.60875,1.83087 q 0.22137,0.67332 0.44273,0.87624 0.22137,0.20292 0.71482,0.23059 l -0.0507,0.17063 z m -1.64179,-3.3712 q 0.29516,0.0415 0.52575,0.0415 0.79322,0 1.2544,-0.43812 0.46117,-0.44273 0.46117,-1.0976 0,-0.51191 -0.29054,-0.784 -0.28593,-0.2721 -0.8624,-0.2721 -0.14758,0 -0.35049,0.0369 z"
         style="font-style:italic;font-variant:normal;font-weight:normal;font-stretch:normal;font-size:9.44489861px;font-family:'Times New Roman';-inkscape-font-specification:'Times New Roman,  Italic';stroke-width:1.77091861"
         id="path6314"
         inkscape:connector-curvature="0" />
      <path
         d="m 209.29203,237.28495 -0.47502,5.20208 q -0.0369,0.36432 -0.0369,0.47962 0,0.18447 0.0692,0.28132 0.0876,0.13374 0.2352,0.1983 0.15218,0.0646 0.50729,0.0646 l -0.0507,0.17063 h -2.46268 l 0.0507,-0.17063 h 0.10607 q 0.29976,0 0.48884,-0.12913 0.13375,-0.0876 0.20753,-0.29054 0.0507,-0.14297 0.0969,-0.67332 l 0.0738,-0.79323 h -1.78937 l -0.63642,0.86241 q -0.21675,0.29054 -0.27209,0.41967 -0.0554,0.12451 -0.0554,0.2352 0,0.14757 0.11991,0.25364 0.11991,0.10607 0.39661,0.1153 l -0.0507,0.17063 h -1.84932 l 0.0507,-0.17063 q 0.34127,-0.0138 0.59953,-0.22598 0.26287,-0.21675 0.77939,-0.91774 l 3.73553,-5.08217 z m -0.91313,1.53572 -1.81243,2.4673 h 1.57261 z"
         style="font-style:italic;font-variant:normal;font-weight:normal;font-stretch:normal;font-size:9.44489861px;font-family:'Times New Roman';-inkscape-font-specification:'Times New Roman,  Italic';stroke-width:1.77091861"
         id="path6316"
         inkscape:connector-curvature="0" />
      <path
         d="m 212.52949,243.51084 -0.0507,0.17063 h -2.57337 l 0.0646,-0.17063 q 0.38738,-0.009 0.5119,-0.0646 0.20292,-0.0784 0.29977,-0.21675 0.15218,-0.21675 0.3136,-0.77478 l 1.08837,-3.77242 q 0.13836,-0.4704 0.13836,-0.71021 0,-0.11991 -0.06,-0.20292 -0.0599,-0.083 -0.18447,-0.12452 -0.1199,-0.0461 -0.47501,-0.0461 l 0.0553,-0.17063 h 2.41657 l -0.0507,0.17063 q -0.29515,-0.005 -0.43812,0.0646 -0.20753,0.0922 -0.31821,0.26287 -0.10607,0.17063 -0.27671,0.75633 l -1.08376,3.77242 q -0.14758,0.52113 -0.14758,0.6641 0,0.11529 0.0553,0.1983 0.0599,0.0784 0.18447,0.12452 0.12913,0.0415 0.53036,0.0692 z"
         style="font-style:italic;font-variant:normal;font-weight:normal;font-stretch:normal;font-size:9.44489861px;font-family:'Times New Roman';-inkscape-font-specification:'Times New Roman,  Italic';stroke-width:1.77091861"
         id="path6318"
         inkscape:connector-curvature="0" />
      <path
         d="m 215.68393,240.21804 h 2.88697 l 0.45657,-1.54495 q 0.12912,-0.45195 0.12912,-0.70098 0,-0.11991 -0.0599,-0.20292 -0.0553,-0.0876 -0.17525,-0.12913 -0.1199,-0.0415 -0.4704,-0.0415 l 0.0461,-0.17063 h 2.51803 l -0.0553,0.17063 q -0.31822,-0.005 -0.47502,0.0646 -0.22136,0.0968 -0.32743,0.24903 -0.15219,0.21676 -0.30899,0.76094 l -1.10221,3.77704 q -0.13836,0.4704 -0.13836,0.67332 0,0.17525 0.11991,0.26748 0.12452,0.0876 0.58569,0.11991 l -0.0507,0.17063 h -2.43502 l 0.0646,-0.17063 q 0.35971,-0.009 0.47962,-0.0646 0.18447,-0.083 0.26748,-0.21214 0.11991,-0.17986 0.29516,-0.784 l 0.56263,-1.91388 h -2.9008 l -0.56725,1.91388 q -0.13374,0.46118 -0.13374,0.67332 0,0.17525 0.11991,0.26748 0.1199,0.0876 0.58108,0.11991 l -0.0369,0.17063 h -2.45346 l 0.0599,-0.17063 q 0.36433,-0.009 0.48423,-0.0646 0.18448,-0.083 0.2721,-0.21214 0.11991,-0.18908 0.29515,-0.784 l 1.10683,-3.77704 q 0.13374,-0.46117 0.13374,-0.70098 0,-0.11991 -0.06,-0.20292 -0.0553,-0.0876 -0.17985,-0.12913 -0.11991,-0.0415 -0.47502,-0.0415 l 0.0553,-0.17063 h 2.4673 l -0.0507,0.17063 q -0.30899,-0.005 -0.45656,0.0646 -0.21676,0.0922 -0.31822,0.24442 -0.13835,0.20292 -0.30437,0.76555 z"
         style="font-style:italic;font-variant:normal;font-weight:normal;font-stretch:normal;font-size:9.44489861px;font-family:'Times New Roman';-inkscape-font-specification:'Times New Roman,  Italic';stroke-width:1.77091861"
         id="path6320"
         inkscape:connector-curvature="0" />
    </g>
    <g
       aria-label="SUKSES"
       transform="matrix(1.0126755,0.11274922,-0.10859816,0.97539207,0,0)"
       style="font-style:normal;font-weight:normal;font-size:9.44489861px;line-height:1.25;font-family:sans-serif;letter-spacing:0px;word-spacing:0px;fill:#000000;fill-opacity:1;stroke:none;stroke-width:1.77091861"
       id="text6168-4-8-8">
      <path
         d="m 248.21184,222.52584 0.51652,-2.31972 h 0.1568 q -0.0323,0.33666 -0.0323,0.55802 0,0.63182 0.40122,1.02843 0.40584,0.39661 1.0561,0.39661 0.60414,0 0.91774,-0.36894 0.3136,-0.37356 0.3136,-0.85779 0,-0.3136 -0.14297,-0.57186 -0.21675,-0.38278 -1.15755,-1.34664 -0.45656,-0.46117 -0.58569,-0.68715 -0.21215,-0.37355 -0.21215,-0.784 0,-0.65487 0.48885,-1.12066 0.48885,-0.46579 1.2544,-0.46579 0.25826,0 0.48885,0.0507 0.14296,0.0277 0.52113,0.18447 0.26748,0.10607 0.29515,0.1153 0.0646,0.0138 0.14297,0.0138 0.13374,0 0.23059,-0.0692 0.0968,-0.0692 0.22597,-0.29516 h 0.17525 l -0.47962,2.0753 h -0.1568 q 0.0184,-0.27671 0.0184,-0.44734 0,-0.55803 -0.36894,-0.91313 -0.36894,-0.35511 -0.97308,-0.35511 -0.47963,0 -0.77939,0.28132 -0.29977,0.28132 -0.29977,0.65026 0,0.32282 0.18909,0.61797 0.19369,0.29055 0.88084,0.95464 0.69177,0.65948 0.89469,1.03304 0.20292,0.36894 0.20292,0.78861 0,0.47501 -0.25365,0.92235 -0.24904,0.44273 -0.71944,0.68715 -0.4704,0.24443 -1.02842,0.24443 -0.27671,0 -0.51652,-0.0507 -0.23981,-0.0507 -0.76555,-0.24904 -0.17986,-0.0692 -0.29977,-0.0692 -0.27209,0 -0.42428,0.36894 z"
         style="font-style:italic;font-variant:normal;font-weight:normal;font-stretch:normal;font-size:9.44489861px;font-family:'Times New Roman';-inkscape-font-specification:'Times New Roman,  Italic';stroke-width:1.77091861"
         id="path6323"
         inkscape:connector-curvature="0" />
      <path
         d="m 254.10568,216.12932 h 2.64254 l -0.0507,0.17063 q -0.40583,0.009 -0.58108,0.0784 -0.17063,0.0646 -0.29515,0.2352 -0.11991,0.17064 -0.25365,0.63182 l -0.64103,2.21364 q -0.17064,0.59031 -0.20292,0.77478 -0.0553,0.29515 -0.0553,0.5488 0,0.55802 0.41506,0.94541 0.41505,0.38278 1.11143,0.38278 0.45657,0 0.81628,-0.17064 0.35972,-0.17524 0.61337,-0.48423 0.25826,-0.3136 0.4704,-0.84395 0.21214,-0.53497 0.37355,-1.07916 l 0.55341,-1.90927 q 0.20753,-0.71482 0.20753,-0.93158 0,-0.15219 -0.14296,-0.25826 -0.13835,-0.11068 -0.56725,-0.13374 l 0.0507,-0.17063 h 1.98767 l -0.0507,0.17063 q -0.35049,0 -0.50729,0.0692 -0.15219,0.0646 -0.26748,0.23981 -0.1153,0.17064 -0.25826,0.66871 l -0.67793,2.31972 q -0.32744,1.12988 -0.61798,1.66946 -0.29054,0.53496 -0.84395,0.89929 -0.5488,0.35972 -1.36509,0.35972 -0.9408,0 -1.51727,-0.53035 -0.57647,-0.53497 -0.57647,-1.22212 0,-0.2721 0.0507,-0.58109 0.0369,-0.20291 0.17986,-0.70098 l 0.61798,-2.12603 q 0.12913,-0.46118 0.12913,-0.67793 0,-0.17063 -0.13374,-0.26287 -0.12913,-0.0969 -0.65949,-0.12452 z"
         style="font-style:italic;font-variant:normal;font-weight:normal;font-stretch:normal;font-size:9.44489861px;font-family:'Times New Roman';-inkscape-font-specification:'Times New Roman,  Italic';stroke-width:1.77091861"
         id="path6325"
         inkscape:connector-curvature="0" />
      <path
         d="m 262.71124,218.8272 1.54955,2.39351 q 0.41506,0.63642 0.68716,0.81628 0.27209,0.17525 0.71482,0.17525 l -0.0507,0.17063 h -2.6656 l 0.0415,-0.17063 q 0.31822,-0.0323 0.44735,-0.15219 0.13374,-0.11991 0.13374,-0.27209 0,-0.13836 -0.0461,-0.26749 -0.0369,-0.0922 -0.26748,-0.45195 l -1.26824,-1.98767 -0.61336,2.07068 q -0.15219,0.49807 -0.15219,0.66871 0,0.17525 0.12913,0.26748 0.12913,0.0922 0.63642,0.12452 l -0.0738,0.17063 h -2.4719 l 0.0599,-0.17063 q 0.35972,-0.009 0.48423,-0.0646 0.18447,-0.083 0.2721,-0.21214 0.1199,-0.18908 0.29515,-0.784 l 1.10221,-3.77704 q 0.12452,-0.4335 0.12452,-0.69637 0,-0.18447 -0.1199,-0.28132 -0.1153,-0.0969 -0.45657,-0.0969 h -0.0922 l 0.0553,-0.17063 h 2.34739 l -0.0461,0.17063 q -0.29054,-0.005 -0.43351,0.0646 -0.1983,0.0968 -0.29054,0.24903 -0.0922,0.15219 -0.27209,0.76094 l -0.48424,1.6049 2.22287,-1.67407 q 0.44273,-0.33205 0.58109,-0.52574 0.083,-0.11991 0.083,-0.21676 0,-0.083 -0.0876,-0.16141 -0.083,-0.0784 -0.25826,-0.10146 l 0.0461,-0.17063 h 2.00151 l -0.0415,0.17063 q -0.32743,0.0553 -0.55341,0.14758 -0.22136,0.0876 -0.45656,0.24442 -0.0692,0.0461 -0.8993,0.68254 z"
         style="font-style:italic;font-variant:normal;font-weight:normal;font-stretch:normal;font-size:9.44489861px;font-family:'Times New Roman';-inkscape-font-specification:'Times New Roman,  Italic';stroke-width:1.77091861"
         id="path6327"
         inkscape:connector-curvature="0" />
      <path
         d="m 266.0686,222.52584 0.51652,-2.31972 h 0.1568 q -0.0323,0.33666 -0.0323,0.55802 0,0.63182 0.40122,1.02843 0.40584,0.39661 1.0561,0.39661 0.60414,0 0.91774,-0.36894 0.3136,-0.37356 0.3136,-0.85779 0,-0.3136 -0.14296,-0.57186 -0.21676,-0.38278 -1.15756,-1.34664 -0.45656,-0.46117 -0.58569,-0.68715 -0.21214,-0.37355 -0.21214,-0.784 0,-0.65487 0.48884,-1.12066 0.48885,-0.46579 1.2544,-0.46579 0.25826,0 0.48885,0.0507 0.14297,0.0277 0.52113,0.18447 0.26748,0.10607 0.29515,0.1153 0.0646,0.0138 0.14297,0.0138 0.13374,0 0.23059,-0.0692 0.0968,-0.0692 0.22597,-0.29516 h 0.17525 l -0.47962,2.0753 h -0.1568 q 0.0184,-0.27671 0.0184,-0.44734 0,-0.55803 -0.36894,-0.91313 -0.36894,-0.35511 -0.97308,-0.35511 -0.47962,0 -0.77939,0.28132 -0.29976,0.28132 -0.29976,0.65026 0,0.32282 0.18908,0.61797 0.19369,0.29055 0.88085,0.95464 0.69176,0.65948 0.89468,1.03304 0.20292,0.36894 0.20292,0.78861 0,0.47501 -0.25365,0.92235 -0.24904,0.44273 -0.71944,0.68715 -0.4704,0.24443 -1.02842,0.24443 -0.27671,0 -0.51652,-0.0507 -0.23981,-0.0507 -0.76555,-0.24904 -0.17986,-0.0692 -0.29977,-0.0692 -0.27209,0 -0.42428,0.36894 z"
         style="font-style:italic;font-variant:normal;font-weight:normal;font-stretch:normal;font-size:9.44489861px;font-family:'Times New Roman';-inkscape-font-specification:'Times New Roman,  Italic';stroke-width:1.77091861"
         id="path6329"
         inkscape:connector-curvature="0" />
      <path
         d="m 273.78409,216.46598 -0.71482,2.4719 h 0.58569 q 0.6272,0 0.90852,-0.18908 0.28132,-0.19369 0.48423,-0.71021 h 0.17064 l -0.64104,2.26899 h -0.18447 q 0.083,-0.28593 0.083,-0.48885 0,-0.1983 -0.083,-0.31821 -0.0784,-0.11991 -0.22136,-0.17525 -0.13836,-0.0599 -0.59031,-0.0599 h -0.59492 l -0.60414,2.07068 q -0.0876,0.29977 -0.0876,0.45657 0,0.1199 0.11529,0.21214 0.0784,0.0646 0.392,0.0646 h 0.55342 q 0.89929,0 1.43887,-0.31821 0.54419,-0.31821 0.97308,-1.10682 h 0.17063 l -0.5903,1.73863 h -4.83313 l 0.06,-0.17063 q 0.35972,-0.009 0.48424,-0.0646 0.18447,-0.083 0.26748,-0.21214 0.12452,-0.18908 0.29515,-0.79322 l 1.0976,-3.77243 q 0.12913,-0.45656 0.12913,-0.69637 0,-0.17525 -0.12452,-0.2721 -0.1199,-0.10146 -0.47501,-0.10146 h -0.0969 l 0.0553,-0.17063 h 4.49186 l -0.38739,1.50805 h -0.17064 q 0.0323,-0.21215 0.0323,-0.35511 0,-0.24442 -0.1199,-0.41045 -0.1568,-0.21214 -0.45657,-0.32282 -0.22136,-0.083 -1.0192,-0.083 z"
         style="font-style:italic;font-variant:normal;font-weight:normal;font-stretch:normal;font-size:9.44489861px;font-family:'Times New Roman';-inkscape-font-specification:'Times New Roman,  Italic';stroke-width:1.77091861"
         id="path6331"
         inkscape:connector-curvature="0" />
      <path
         d="m 276.56498,222.52584 0.51652,-2.31972 h 0.1568 q -0.0323,0.33666 -0.0323,0.55802 0,0.63182 0.40122,1.02843 0.40584,0.39661 1.0561,0.39661 0.60414,0 0.91774,-0.36894 0.3136,-0.37356 0.3136,-0.85779 0,-0.3136 -0.14296,-0.57186 -0.21676,-0.38278 -1.15756,-1.34664 -0.45656,-0.46117 -0.58569,-0.68715 -0.21214,-0.37355 -0.21214,-0.784 0,-0.65487 0.48884,-1.12066 0.48885,-0.46579 1.2544,-0.46579 0.25826,0 0.48885,0.0507 0.14297,0.0277 0.52113,0.18447 0.26748,0.10607 0.29515,0.1153 0.0646,0.0138 0.14297,0.0138 0.13374,0 0.23059,-0.0692 0.0968,-0.0692 0.22597,-0.29516 h 0.17525 l -0.47962,2.0753 h -0.1568 q 0.0184,-0.27671 0.0184,-0.44734 0,-0.55803 -0.36894,-0.91313 -0.36894,-0.35511 -0.97308,-0.35511 -0.47962,0 -0.77939,0.28132 -0.29976,0.28132 -0.29976,0.65026 0,0.32282 0.18908,0.61797 0.19369,0.29055 0.88085,0.95464 0.69176,0.65948 0.89468,1.03304 0.20292,0.36894 0.20292,0.78861 0,0.47501 -0.25365,0.92235 -0.24904,0.44273 -0.71944,0.68715 -0.4704,0.24443 -1.02842,0.24443 -0.27671,0 -0.51652,-0.0507 -0.23981,-0.0507 -0.76555,-0.24904 -0.17986,-0.0692 -0.29977,-0.0692 -0.27209,0 -0.42428,0.36894 z"
         style="font-style:italic;font-variant:normal;font-weight:normal;font-stretch:normal;font-size:9.44489861px;font-family:'Times New Roman';-inkscape-font-specification:'Times New Roman,  Italic';stroke-width:1.77091861"
         id="path6333"
         inkscape:connector-curvature="0" />
    </g>
  </g>
</svg>
