<?xml version="1.0" encoding="UTF-8" standalone="no"?>
<svg
   xmlns:dc="http://purl.org/dc/elements/1.1/"
   xmlns:cc="http://creativecommons.org/ns#"
   xmlns:rdf="http://www.w3.org/1999/02/22-rdf-syntax-ns#"
   xmlns:svg="http://www.w3.org/2000/svg"
   xmlns="http://www.w3.org/2000/svg"
   xmlns:sodipodi="http://sodipodi.sourceforge.net/DTD/sodipodi-0.dtd"
   xmlns:inkscape="http://www.inkscape.org/namespaces/inkscape"
   height="133.38254mm"
   viewBox="0 0 378.09225 378.28749"
   width="133.38254mm"
   version="1.1"
   id="svg122"
   sodipodi:docname="sekolah_dataguru.svg"
   inkscape:version="0.92.4 (5da689c313, 2019-01-14)">
  <metadata
     id="metadata128">
    <rdf:RDF>
      <cc:Work
         rdf:about="">
        <dc:format>image/svg+xml</dc:format>
        <dc:type
           rdf:resource="http://purl.org/dc/dcmitype/StillImage" />
        <dc:title />
      </cc:Work>
    </rdf:RDF>
  </metadata>
  <defs
     id="defs126" />
  <sodipodi:namedview
     pagecolor="#ffffff"
     bordercolor="#666666"
     borderopacity="1"
     objecttolerance="10"
     gridtolerance="10"
     guidetolerance="10"
     inkscape:pageopacity="0"
     inkscape:pageshadow="2"
     inkscape:window-width="1920"
     inkscape:window-height="986"
     id="namedview124"
     showgrid="false"
     inkscape:zoom="2.0517688"
     inkscape:cx="71.097198"
     inkscape:cy="156.64114"
     inkscape:window-x="-11"
     inkscape:window-y="-11"
     inkscape:window-maximized="1"
     inkscape:current-layer="svg122"
     units="mm" />
  <circle
     style="fill:#fbbd5e;stroke-width:0.75038731"
     cx="189.04613"
     cy="189.14374"
     r="189.14412"
     id="circle2" />
  <path
     d="M 326.01594,215.70582 H 88.963735 c -5.845314,0 -10.581123,-4.73581 -10.581123,-10.57872 V 52.09467 c 0,-5.842912 4.735809,-10.57872 10.581123,-10.57872 H 326.01594 c 5.84291,0 10.57872,4.735808 10.57872,10.57872 V 205.1271 c 0,5.84291 -4.73581,10.57872 -10.57872,10.57872 z m 0,0"
     id="path2"
     inkscape:connector-curvature="0"
     style="fill:#ffea92;stroke-width:0.61479062" />
  <path
     d="M 95.596749,194.80534 V 62.41883 c 0,-2.036494 1.65225,-3.688744 3.688744,-3.688744 H 315.69178 c 2.0389,0 3.68875,1.65225 3.68875,3.688744 v 132.38651 c 0,2.0365 -1.64985,3.68875 -3.68875,3.68875 H 99.285493 c -2.036494,0 -3.688744,-1.65466 -3.688744,-3.68875 z m 0,0"
     id="path4"
     inkscape:connector-curvature="0"
     style="fill:#6bdddd;stroke-width:0.61479062" />
  <path
     d="M 326.01594,218.16738 H 88.963735 c -7.19257,0 -13.040285,-5.85012 -13.040285,-13.04028 V 52.09467 c 0,-7.187769 5.850117,-13.037882 13.040285,-13.037882 H 326.01354 c 7.19257,0 13.04029,5.850113 13.04029,13.037882 V 205.1271 c 0,7.19016 -5.84772,13.04028 -13.03789,13.04028 z M 88.963735,43.975112 c -4.478846,0 -8.12196,3.643114 -8.12196,8.119558 V 205.1271 c 0,4.47644 3.643114,8.11956 8.12196,8.11956 H 326.01354 c 4.47885,0 8.12196,-3.64312 8.12196,-8.11956 V 52.09467 c 0,-4.476444 -3.64311,-8.119558 -8.12196,-8.119558 z m 0,0"
     id="path6"
     inkscape:connector-curvature="0"
     style="fill:#3762cc;stroke-width:0.61479062" />
  <path
     d="m 148.22619,99.054106 h -11.49851 c -0.51873,0 -0.93659,0.417865 -0.93659,0.936594 v 8.22763 c 0,0.51872 0.41786,0.93659 0.93659,0.93659 h 10.01196 c 0.51633,0 0.9366,0.42027 0.9366,0.9366 v 2.73293 c 0,0.51873 -0.42027,0.939 -0.9366,0.939 h -10.01196 c -0.51873,0 -0.93659,0.41786 -0.93659,0.93659 v 8.67432 c 0,0.51632 0.41786,0.93659 0.93659,0.93659 h 11.4961 c 0.51873,0 0.939,0.42027 0.939,0.9366 v 2.73293 c 0,0.51633 -0.42027,0.9366 -0.939,0.9366 h -17.14209 c -0.51632,0 -0.93659,-0.42027 -0.93659,-0.9366 V 95.384574 c 0,-0.518729 0.42027,-0.936595 0.93659,-0.936595 h 17.1445 c 0.51632,0 0.93659,0.417866 0.93659,0.936595 v 2.730535 c 0,0.518729 -0.42027,0.938997 -0.93659,0.938997 z m 0,0"
     id="path8"
     inkscape:connector-curvature="0"
     style="fill:#e0ebfc;stroke-width:0.61479062" />
  <path
     d="m 161.54025,103.01422 h 24.47394 c 0.51634,0 0.9366,0.42027 0.9366,0.9366 v 2.88183 c 0,0.51873 -0.42026,0.9366 -0.9366,0.9366 h -24.47394 c -0.51873,0 -0.9366,-0.41787 -0.9366,-0.9366 v -2.88183 c 0,-0.51633 0.41787,-0.9366 0.9366,-0.9366 z m 0,11.24155 h 24.47394 c 0.51634,0 0.9366,0.42026 0.9366,0.93899 v 2.87943 c 0,0.51873 -0.42026,0.93659 -0.9366,0.93659 h -24.47394 c -0.51873,0 -0.9366,-0.41786 -0.9366,-0.93659 v -2.87943 c 0,-0.51873 0.41787,-0.93899 0.9366,-0.93899 z m 0,0"
     id="path10"
     inkscape:connector-curvature="0"
     style="fill:#e0ebfc;stroke-width:0.61479062" />
  <path
     d="m 237.56295,113.66258 c 0,-5.00237 -2.72334,-7.57681 -6.83234,-7.57681 -4.16185,0 -6.88518,2.57444 -6.88518,7.57681 v 14.3155 c 0,0.51873 -0.42026,0.9366 -0.9366,0.9366 h -3.72476 c -0.51633,0 -0.9366,-0.41787 -0.9366,-0.9366 v -14.3155 c 0,-5.00237 -2.72333,-7.57681 -6.83234,-7.57681 -4.16184,0 -6.88517,2.57444 -6.88517,7.57681 v 14.3155 c 0,0.51873 -0.42027,0.9366 -0.9366,0.9366 h -3.7728 c -0.51873,0 -0.93659,-0.41787 -0.93659,-0.9366 v -25.41295 c 0,-0.51872 0.41786,-0.93659 0.93659,-0.93659 h 3.7728 c 0.51633,0 0.9366,0.41787 0.9366,0.93659 0,0.7709 0.88136,1.21518 1.49375,0.74688 1.77232,-1.35446 4.0898,-2.12775 6.57778,-2.12775 3.7776,0 7.02206,1.40729 9.03213,4.15464 0.37704,0.51632 1.13593,0.55475 1.51777,0.0408 1.92362,-2.61046 5.30497,-4.19547 8.76557,-4.19547 6.38806,0 11.24154,4.01055 11.24154,11.6378 v 15.15842 c 0,0.51634 -0.42026,0.9366 -0.9366,0.9366 h -3.72476 c -0.51633,0 -0.9366,-0.42026 -0.9366,-0.9366 v -14.31789 z m 0,0"
     id="path12"
     inkscape:connector-curvature="0"
     style="fill:#e0ebfc;stroke-width:0.61479062" />
  <path
     d="m 264.05898,101.18186 c 6.18153,0 10.37219,2.8338 12.18294,7.80015 0.22334,0.61239 -0.23535,1.26321 -0.88376,1.26321 h -4.14504 c -0.37463,0 -0.73006,-0.20654 -0.88376,-0.54995 -1.03986,-2.30787 -3.14119,-3.76079 -6.26798,-3.76079 -4.55569,0 -7.57681,3.36934 -7.57681,9.31311 0,5.99181 3.02112,9.35875 7.57681,9.35875 3.12679,0 5.14647,-1.28241 6.24877,-3.72717 0.1561,-0.34582 0.48751,-0.58357 0.86695,-0.58357 h 4.15224 c 0.65802,0 1.11911,0.66523 0.87896,1.27761 -1.82996,4.65416 -6.00622,7.78815 -12.14692,7.78815 -7.82657,0 -13.3717,-5.54753 -13.3717,-14.11377 0,-8.51821 5.54513,-14.06573 13.3693,-14.06573 z m 0,0"
     id="path14"
     inkscape:connector-curvature="0"
     style="fill:#e0ebfc;stroke-width:0.61479062" />
  <path
     d="m 281.59252,108.34321 c 0,-0.27138 0.11767,-0.53074 0.3218,-0.70845 4.52928,-3.94811 9.17863,-7.42312 9.17863,-11.181507 0,-2.0461 -0.88856,-3.443788 -3.17721,-3.443788 -1.8804,0 -3.00191,1.150331 -3.30931,2.913051 -0.0768,0.45629 -0.45869,0.799708 -0.92218,0.799708 h -1.0999 c -0.56196,0 -1.01104,-0.499517 -0.93179,-1.056671 0.50192,-3.53985 3.06674,-5.266546 6.23436,-5.266546 3.98413,0 6.24397,2.394321 6.24397,5.919761 0,3.902482 -3.25407,7.048482 -6.16232,9.639722 -0.64361,0.57397 -0.23535,1.63304 0.62439,1.63304 h 5.13927 c 0.51633,0 0.9366,0.42027 0.9366,0.939 v 0.68203 c 0,0.51873 -0.42027,0.93659 -0.9366,0.93659 h -11.20312 c -0.51873,0 -0.93899,-0.41786 -0.93899,-0.93659 v -0.86935 z m 0,0"
     id="path16"
     inkscape:connector-curvature="0"
     style="fill:#e0ebfc;stroke-width:0.61479062" />
  <path
     d="M 315.69178,200.95325 H 99.285493 c -3.388553,0 -6.147906,-2.75935 -6.147906,-6.14791 V 62.41883 c 0,-3.390955 2.759353,-6.147906 6.147906,-6.147906 H 315.69178 c 3.39096,0 6.14791,2.756951 6.14791,6.147906 v 132.38651 c 0,3.38856 -2.75695,6.14791 -6.14791,6.14791 z M 99.285493,61.189248 c -0.67723,0 -1.229582,0.552352 -1.229582,1.229582 v 132.38651 c 0,0.67723 0.552352,1.22958 1.229582,1.22958 H 315.69178 c 0.67964,0 1.22959,-0.55235 1.22959,-1.22958 V 62.41883 c 0,-0.67723 -0.54995,-1.229582 -1.22959,-1.229582 z m 0,0"
     id="path18"
     inkscape:connector-curvature="0"
     style="fill:#3762cc;stroke-width:0.61479062" />
  <path
     d="m 142.78673,185.77561 c -0.0865,0 -0.17051,0.012 -0.25696,0.0144 v -3.83523 c 0,-22.42305 -18.17475,-40.5978 -40.5954,-40.5978 -22.42304,0 -40.597787,18.17475 -40.597787,40.5978 v 3.83523 c -0.08646,0 -0.170509,-0.0144 -0.256964,-0.0144 -6.839545,0 -12.382267,5.54271 -12.384668,12.38226 -0.0024,3.06195 1.390483,5.93417 3.544651,8.10995 3.864056,3.90968 7.151744,4.52928 10.168061,4.20507 4.190662,17.96102 20.290491,31.34472 39.526707,31.34472 19.23383,0 35.33365,-13.3837 39.52432,-31.34472 3.08115,0.32901 6.4529,-0.3242 10.35538,-4.46203 2.08692,-2.21421 3.42217,-5.08163 3.35493,-8.12196 -0.1441,-6.71466 -5.63158,-12.11329 -12.38227,-12.11329 z m 0,0"
     id="path20"
     inkscape:connector-curvature="0"
     style="fill:#f9cfcf;stroke-width:0.61479062" />
  <path
     d="m 41.495176,278.50092 v 58.27062 h 15.809245 v -24.36828 h 0.206531 v -51.2942 c 0,-7.82897 5.489888,-14.36592 12.824147,-16.00136 -16.308762,2.40393 -28.839923,16.41683 -28.839923,33.39322 z m 0,0"
     id="path22"
     inkscape:connector-curvature="0"
     style="fill:#a4c9ff;stroke-width:0.61479062" />
  <path
     d="M 134.42462,244.70424 H 73.915774 c -9.058555,0 -16.402421,7.34387 -16.402421,16.40482 v 75.66248 h 93.316087 v -75.66248 c -0.002,-9.06095 -7.34627,-16.40482 -16.40482,-16.40482 z m 0,0"
     id="path24"
     inkscape:connector-curvature="0"
     style="fill:#a4c9ff;stroke-width:0.61479062" />
  <path
     d="m 57.510952,297.01428 v -35.90522 c 0,-7.82897 5.489888,-14.36832 12.824147,-16.00136 -16.308762,2.40393 -28.839923,16.41683 -28.839923,33.39322 v 33.90234 h 16.015776 z m 0,0"
     id="path26"
     inkscape:connector-curvature="0"
     style="fill:#a4c9ff;stroke-width:0.61479062" />
  <path
     d="m 142.56579,246.87522 -0.002,0.002 c 0.0336,0.0192 0.0648,0.0408 0.0985,0.06 z m 0,0"
     id="path28"
     inkscape:connector-curvature="0"
     style="fill:#a4c9ff;stroke-width:0.61479062" />
  <path
     d="m 217.95689,255.71764 -26.61851,-17.70165 c -1.58981,-1.05667 -3.73438,-0.62439 -4.79345,0.96542 l -15.04075,22.61997 c -1.15033,1.72909 -3.48221,2.1998 -5.21131,1.04947 l -22.05081,-14.66132 c 3.99133,2.9923 6.58498,7.74732 6.58498,13.11953 v 37.95132 l 10.71561,7.12772 c 10.32896,6.86837 24.26982,4.06579 31.14299,-6.26077 l 26.23426,-39.41624 c 1.05908,-1.58981 0.6268,-3.73678 -0.96301,-4.79345 z m 0,0"
     id="path30"
     inkscape:connector-curvature="0"
     style="fill:#a4c9ff;stroke-width:0.61479062" />
  <path
     d="m 173.94653,312.39605 c -4.74061,0.002 -9.52925,-1.34726 -13.76315,-4.16184 l -10.71801,-7.12533 c -0.68443,-0.45389 -1.09749,-1.22238 -1.09749,-2.0485 v -37.95132 c 0,-4.4188 -2.0413,-8.48218 -5.60036,-11.15268 -1.06388,-0.79731 -1.30163,-2.29826 -0.53314,-3.38615 0.76848,-1.08549 2.26224,-1.36407 3.36934,-0.6268 l 22.05081,14.66131 c 0.28818,0.19213 0.634,0.25937 0.97502,0.19213 0.33861,-0.0697 0.634,-0.26657 0.82613,-0.55475 l 15.04315,-22.62238 c 0.87416,-1.31603 2.20941,-2.2118 3.75839,-2.524 1.54898,-0.3146 3.12679,-0.002 4.44042,0.87415 l 26.62092,17.70165 v -0.002 c 1.31603,0.87656 2.2118,2.21181 2.524,3.76079 0.3122,1.54899 0,3.12679 -0.87416,4.44282 l -26.23667,39.41871 c -4.79345,7.20217 -12.71848,11.10465 -20.7852,11.10465 z m -20.66033,-14.65171 9.62051,6.39526 c 9.18344,6.10468 21.62334,3.60469 27.73282,-5.57394 l 26.23427,-39.41864 c 0.19933,-0.29779 0.18011,-0.59798 0.14889,-0.74928 -0.0288,-0.14889 -0.12728,-0.43467 -0.42506,-0.6316 v -0.002 l -26.62091,-17.69925 c -0.3002,-0.19932 -0.60039,-0.18011 -0.74688,-0.14649 -0.1513,0.0288 -0.43708,0.12728 -0.63401,0.42507 l -15.04315,22.62237 c -0.91979,1.38328 -2.32228,2.32468 -3.95051,2.65369 -1.63064,0.3242 -3.28769,0.002 -4.67097,-0.91978 l -12.18294,-8.10035 c 0.35542,1.45532 0.53794,2.96588 0.53794,4.51006 z m 0,0"
     id="path32"
     inkscape:connector-curvature="0"
     style="fill:#3762cc;stroke-width:0.61479062" />
  <path
     d="m 142.65705,249.39682 c -0.41547,0 -0.83333,-0.10566 -1.21757,-0.3242 -0.0288,-0.0192 -0.10327,-0.0624 -0.13209,-0.0793 -0.59798,-0.33382 -1.00143,-0.88616 -1.16234,-1.55379 -0.1633,-0.66762 -0.01,-1.35446 0.37224,-1.92602 0.74928,-1.12632 2.27184,-1.43371 3.40056,-0.69164 l 0.0961,0.0624 c 1.1095,0.73006 1.43851,2.2094 0.74207,3.34052 -0.46109,0.75408 -1.27041,1.17194 -2.09893,1.17194 z m 0,0"
     id="path34"
     inkscape:connector-curvature="0"
     style="fill:#3762cc;stroke-width:0.61479062" />
  <path
     d="m 142.56579,246.87522 -0.002,0.002 c 0.0336,0.0192 0.0648,0.0408 0.0985,0.06 z m 0,0"
     id="path36"
     inkscape:connector-curvature="0"
     style="fill:#a4c9ff;stroke-width:0.61479062" />
  <path
     d="m 217.95689,255.71764 -26.61851,-17.70165 c -1.58981,-1.05667 -3.73438,-0.62439 -4.79345,0.96542 l -15.04075,22.61997 c -1.15033,1.72909 -3.48221,2.1998 -5.21131,1.04947 l -22.05081,-14.66132 c 3.99133,2.9923 6.58498,7.74732 6.58498,13.11953 v 37.95132 l 10.71561,7.12772 c 10.32896,6.86837 24.26982,4.06579 31.14299,-6.26077 l 26.23426,-39.41624 c 1.05908,-1.58981 0.6268,-3.73678 -0.96301,-4.79345 z m 0,0"
     id="path38"
     inkscape:connector-curvature="0"
     style="fill:#a4c9ff;stroke-width:0.61479062" />
  <path
     d="m 173.94653,312.39605 c -4.74061,0.002 -9.52925,-1.34726 -13.76315,-4.16184 l -10.71801,-7.12533 c -0.68443,-0.45389 -1.09749,-1.22238 -1.09749,-2.0485 v -37.95132 c 0,-4.4188 -2.0413,-8.48218 -5.60036,-11.15268 -1.06388,-0.79731 -1.30163,-2.29826 -0.53314,-3.38615 0.76848,-1.08549 2.26224,-1.36407 3.36934,-0.6268 l 22.05081,14.66131 c 0.28818,0.19213 0.634,0.25937 0.97502,0.19213 0.33861,-0.0697 0.634,-0.26657 0.82613,-0.55475 l 15.04315,-22.62238 c 0.87416,-1.31603 2.20941,-2.2118 3.75839,-2.524 1.54898,-0.3146 3.12679,-0.002 4.44042,0.87415 l 26.62092,17.70165 v -0.002 c 1.31603,0.87656 2.2118,2.21181 2.524,3.76079 0.3122,1.54899 0,3.12679 -0.87416,4.44282 l -26.23667,39.41871 c -4.79345,7.20217 -12.71848,11.10465 -20.7852,11.10465 z m -20.66033,-14.65171 9.62051,6.39526 c 9.18344,6.10468 21.62334,3.60469 27.73282,-5.57394 l 26.23427,-39.41864 c 0.19933,-0.29779 0.18011,-0.59798 0.14889,-0.74928 -0.0288,-0.14889 -0.12728,-0.43467 -0.42506,-0.6316 v -0.002 l -26.62091,-17.69925 c -0.3002,-0.19932 -0.60039,-0.18011 -0.74688,-0.14649 -0.1513,0.0288 -0.43708,0.12728 -0.63401,0.42507 l -15.04315,22.62237 c -0.91979,1.38328 -2.32228,2.32468 -3.95051,2.65369 -1.63064,0.3242 -3.28769,0.002 -4.67097,-0.91978 l -12.18294,-8.10035 c 0.35542,1.45532 0.53794,2.96588 0.53794,4.51006 z m 0,0"
     id="path40"
     style="fill:#000000;stroke-width:0.61479062"
     inkscape:connector-curvature="0" />
  <path
     d="m 142.65705,249.39682 c -0.41547,0 -0.83333,-0.10566 -1.21757,-0.3242 -0.0288,-0.0192 -0.10327,-0.0624 -0.13209,-0.0793 -0.59798,-0.33382 -1.00143,-0.88616 -1.16234,-1.55379 -0.1633,-0.66762 -0.01,-1.35446 0.37224,-1.92602 0.74928,-1.12632 2.27184,-1.43371 3.40056,-0.69164 l 0.0961,0.0624 c 1.1095,0.73006 1.43851,2.2094 0.74207,3.34052 -0.46109,0.75408 -1.27041,1.17194 -2.09893,1.17194 z m 0,0"
     id="path42"
     inkscape:connector-curvature="0"
     style="fill:#3762cc;stroke-width:0.61479062" />
  <path
     d="M 150.82704,339.2307 H 57.304421 c -1.356863,0 -2.459163,-1.1023 -2.459163,-2.45916 v -43.89269 c 0,-0.35302 0.07445,-0.68683 0.206531,-0.98943 v -30.78036 c 0,-10.4034 8.462977,-18.86638 18.863985,-18.86638 h 60.508846 c 10.40101,0 18.86158,8.46298 18.86158,18.86638 v 75.66248 c 0,1.35686 -1.0999,2.45916 -2.45916,2.45916 z m -91.063457,-4.91832 h 88.604297 v -73.20332 c 0,-7.68968 -6.25598,-13.94806 -13.94326,-13.94806 H 73.915774 c -7.689686,0 -13.94566,6.25838 -13.94566,13.94806 v 31.76979 c 0,0.35062 -0.07445,0.68444 -0.206531,0.98703 z m 0,0"
     id="path44"
     style="fill:#000000;stroke-width:0.61479062"
     inkscape:connector-curvature="0" />
  <path
     d="M 57.304421,339.2307 H 41.495176 c -1.356862,0 -2.459162,-1.1023 -2.459162,-2.45916 v -58.27062 c 0,-17.82653 13.302051,-33.22752 30.941258,-35.82837 1.311233,-0.19212 2.536011,0.68443 2.776164,1.98606 0.240152,1.30163 -0.590776,2.56003 -1.882796,2.84581 -6.316014,1.4097 -10.898124,7.12773 -10.898124,13.60225 v 51.29418 c 0,0.35303 -0.07445,0.68684 -0.206532,0.98943 v 23.38126 c -0.0024,1.35686 -1.1023,2.45916 -2.461563,2.45916 z m -13.350082,-4.91832 h 10.890919 v -21.90912 c 0,-0.35303 0.07445,-0.68684 0.206531,-0.98944 v -50.30476 c 0,-2.75455 0.614791,-5.40583 1.719493,-7.80976 -7.800156,5.76367 -12.816943,15.02635 -12.816943,25.20162 z m 0,0"
     id="path46"
     style="fill:#000000;stroke-width:0.61479062"
     inkscape:connector-curvature="0" />
  <path
     d="M 87.861435,175.63156 H 50.498496 c -1.592211,0 -2.884232,-1.29203 -2.884232,-2.88423 v -13.56382 c 0,-19.79818 16.051798,-35.84758 35.849977,-35.84758 h 21.604129 c 4.75021,0 8.60226,3.85205 8.60226,8.60226 v 17.88177 c 0.002,14.25545 -11.55374,25.8116 -25.809195,25.8116 z m 0,0"
     id="path52"
     inkscape:connector-curvature="0"
     style="fill:#4671c6;stroke-width:0.61479062" />
  <path
     d="m 101.93437,244.27677 c -19.440346,0 -36.190988,-12.76411 -41.416708,-31.28467 -3.616698,-0.1585 -6.84675,-1.77714 -10.026371,-4.99278 -2.744943,-2.77856 -4.257905,-6.27278 -4.257905,-9.84145 0.0024,-7.43512 5.501896,-13.60945 12.641632,-14.67813 v -1.52497 c 0,-23.74388 19.315472,-43.05695 43.059352,-43.05695 23.74149,0 43.05456,19.31307 43.05456,43.05695 v 1.52977 c 6.99564,1.06148 12.48313,7.09171 12.63923,14.35152 0.0768,3.52304 -1.35446,7.02687 -4.02255,9.86067 -3.22285,3.41737 -6.52495,5.13446 -10.25693,5.29776 -5.22572,18.51817 -21.97636,31.28228 -41.41431,31.28228 z M 62.410064,208.01613 c 1.131119,0 2.130154,0.7781 2.39192,1.89961 4.044169,17.33661 19.31307,29.44271 37.132386,29.44271 17.81453,0 33.08342,-12.1061 37.12759,-29.44271 0.28339,-1.20797 1.43612,-2.02208 2.65609,-1.88519 2.16618,0.22573 4.83907,-0.0288 8.30688,-3.70556 1.77953,-1.89 2.73534,-4.15704 2.68491,-6.38326 -0.11528,-5.33859 -4.54849,-9.68535 -9.88949,-9.70456 -0.0648,0.002 -0.21374,0.012 -0.23775,0.012 -0.71806,0.024 -1.30163,-0.23774 -1.77232,-0.70124 -0.4731,-0.4635 -0.73968,-1.0975 -0.73968,-1.75792 v -3.83523 c 0,-21.03017 -17.10846,-38.13863 -38.13623,-38.13863 -21.032557,0 -38.141027,17.10846 -38.141027,38.13863 v 3.83523 c 0,0.66042 -0.266569,1.29442 -0.737269,1.75792 -0.461093,0.45148 -1.078285,0.70124 -1.721893,0.70124 -0.05284,0 -0.228145,-0.01 -0.285782,-0.012 -5.441857,0 -9.894286,4.45002 -9.896688,9.9231 0,2.26464 1.00624,4.53168 2.836202,6.38085 3.436584,3.47261 6.054247,3.70556 8.160385,3.48943 0.08646,-0.01 0.175311,-0.0144 0.261766,-0.0144 z m 0,0"
     id="path54"
     style="fill:#000000;stroke-width:0.61479062"
     inkscape:connector-curvature="0" />
  <path
     inkscape:connector-curvature="0"
     style="fill:#000000;stroke-width:0.61479062"
     id="path60"
     d="m 142.03025,175.63156 c 0.32421,2.06051 0.49952,4.16905 0.49952,6.32082 v 3.83763 c 0.0864,-0.002 0.17051,-0.0144 0.25696,-0.0144 2.40393,0 4.63975,0.69644 6.53935,1.8804 v -12.02444 z m 0,0" />
  <path
     inkscape:connector-curvature="0"
     style="fill:#000000;stroke-width:0.61479062"
     id="path62"
     d="M 54.542666,175.63156 V 187.656 c 1.899607,-1.18395 4.133025,-1.88039 6.536953,-1.88039 0.08646,0 0.170508,0.012 0.256964,0.0144 v -3.83763 c 0,-2.15177 0.177712,-4.26271 0.499517,-6.32082 z m 0,0" />
  <path
     inkscape:connector-curvature="0"
     style="fill:#000000;stroke-width:0.61479062"
     id="path64"
     d="m 131.93663,175.63156 h 21.44323 c 1.58741,0 2.87223,-1.28722 2.87223,-2.87223 v -16.40002 c 0,-18.23718 -14.7862,-33.02098 -33.02339,-33.02098 h -1.02545 c -4.75742,0 -8.61427,3.85685 -8.61427,8.61428 v 25.33129 c 0,10.13204 8.21562,18.34766 18.34765,18.34766 z m 0,0" />
  <path
     inkscape:connector-curvature="0"
     style="fill:#000000;stroke-width:0.61479062"
     id="path66"
     d="M 87.861435,175.63156 H 50.498496 c -1.592211,0 -2.884232,-1.29202 -2.884232,-2.88423 v -13.56382 c 0,-19.79818 16.051798,-35.84757 35.849977,-35.84757 h 21.604129 c 4.75021,0 8.60226,3.85204 8.60226,8.60226 v 17.88176 c 0.002,14.25546 -11.55374,25.8116 -25.809195,25.8116 z m 0,0" />
  <path
     d="m 153.37986,178.09072 h -21.44323 c -11.47208,0 -20.80681,-9.33473 -20.80681,-20.80682 v -25.33369 c 0,-6.10709 4.96876,-11.07344 11.07343,-11.07344 h 1.02545 c 19.56523,0 35.48255,15.91731 35.48255,35.48254 v 16.40002 c 0,2.93947 -2.39192,5.33139 -5.33139,5.33139 z M 122.20325,125.7951 c -3.39335,0 -6.1551,2.76175 -6.1551,6.15511 v 25.33369 c 0,8.76077 7.12772,15.8885 15.88848,15.8885 h 21.44323 c 0.22814,0 0.41307,-0.18492 0.41307,-0.41307 v -16.40002 c 0,-16.85151 -13.71272,-30.56182 -30.56423,-30.56182 h -1.02545 z m 0,0"
     id="path70"
     style="fill:#000000;stroke-width:0.61479062"
     inkscape:connector-curvature="0" />
  <path
     d="M 87.861435,178.09072 H 50.498496 c -2.946672,0 -5.343394,-2.39672 -5.343394,-5.34339 v -13.56382 c 0,-21.12142 17.187719,-38.30674 38.309139,-38.30674 h 21.604129 c 6.09988,0 11.06143,4.96155 11.06143,11.06142 v 17.88177 c 0.002,15.5883 -12.68006,28.27076 -28.268365,28.27076 z M 83.464241,125.7951 c -18.410097,0 -33.388413,14.97831 -33.388413,33.38841 v 13.56382 c 0,0.23534 0.18972,0.42507 0.42507,0.42507 h 37.360537 c 12.876975,0 23.352435,-10.47546 23.352435,-23.35244 V 131.9406 c 0,-3.38856 -2.75455,-6.14311 -6.1431,-6.14311 H 83.464241 Z m 0,0"
     id="path72"
     style="fill:#000000;stroke-width:0.61479062"
     inkscape:connector-curvature="0" />
  <path
     d="m 101.93437,241.81761 c -7.319845,0 -14.178602,-1.94524 -20.105568,-5.33619 V 253.136 c 0,2.99951 2.034092,5.42985 4.538883,5.42985 h 31.133385 c 2.50478,0 4.53888,-2.43034 4.53888,-5.42985 v -16.65458 c -5.92937,3.38855 -12.78573,5.33619 -20.10558,5.33619 z m 0,0"
     id="path74"
     inkscape:connector-curvature="0"
     style="fill:#f9cfcf;stroke-width:0.61479062" />
  <path
     d="M 117.50107,261.02741 H 86.367685 c -3.859251,0 -6.998046,-3.53984 -6.998046,-7.89141 v -16.65458 c 0,-0.87656 0.468298,-1.68587 1.224778,-2.12775 0.761284,-0.43708 1.695478,-0.43948 2.456761,-0.007 5.732443,3.28049 12.262191,5.01199 18.883192,5.01199 6.61861,0 13.14836,-1.7339 18.8832,-5.01199 0.75888,-0.43467 1.69548,-0.43467 2.45436,0.007 0.75888,0.43948 1.22478,1.25119 1.22478,2.12775 V 253.136 c 0.002,4.35157 -3.13639,7.89141 -6.99564,7.89141 z M 84.287964,240.49197 V 253.136 c 0,1.61382 0.953406,2.97309 2.079721,2.97309 h 31.133385 c 1.12631,0 2.07731,-1.35927 2.07731,-2.97309 v -12.64644 c -5.5283,2.48799 -11.55133,3.78721 -17.6464,3.78721 -6.092677,0 -12.118105,-1.29922 -17.644016,-3.7848 z m 0,0"
     id="path76"
     style="fill:#000000;stroke-width:0.61479062"
     inkscape:connector-curvature="0" />
  <path
     d="m 210.20716,250.57597 -12.63923,-8.5062 c -4.96635,-3.34293 -6.28239,-10.0768 -2.93946,-15.04316 l 11.09265,-16.48167 c 1.91401,-2.84341 5.76846,-3.59748 8.61187,-1.68347 l 20.32651,13.67909 c 2.84341,1.91402 3.59748,5.76847 1.68347,8.61187 l -11.09265,16.48408 c -3.34292,4.96635 -10.0792,6.27998 -15.04316,2.93946 z m 0,0"
     id="path78"
     inkscape:connector-curvature="0"
     style="fill:#f9cfcf;stroke-width:0.61479062" />
  <path
     d="m 216.23019,254.88671 c -2.61766,0 -5.17529,-0.77569 -7.3991,-2.26944 l -12.63683,-8.50861 c -6.08066,-4.0922 -7.70169,-12.37266 -3.60709,-18.45332 l 11.09265,-16.48408 c 1.29202,-1.92122 3.25407,-3.22044 5.52351,-3.66472 2.27184,-0.44188 4.58211,0.024 6.50093,1.31603 l 20.32411,13.67909 c 3.96492,2.6681 5.01919,8.06193 2.35109,12.02445 l -11.09265,16.48407 c -1.98125,2.94427 -4.99517,4.94234 -8.47978,5.62437 -0.85735,0.16811 -1.7219,0.25216 -2.57684,0.25216 z m -4.64935,-6.34963 c 1.85397,1.24879 4.08499,1.69787 6.28479,1.2704 2.195,-0.42747 4.0922,-1.68827 5.34339,-3.54464 l 11.09265,-16.48408 c 0.55716,-0.82853 0.75889,-1.82516 0.56677,-2.80738 -0.18973,-0.98223 -0.75168,-1.82996 -1.58261,-2.38712 l -20.32651,-13.68149 c -0.83093,-0.55956 -1.83237,-0.75888 -2.80979,-0.56916 -0.98222,0.19212 -1.82997,0.75407 -2.38712,1.585 l -11.09265,16.48168 c -2.58163,3.83283 -1.56099,9.04894 2.27185,11.62818 z m 0,0"
     id="path80"
     style="fill:#000000;stroke-width:0.61479062"
     inkscape:connector-curvature="0" />
  <path
     d="m 210.11591,247.44679 c -1.79154,-1.06388 -2.37992,-3.37655 -1.31604,-5.16569 l 47.91284,-80.71768 c 1.06388,-1.78914 3.37655,-2.37991 5.16568,-1.31604 1.79154,1.06148 2.37991,3.37415 1.31604,5.16568 l -47.91284,80.71529 c -1.06388,1.78913 -3.37655,2.37991 -5.16568,1.31844 z m 0,0"
     id="path82"
     inkscape:connector-curvature="0"
     style="fill:#e0ebfc;stroke-width:0.61479062" />
  <path
     d="m 209.3186,216.67604 11.42166,-1.32084 2.81699,24.37308 c 0.11527,1.00144 -0.60038,1.90441 -1.59942,2.01969 -5.30737,0.61479 -10.10802,-3.19163 -10.72281,-8.499 z m 0,0"
     id="path84"
     inkscape:connector-curvature="0"
     style="fill:#f9cfcf;stroke-width:0.61479062" />
  <path
     d="m 203.08904,246.8488 c -0.43708,0 -0.87896,-0.11527 -1.27521,-0.35542 l -8.29247,-5.0336 c -0.28577,-0.17531 -0.53314,-0.40586 -0.72766,-0.67723 -3.19163,-4.48845 -3.27568,-10.56671 -0.20653,-15.12721 l 11.09505,-16.48408 c 1.29202,-1.92122 3.25167,-3.22044 5.52351,-3.66472 2.27425,-0.44188 4.57971,0.024 6.49853,1.31364 l 0.93659,0.62919 c 0.1537,0.10567 0.29539,0.22815 0.42267,0.36264 l 5.47308,5.86692 c 0.36023,0.38425 0.58597,0.87416 0.64361,1.39529 l 2.81699,24.37548 c 0.27377,2.34389 -1.4145,4.47164 -3.76079,4.74302 -4.83668,0.55715 -9.36595,-1.82996 -11.75787,-5.74685 l -5.40584,7.39669 c -0.4755,0.65322 -1.22478,1.00624 -1.98366,1.00624 z m -6.55376,-9.31311 5.90055,3.58067 6.24397,-8.54222 -0.27138,-2.3583 c -0.012,-0.0961 -0.0168,-0.19213 -0.0168,-0.28578 0,-1.23199 0.92459,-2.29346 2.17818,-2.43755 1.34725,-0.16571 2.56964,0.80931 2.72333,2.16137 l 0.38425,3.31171 c 0.43467,3.73917 3.65032,6.49372 7.36067,6.38565 l -2.64648,-22.90815 -4.73101,-5.06962 -0.70124,-0.47311 c -1.71469,-1.15273 -4.04177,-0.69644 -5.1969,1.01585 l -11.09265,16.48408 c -1.84677,2.74014 -1.8828,6.35203 -0.13449,9.1354 z m 0,0"
     id="path86"
     style="fill:#000000;stroke-width:0.61479062"
     inkscape:connector-curvature="0" />
  <path
     d="m 149.32368,190.11516 c -0.45148,0 -0.90297,-0.12488 -1.30162,-0.37224 -1.58021,-0.98703 -3.39096,-1.50815 -5.23533,-1.50815 -0.0601,0.005 -0.19692,0.0144 -0.25696,0.0144 -0.64601,0 -1.26801,-0.25456 -1.7267,-0.70844 -0.4683,-0.4611 -0.73247,-1.0927 -0.73247,-1.75072 v -3.83523 c 0,-1.95484 -0.1585,-3.95291 -0.47069,-5.94138 -0.11048,-0.71085 0.0936,-1.43371 0.56195,-1.98126 0.4659,-0.54514 1.14793,-0.85974 1.86839,-0.85974 h 7.29343 c 1.35687,0 2.45916,1.1023 2.45916,2.45916 V 187.656 c 0,0.89337 -0.4851,1.71709 -1.2656,2.15177 -0.37224,0.20653 -0.7829,0.30739 -1.19356,0.30739 z m -4.33475,-6.63301 c 0.634,0.0961 1.2608,0.23294 1.87559,0.41066 v -5.80449 h -2.0533 c 0.11767,1.29683 0.17771,2.58885 0.17771,3.86406 z m 0,0"
     id="path92"
     style="fill:#000000;stroke-width:0.61479062"
     inkscape:connector-curvature="0" />
  <path
     d="m 54.542666,190.11516 c -0.410661,0 -0.821322,-0.10086 -1.193559,-0.3074 -0.782897,-0.43467 -1.265604,-1.25839 -1.265604,-2.15176 v -12.02444 c 0,-1.35686 1.099899,-2.45916 2.459163,-2.45916 H 61.8361 c 0.718056,0 1.400089,0.3146 1.868387,0.85974 0.468297,0.54755 0.672427,1.27041 0.559555,1.98126 -0.309797,1.98847 -0.468297,3.98654 -0.468297,5.94137 v 3.83524 c 0,0.65802 -0.264168,1.28962 -0.732466,1.75071 -0.468298,0.4635 -1.083088,0.72047 -1.760318,0.70845 -0.05043,0 -0.223342,-0.01 -0.271372,-0.0144 -1.798744,0 -3.609494,0.52112 -5.189697,1.50815 -0.396253,0.24736 -0.845338,0.37224 -1.299226,0.37224 z m 2.459162,-12.02444 v 5.80209 c 0.614791,-0.17772 1.241589,-0.3146 1.87319,-0.40827 v -1.52977 c 0,-1.2776 0.06004,-2.56723 0.180115,-3.86405 z m 0,0"
     id="path94"
     style="fill:#000000;stroke-width:0.61479062"
     inkscape:connector-curvature="0" />
  <path
     d="m 331.60189,322.51127 h -166.6803 c -2.75935,0 -4.99277,-2.23341 -4.99277,-4.99277 v -19.59885 c 0,-2.75935 2.23342,-4.99277 4.99277,-4.99277 h 166.6803 c 2.75695,0 4.99277,2.23342 4.99277,4.99277 v 19.59885 c 0,2.75936 -2.23582,4.99277 -4.99277,4.99277 z m 0,0"
     id="path96"
     inkscape:connector-curvature="0"
     style="fill:#e0ebfc;stroke-width:0.61479062" />
  <path
     d="m 174.73903,322.51127 h 147.04302 v 14.26027 H 174.73903 Z m 0,0"
     id="path98"
     inkscape:connector-curvature="0"
     style="fill:#e0ebfc;stroke-width:0.61479062" />
  <path
     d="m 331.60189,324.97284 h -166.6803 c -4.11141,0 -7.45433,-3.34292 -7.45433,-7.45434 v -19.59885 c 0,-4.11141 3.34292,-7.45434 7.45433,-7.45434 h 166.6803 c 4.11142,0 7.45434,3.34293 7.45434,7.45434 v 19.59885 c -0.002,4.11142 -3.34533,7.45434 -7.45434,7.45434 z m -166.6803,-29.5892 c -1.39769,0 -2.53601,1.13833 -2.53601,2.53601 v 19.59885 c 0,1.39769 1.13832,2.53602 2.53601,2.53602 h 166.6803 c 1.39769,0 2.53602,-1.13833 2.53602,-2.53602 v -19.59885 c 0,-1.39768 -1.13833,-2.53601 -2.53602,-2.53601 z m 0,0"
     id="path100"
     inkscape:connector-curvature="0"
     style="fill:#3762cc;stroke-width:0.61479062" />
  <path
     d="M 321.78205,339.2307 H 174.73903 c -1.35686,0 -2.45916,-1.1023 -2.45916,-2.45916 v -14.26027 c 0,-1.35686 1.1023,-2.45916 2.45916,-2.45916 h 147.04302 c 1.35686,0 2.45917,1.1023 2.45917,2.45916 v 14.26027 c 0,1.35686 -1.0999,2.45916 -2.45917,2.45916 z m -144.58386,-4.91832 h 142.1247 v -9.34194 h -142.1247 z m 0,0"
     id="path102"
     inkscape:connector-curvature="0"
     style="fill:#3762cc;stroke-width:0.61479062" />
  <path
     d="M 228.43474,268.33526 H 328.7825 c 1.49135,0 2.69692,1.20556 2.69692,2.69691 v 19.19539 c 0,1.48895 -1.20557,2.69692 -2.69692,2.69692 H 228.43474 c -1.48894,0 -2.69691,-1.20797 -2.69691,-2.69692 v -19.19539 c -0.002,-1.49135 1.20797,-2.69691 2.69691,-2.69691 z m 0,0"
     id="path104"
     inkscape:connector-curvature="0"
     style="fill:#6bdddd;stroke-width:0.61479062" />
  <path
     d="m 324.63506,292.92448 h -7.4015 v -24.59163 h 7.4015 z m 0,0"
     id="path106"
     inkscape:connector-curvature="0"
     style="fill:#ffea92;stroke-width:0.61479062" />
  <path
     d="M 328.7825,295.38364 H 228.43474 c -2.8434,0 -5.15607,-2.31267 -5.15607,-5.15608 v -19.19539 c 0,-2.84341 2.31267,-5.15608 5.15607,-5.15608 H 328.7825 c 2.84341,0 5.15608,2.31267 5.15608,5.15608 v 19.19539 c 0,2.84341 -2.31267,5.15608 -5.15608,5.15608 z M 228.43474,270.79202 c -0.13208,0 -0.24014,0.10806 -0.24014,0.23775 v 19.1954 c 0,0.13208 0.10806,0.24014 0.24014,0.24014 H 328.7801 c 0.13209,0 0.24015,-0.10806 0.24015,-0.24014 v -19.1954 c 0,-0.12969 -0.10806,-0.23775 -0.24015,-0.23775 z m 0,0"
     id="path108"
     inkscape:connector-curvature="0"
     style="fill:#3762cc;stroke-width:0.61479062" />
  <path
     d="m 242.66139,276.83426 h 63.58759 c 1.2416,0 2.25023,1.00624 2.25023,2.25022 v 3.09317 c 0,1.24159 -1.00863,2.24783 -2.25023,2.24783 h -63.58759 c -1.244,0 -2.25024,-1.00624 -2.25024,-2.24783 v -3.09317 c 0.002,-1.24398 1.00624,-2.25022 2.25024,-2.25022 z m 0,0"
     id="path110"
     inkscape:connector-curvature="0"
     style="fill:#e0ebfc;stroke-width:0.61479062" />
  <path
     d="m 249.38566,268.29924 c -0.32661,0 -0.64841,-0.0144 -0.97022,-0.0384 l -1.29682,0.002 c -6.82034,0 -12.36786,-6.78671 -12.36786,-15.12961 0,-8.3429 5.54752,-15.12961 12.36786,-15.12961 h 74.86756 c 1.85158,0 3.35974,1.64024 3.35974,3.65272 0,2.01488 -1.50576,3.65272 -3.35974,3.65272 H 247.8823 c -3.53264,0 -6.40727,3.51823 -6.40727,7.84098 0,4.32515 2.87463,7.84098 6.40727,7.84098 h 74.10388 c 1.85158,0 3.35974,1.64025 3.35974,3.65512 0,2.01248 -1.50576,3.65273 -3.35974,3.65273 z m 0,0"
     id="path112"
     inkscape:connector-curvature="0"
     style="fill:#4671c6;stroke-width:0.61479062" />
  <path
     d="m 321.98618,270.7584 h -72.60052 c -0.35303,0 -0.70365,-0.0144 -1.05187,-0.0384 l -1.21037,0.002 c -8.1796,0 -14.83182,-7.89141 -14.83182,-17.58877 0,-9.69976 6.65222,-17.59117 14.82702,-17.59117 h 74.86756 c 3.21084,0 5.8189,2.74253 5.8189,6.11428 0,3.37174 -2.60806,6.11188 -5.8189,6.11188 H 247.8823 c -2.13976,0 -3.94811,2.46397 -3.94811,5.38182 0,2.91785 1.80835,5.38182 3.94811,5.38182 h 74.10388 c 3.21084,0 5.8189,2.74254 5.8189,6.11428 0,3.37174 -2.60806,6.11189 -5.8189,6.11189 z m -73.57074,-4.95675 c 0.0601,0 0.11768,0.002 0.17531,0.007 0.26417,0.0192 0.52834,0.0312 0.79491,0.0312 h 72.60052 c 0.48031,0 0.90058,-0.55955 0.90058,-1.19596 0,-0.6364 -0.42267,-1.19356 -0.90058,-1.19356 H 247.8823 c -4.8895,0 -8.86884,-4.62293 -8.86884,-10.30255 0,-5.6796 3.97934,-10.30014 8.86884,-10.30014 h 74.10388 c 0.48031,0 0.90058,-0.55715 0.90058,-1.19356 0,-0.6364 -0.42267,-1.19355 -0.90058,-1.19355 h -74.86756 c -5.46347,0 -9.9087,5.68441 -9.9087,12.67045 0,6.98844 4.44282,12.67285 9.9087,12.67285 l 1.29202,-0.002 z m 0,0"
     id="path114"
     inkscape:connector-curvature="0"
     style="fill:#3762cc;stroke-width:0.61479062" />
  <path
     d="m 247.8823,245.30942 c -3.53264,0 -6.40727,3.51824 -6.40727,7.84099 0,4.32515 2.87463,7.84098 6.40727,7.84098 h 71.84885 v -15.68196 z m 0,0"
     id="path116"
     inkscape:connector-curvature="0"
     style="fill:#e0ebfc;stroke-width:0.61479062" />
  <path
     d="M 319.73115,263.45055 H 247.8823 c -4.8895,0 -8.86884,-4.62053 -8.86884,-10.30014 0,-5.67961 3.97934,-10.30015 8.86884,-10.30015 h 71.84885 c 1.35686,0 2.45916,1.1023 2.45916,2.45916 v 15.68197 c 0,1.35926 -1.1023,2.45916 -2.45916,2.45916 z M 247.8823,247.76859 c -2.13976,0 -3.94811,2.46397 -3.94811,5.38182 0,2.91786 1.80835,5.38182 3.94811,5.38182 h 69.38969 v -10.76364 z m 0,0"
     id="path118"
     inkscape:connector-curvature="0"
     style="fill:#3762cc;stroke-width:0.61479062" />
  <path
     d="m 249.52495,250.50633 v 25.14157 c 0,0.72046 0.89576,1.05428 1.36647,0.50913 l 5.25694,-6.07587 c 0.30499,-0.35302 0.85013,-0.36022 1.16233,-0.0144 l 5.64359,6.18633 c 0.4779,0.52593 1.35206,0.18731 1.35206,-0.52354 v -25.22084 h -14.78139 z m 0,0"
     id="path120"
     inkscape:connector-curvature="0"
     style="fill:#f9a7a7;stroke-width:0.61479062" />
</svg>
