<?xml version="1.0" encoding="UTF-8" standalone="no"?>
<svg
   xmlns:dc="http://purl.org/dc/elements/1.1/"
   xmlns:cc="http://creativecommons.org/ns#"
   xmlns:rdf="http://www.w3.org/1999/02/22-rdf-syntax-ns#"
   xmlns:svg="http://www.w3.org/2000/svg"
   xmlns="http://www.w3.org/2000/svg"
   xmlns:sodipodi="http://sodipodi.sourceforge.net/DTD/sodipodi-0.dtd"
   xmlns:inkscape="http://www.inkscape.org/namespaces/inkscape"
   id="Browser-Money-Setting"
   height="133.38254mm"
   viewBox="0 0 63.015376 63.015376"
   width="133.38254mm"
   version="1.1"
   sodipodi:docname="pengaturan_aplikasi.svg"
   inkscape:version="0.92.4 (5da689c313, 2019-01-14)">
  <metadata
     id="metadata75">
    <rdf:RDF>
      <cc:Work
         rdf:about="">
        <dc:format>image/svg+xml</dc:format>
        <dc:type
           rdf:resource="http://purl.org/dc/dcmitype/StillImage" />
        <dc:title></dc:title>
      </cc:Work>
    </rdf:RDF>
  </metadata>
  <defs
     id="defs73" />
  <sodipodi:namedview
     pagecolor="#ffffff"
     bordercolor="#666666"
     borderopacity="1"
     objecttolerance="10"
     gridtolerance="10"
     guidetolerance="10"
     inkscape:pageopacity="0"
     inkscape:pageshadow="2"
     inkscape:window-width="1920"
     inkscape:window-height="986"
     id="namedview71"
     showgrid="false"
     units="mm"
     inkscape:zoom="0.4609375"
     inkscape:cx="279.86441"
     inkscape:cy="256"
     inkscape:window-x="-11"
     inkscape:window-y="-11"
     inkscape:window-maximized="1"
     inkscape:current-layer="Browser-Money-Setting" />
  <circle
     style="fill:#fbbd5e;stroke-width:0.125"
     cx="31.507687"
     cy="31.507687"
     r="31.50775"
     id="circle2" />
  <g
     id="g922"
     transform="matrix(0.79209038,0,0,0.80112993,6.1607953,10.160338)">
    <path
       style="fill:#5aaae7"
       inkscape:connector-curvature="0"
       id="path2"
       d="m 51,10.01538 v 32 a 2.006,2.006 0 0 1 -2,2 H 5 a 2.006,2.006 0 0 1 -2,-2 v -32 z" />
    <path
       style="fill:#3d9ae2"
       inkscape:connector-curvature="0"
       id="path4"
       d="m 51,11.01538 v 31 a 2.006,2.006 0 0 1 -2,2 H 18 Z" />
    <path
       style="fill:#ff9811"
       inkscape:connector-curvature="0"
       id="path6"
       d="m 56.47,46.66538 a 12.589,12.589 0 0 1 -1.07,2.6 l 2.74,3.65 -4.24,4.24 -3.65,-2.74 a 12.589,12.589 0 0 1 -2.6,1.07 l -0.65,4.53 h -6 l -0.65,-4.53 a 12.589,12.589 0 0 1 -2.6,-1.07 l -3.65,2.74 -4.24,-4.24 2.74,-3.65 a 12.589,12.589 0 0 1 -1.07,-2.6 l -4.53,-0.65 v -6 l 4.53,-0.65 a 12.589,12.589 0 0 1 1.07,-2.6 l -2.74,-3.65 4.24,-4.24 3.65,2.74 a 12.589,12.589 0 0 1 2.6,-1.07 l 0.65,-4.53 h 6 l 0.65,4.53 a 12.589,12.589 0 0 1 2.6,1.07 l 0.75,-0.56 2.9,-2.18 4.24,4.24 -2.74,3.65 a 12.589,12.589 0 0 1 1.07,2.6 l 4.53,0.65 v 6 z" />
    <path
       style="fill:#ffd422"
       inkscape:connector-curvature="0"
       id="path8"
       d="m 51,37.37538 a 8.991,8.991 0 0 0 -16,5.64 8.262,8.262 0 0 0 0.06,1 9,9 0 1 0 15.94,-6.64 z" />
    <path
       style="fill:#ff5023"
       inkscape:connector-curvature="0"
       id="path10"
       d="m 51,4.01538 v 6 H 3 v -6 a 2.006,2.006 0 0 1 2,-2 h 44 a 2.006,2.006 0 0 1 2,2 z" />
    <path
       style="fill:#ff9811"
       inkscape:connector-curvature="0"
       id="path12"
       d="m 29.79,22.56538 a 6.159,6.159 0 0 1 -0.6,1.45 l 1.17,1.95 -1.41,1.41 -1.95,-1.17 a 6.159,6.159 0 0 1 -1.45,0.6 l -0.55,2.21 h -2 l -0.55,-2.21 a 6.159,6.159 0 0 1 -1.45,-0.6 l -1.95,1.17 -1.41,-1.41 1.17,-1.95 a 6.159,6.159 0 0 1 -0.6,-1.45 l -2.21,-0.55 v -2 l 2.21,-0.55 a 6.159,6.159 0 0 1 0.6,-1.45 l -1.17,-1.95 1.41,-1.41 1.95,1.17 a 6.159,6.159 0 0 1 1.45,-0.6 l 0.55,-2.21 h 2 l 0.55,2.21 a 6.159,6.159 0 0 1 1.45,0.6 l 1.95,-1.17 1.41,1.41 -1.17,1.95 a 6.159,6.159 0 0 1 0.6,1.45 l 2.21,0.55 v 2 z" />
    <circle
       style="fill:#ff5023"
       id="circle14"
       r="2"
       cy="21.015381"
       cx="24" />
    <g
       transform="translate(0,-0.98462007)"
       style="fill:#ff6243"
       id="g22">
      <circle
         id="circle16"
         r="2"
         cy="32"
         cx="14" />
      <circle
         id="circle18"
         r="2"
         cy="56"
         cx="14" />
      <path
         inkscape:connector-curvature="0"
         id="path20"
         d="m 11,42 a 2,2 0 1 0 2,2 2.006,2.006 0 0 0 -2,-2 z" />
    </g>
    <path
       inkscape:connector-curvature="0"
       id="path24"
       d="m 4,42.01538 v -31 h 46 v 16 h 2 v -23 a 3,3 0 0 0 -3,-3 H 5 a 3,3 0 0 0 -3,3 v 38 a 3,3 0 0 0 3,3 h 1 v -2 H 5 a 1,1 0 0 1 -1,-1 z m 1,-39 h 44 a 1,1 0 0 1 1,1 V 9.0153796 H 4 V 4.01538 a 1,1 0 0 1 1,-1 z" />
    <path
       inkscape:connector-curvature="0"
       id="path26"
       d="m 6,5.01538 h 2 v 2 H 6 Z" />
    <path
       inkscape:connector-curvature="0"
       id="path28"
       d="m 10,5.01538 h 2 v 2 h -2 z" />
    <path
       inkscape:connector-curvature="0"
       id="path30"
       d="m 14,5.01538 h 2 v 2 h -2 z" />
    <path
       inkscape:connector-curvature="0"
       id="path32"
       d="m 43,40.01538 h 2 a 1,1 0 0 1 1,1 h 2 a 3,3 0 0 0 -3,-3 v -1 h -2 v 1 a 3,3 0 0 0 0,6 h 2 a 1,1 0 0 1 0,2 h -2 a 1,1 0 0 1 -1,-1 h -2 a 3,3 0 0 0 3,3 v 1 h 2 v -1 a 3,3 0 0 0 0,-6 h -2 a 1,1 0 0 1 0,-2 z" />
    <path
       inkscape:connector-curvature="0"
       id="path34"
       d="m 44,33.01538 a 10,10 0 1 0 10,10 10.011,10.011 0 0 0 -10,-10 z m 0,18 a 8,8 0 1 1 8,-8 8.009,8.009 0 0 1 -8,8 z" />
    <path
       inkscape:connector-curvature="0"
       id="path36"
       d="m 61.142,39.02538 -3.907,-0.558 a 14,14 0 0 0 -0.657,-1.6 l 2.364,-3.152 a 1,1 0 0 0 -0.092,-1.307 l -4.244,-4.243 a 1,1 0 0 0 -1.306,-0.093 l -3.154,2.364 a 13.905,13.905 0 0 0 -1.6,-0.657 l -0.558,-3.906 A 1,1 0 0 0 47,25.01538 h -6 a 1,1 0 0 0 -0.99,0.859 l -0.558,3.906 a 13.905,13.905 0 0 0 -1.6,0.657 l -3.152,-2.364 a 1,1 0 0 0 -1.306,0.093 l -4.244,4.243 a 1,1 0 0 0 -0.092,1.307 l 2.364,3.152 a 14,14 0 0 0 -0.657,1.6 l -3.907,0.558 A 1,1 0 0 0 26,40.01538 v 6 a 1,1 0 0 0 0.858,0.99 l 3.907,0.558 a 14,14 0 0 0 0.657,1.6 l -2.364,3.152 a 1,1 0 0 0 0.092,1.307 l 4.244,4.243 a 1,1 0 0 0 1.306,0.093 l 3.153,-2.364 a 13.921,13.921 0 0 0 1.6,0.657 l 0.558,3.906 a 1,1 0 0 0 0.989,0.858 h 6 a 1,1 0 0 0 0.99,-0.859 l 0.558,-3.906 a 13.905,13.905 0 0 0 1.6,-0.657 l 3.152,2.364 a 1,1 0 0 0 1.306,-0.093 l 4.244,-4.243 a 1,1 0 0 0 0.092,-1.307 l -2.364,-3.152 a 14,14 0 0 0 0.657,-1.6 l 3.907,-0.558 A 1,1 0 0 0 62,46.01538 v -6 a 1,1 0 0 0 -0.858,-0.99 z m -1.142,6.123 -3.67,0.524 a 1,1 0 0 0 -0.818,0.71 11.939,11.939 0 0 1 -0.987,2.4 1,1 0 0 0 0.077,1.081 l 2.22,2.961 -3.016,3.016 -2.961,-2.225 a 1,1 0 0 0 -1.081,-0.077 12,12 0 0 1 -2.4,0.987 1,1 0 0 0 -0.71,0.819 l -0.521,3.671 h -4.266 l -0.523,-3.669 a 1,1 0 0 0 -0.71,-0.819 11.9,11.9 0 0 1 -2.4,-0.987 1,1 0 0 0 -1.081,0.077 l -2.961,2.22 -3.016,-3.016 2.22,-2.961 a 1,1 0 0 0 0.077,-1.081 11.939,11.939 0 0 1 -0.987,-2.4 1,1 0 0 0 -0.818,-0.71 L 28,45.14838 v -4.266 l 3.67,-0.524 a 1,1 0 0 0 0.818,-0.71 11.939,11.939 0 0 1 0.987,-2.4 1,1 0 0 0 -0.077,-1.081 l -2.22,-2.961 3.016,-3.016 2.961,2.22 a 1,1 0 0 0 1.081,0.077 12,12 0 0 1 2.4,-0.987 1,1 0 0 0 0.71,-0.819 l 0.521,-3.666 h 4.266 l 0.523,3.669 a 1,1 0 0 0 0.71,0.819 12,12 0 0 1 2.4,0.987 1,1 0 0 0 1.081,-0.077 l 2.961,-2.22 3.016,3.016 -2.224,2.961 a 1,1 0 0 0 -0.077,1.081 11.939,11.939 0 0 1 0.987,2.4 1,1 0 0 0 0.818,0.71 l 3.67,0.524 z" />
    <path
       inkscape:connector-curvature="0"
       id="path38"
       d="m 43,29.01538 h 2 v 2 h -2 z" />
    <path
       style="stroke-width:0.99984896"
       inkscape:connector-curvature="0"
       id="path40"
       d="m 33.386512,33.82338 1.414,-1.414 1.414,1.414 -1.414,1.414 z" />
    <path
       inkscape:connector-curvature="0"
       id="path42"
       d="m 30,42.01538 h 2 v 2 h -2 z" />
    <path
       style="stroke-width:0.99984896"
       inkscape:connector-curvature="0"
       id="path44"
       d="m 33.384,52.204868 1.414,-1.414 1.414,1.414 -1.414,1.414 z" />
    <path
       inkscape:connector-curvature="0"
       id="path46"
       d="m 43,55.01538 h 2 v 2 h -2 z" />
    <path
       style="stroke-width:0.99984896"
       inkscape:connector-curvature="0"
       id="path48"
       d="m 51.766488,52.20738 1.414,-1.414 1.414,1.414 -1.414,1.414 z" />
    <path
       inkscape:connector-curvature="0"
       id="path50"
       d="m 56,42.01538 h 2 v 2 h -2 z" />
    <path
       style="stroke-width:0.99984896"
       inkscape:connector-curvature="0"
       id="path52"
       d="m 51.769,33.825892 1.414,-1.414 1.414,1.414 -1.414,1.414 z" />
    <path
       inkscape:connector-curvature="0"
       id="path54"
       d="m 17.707,33.30838 -1.414,1.414 3,3 a 1,1 0 0 0 0.707,0.293 h 4 v -2 h -3.586 z" />
    <path
       inkscape:connector-curvature="0"
       id="path56"
       d="m 19.293,48.30838 -3,3 1.414,1.414 2.707,-2.707 H 24 v -2 h -4 a 1,1 0 0 0 -0.707,0.293 z" />
    <path
       inkscape:connector-curvature="0"
       id="path58"
       d="m 16,42.01538 h 8 v 2 h -8 z" />
    <path
       inkscape:connector-curvature="0"
       id="path60"
       d="m 14,34.01538 a 3,3 0 1 0 -3,-3 3,3 0 0 0 3,3 z m 0,-4 a 1,1 0 1 1 -1,1 1,1 0 0 1 1,-1 z" />
    <path
       inkscape:connector-curvature="0"
       id="path62"
       d="m 14,43.01538 a 3,3 0 1 0 -3,3 3,3 0 0 0 3,-3 z m -4,0 a 1,1 0 1 1 1,1 1,1 0 0 1 -1,-1 z" />
    <path
       inkscape:connector-curvature="0"
       id="path64"
       d="m 14,52.01538 a 3,3 0 1 0 3,3 3,3 0 0 0 -3,-3 z m 0,4 a 1,1 0 1 1 1,-1 1,1 0 0 1 -1,1 z" />
    <path
       inkscape:connector-curvature="0"
       id="path66"
       d="m 26.962,27.35238 1.474,0.884 a 1,1 0 0 0 1.221,-0.15 l 1.414,-1.414 a 1,1 0 0 0 0.151,-1.222 l -0.884,-1.473 c 0.087,-0.188 0.166,-0.379 0.237,-0.575 l 1.667,-0.417 a 1,1 0 0 0 0.758,-0.97 v -2 a 1,1 0 0 0 -0.758,-0.97 l -1.667,-0.417 c -0.071,-0.2 -0.15,-0.387 -0.237,-0.575 l 0.884,-1.473 a 1,1 0 0 0 -0.151,-1.222 l -1.414,-1.414 a 1,1 0 0 0 -1.221,-0.15 l -1.474,0.884 q -0.282,-0.132 -0.574,-0.238 l -0.418,-1.668 A 1,1 0 0 0 25,12.01538 h -2 a 1,1 0 0 0 -0.97,0.757 l -0.418,1.668 q -0.292,0.107 -0.574,0.238 l -1.474,-0.884 a 1,1 0 0 0 -1.221,0.15 l -1.414,1.414 a 1,1 0 0 0 -0.151,1.222 l 0.884,1.473 c -0.087,0.188 -0.166,0.379 -0.237,0.575 l -1.667,0.417 a 1,1 0 0 0 -0.758,0.97 v 2 a 1,1 0 0 0 0.758,0.97 l 1.667,0.417 c 0.071,0.2 0.15,0.387 0.237,0.575 l -0.884,1.473 a 1,1 0 0 0 0.151,1.222 l 1.414,1.414 a 1,1 0 0 0 1.221,0.15 l 1.474,-0.884 q 0.282,0.132 0.574,0.238 l 0.418,1.668 a 1,1 0 0 0 0.97,0.757 h 2 a 1,1 0 0 0 0.97,-0.757 l 0.418,-1.668 q 0.292,-0.106 0.574,-0.238 z m -1.668,-1.513 a 1,1 0 0 0 -0.711,0.723 l -0.363,1.453 h -0.44 l -0.363,-1.453 a 1,1 0 0 0 -0.711,-0.723 5,5 0 0 1 -1.2,-0.5 1,1 0 0 0 -1.016,0.008 l -1.29,0.768 -0.3,-0.3 0.77,-1.283 a 1,1 0 0 0 0.008,-1.016 4.983,4.983 0 0 1 -0.5,-1.2 1,1 0 0 0 -0.724,-0.71 L 17,21.23438 v -0.438 l 1.452,-0.364 a 1,1 0 0 0 0.724,-0.71 4.983,4.983 0 0 1 0.5,-1.2 1,1 0 0 0 -0.008,-1.016 l -0.768,-1.291 0.31,-0.309 1.283,0.769 a 1,1 0 0 0 1.016,0.008 5,5 0 0 1 1.2,-0.5 1,1 0 0 0 0.711,-0.723 l 0.36,-1.445 h 0.44 l 0.363,1.453 a 1,1 0 0 0 0.711,0.723 5,5 0 0 1 1.2,0.5 1,1 0 0 0 1.016,-0.008 l 1.29,-0.768 0.31,0.309 -0.77,1.283 a 1,1 0 0 0 -0.008,1.016 4.983,4.983 0 0 1 0.5,1.2 1,1 0 0 0 0.724,0.71 l 1.444,0.363 v 0.438 l -1.452,0.364 a 1,1 0 0 0 -0.724,0.71 4.983,4.983 0 0 1 -0.5,1.2 1,1 0 0 0 0.008,1.016 l 0.77,1.283 -0.31,0.309 -1.283,-0.769 a 1,1 0 0 0 -1.016,-0.008 5,5 0 0 1 -1.199,0.5 z" />
    <path
       inkscape:connector-curvature="0"
       id="path68"
       d="m 24,18.01538 a 3,3 0 1 0 3,3 3,3 0 0 0 -3,-3 z m 0,4 a 1,1 0 1 1 1,-1 1,1 0 0 1 -1,1 z" />
  </g>
</svg>
