<?xml version="1.0" encoding="UTF-8" standalone="no"?>
<svg
   xmlns:dc="http://purl.org/dc/elements/1.1/"
   xmlns:cc="http://creativecommons.org/ns#"
   xmlns:rdf="http://www.w3.org/1999/02/22-rdf-syntax-ns#"
   xmlns:svg="http://www.w3.org/2000/svg"
   xmlns="http://www.w3.org/2000/svg"
   xmlns:sodipodi="http://sodipodi.sourceforge.net/DTD/sodipodi-0.dtd"
   xmlns:inkscape="http://www.inkscape.org/namespaces/inkscape"
   id="Layer_35"
   enable-background="new 0 0 64 64"
   height="113"
   viewBox="0 0 14.125 14.125001"
   width="113"
   version="1.1"
   sodipodi:docname="jadwal_ujian.svg"
   inkscape:version="0.92.4 (5da689c313, 2019-01-14)">
  <metadata
     id="metadata51">
    <rdf:RDF>
      <cc:Work
         rdf:about="">
        <dc:format>image/svg+xml</dc:format>
        <dc:type
           rdf:resource="http://purl.org/dc/dcmitype/StillImage" />
        <dc:title></dc:title>
      </cc:Work>
    </rdf:RDF>
  </metadata>
  <defs
     id="defs49" />
  <sodipodi:namedview
     pagecolor="#ffffff"
     bordercolor="#666666"
     borderopacity="1"
     objecttolerance="10"
     gridtolerance="10"
     guidetolerance="10"
     inkscape:pageopacity="0"
     inkscape:pageshadow="2"
     inkscape:window-width="1920"
     inkscape:window-height="986"
     id="namedview47"
     showgrid="false"
     inkscape:zoom="1.84375"
     inkscape:cx="40.733565"
     inkscape:cy="3.4334046"
     inkscape:window-x="-11"
     inkscape:window-y="-11"
     inkscape:window-maximized="1"
     inkscape:current-layer="Layer_35"
     units="px" />
  <g
     id="g859"
     transform="matrix(0.22415121,0,0,0.22415121,1.4108639e-5,10.958851)">
    <circle
       id="circle2-8"
       r="31.50775"
       cy="-17.38269"
       cx="31.507687"
       style="fill:#fbbd5e;stroke-width:0.125" />
    <g
       transform="matrix(0.8600328,0,0,0.8600328,3.9866376,-44.903738)"
       id="g855">
      <path
         style="fill:#b4dd7f"
         inkscape:connector-curvature="0"
         d="M 48,13 V 23 H 34 V 11 h 14 z"
         id="path2" />
      <path
         style="fill:#e6e9ed"
         inkscape:connector-curvature="0"
         d="M 34,29 H 48 V 41 H 34 Z"
         id="path4" />
      <path
         style="fill:#aab2bd"
         inkscape:connector-curvature="0"
         d="M 61,53 51,59 V 53 47 Z"
         id="path6" />
      <path
         style="fill:#ffeaa7"
         inkscape:connector-curvature="0"
         d="m 51,53 v 6 H 22 L 21.96,58.99 C 21.99,58.83 22,58.67 22,58.5 V 53 Z"
         id="path8" />
      <path
         style="fill:#ff826e"
         inkscape:connector-curvature="0"
         d="m 22,47 h 29 v 6 H 22 Z"
         id="path10" />
      <path
         style="fill:#838f9b"
         inkscape:connector-curvature="0"
         d="m 15,38 v 2 18.5 C 15,60.43 13.43,62 11.5,62 10.54,62 9.66,61.61 9.03,60.97 8.39,60.34 8,59.46 8,58.5 V 38 Z"
         id="path12" />
      <path
         style="fill:#838f9b"
         inkscape:connector-curvature="0"
         d="m 22,53 v 5.5 c 0,0.17 -0.01,0.33 -0.04,0.49 C 21.73,60.69 20.26,62 18.5,62 17.54,62 16.66,61.61 16.03,60.97 15.39,60.34 15,59.46 15,58.5 V 40 38 h 3 v -4 h 4 v 6 7 z"
         id="path14" />
      <path
         style="fill:#e6e9ed"
         inkscape:connector-curvature="0"
         d="m 18,24 v 10 4 H 15 8 v -5 h 5.5 c 0.69,0 1.32,-0.28 1.77,-0.73 C 15.72,31.82 16,31.19 16,30.5 16,29.12 14.88,28 13.5,28 H 8 v -4 z"
         id="path16" />
      <path
         style="fill:#fcd770"
         inkscape:connector-curvature="0"
         d="M 22,34 H 18 V 24 H 8 v 4 h 5.5 c 1.38,0 2.5,1.12 2.5,2.5 0,0.69 -0.28,1.32 -0.73,1.77 C 14.82,32.72 14.19,33 13.5,33 H 8 6 C 3.79,33 2,31.21 2,29 V 26 C 2,20.48 6.48,16 12,16 h 3 2 c 5.52,0 10,4.48 10,10 v 10 c 0,2.21 -1.79,4 -4,4 h -1 z"
         id="path18" />
      <circle
         style="fill:#f0d0b4"
         cx="15"
         cy="9"
         r="7"
         id="circle20" />
      <path
         inkscape:connector-curvature="0"
         d="m 23,46 v -5 c 2.757,0 5,-2.243 5,-5 V 26 C 28,20.907 24.516,16.624 19.81,15.377 21.743,13.916 23,11.605 23,9 23,4.589 19.411,1 15,1 10.589,1 7,4.589 7,9 7,11.498 8.152,13.73 9.951,15.199 4.863,16.162 1,20.635 1,26 v 3 c 0,2.757 2.243,5 5,5 h 1 v 4 1 19.5 c 0,2.481 2.019,4.5 4.5,4.5 1.421,0 2.675,-0.675 3.5,-1.706 0.825,1.031 2.079,1.706 3.5,1.706 1.953,0 3.602,-1.258 4.224,-3 H 51.277 L 62.944,53 51.277,46 Z m 0,8 h 27 v 4 H 23 Z m 27,-6 v 4 H 23 V 48 Z M 9,9 c 0,-3.309 2.691,-6 6,-6 3.309,0 6,2.691 6,6 0,3.309 -2.691,6 -6,6 C 11.691,15 9,12.309 9,9 Z M 3,29 v -3 c 0,-4.962 4.038,-9 9,-9 h 3 2 c 4.962,0 9,4.038 9,9 v 10 c 0,1.654 -1.346,3 -3,3 V 23 H 21 V 33 H 19 V 23 H 7 v 4 H 5 v 2 h 8.5 c 0.827,0 1.5,0.673 1.5,1.5 0,0.827 -0.673,1.5 -1.5,1.5 H 6 C 4.346,32 3,30.654 3,29 Z m 10.5,5 C 15.43,34 17,32.43 17,30.5 17,28.57 15.43,27 13.5,27 H 9 v -2 h 8 V 30.5 37 H 9 v -3 z m -2,27 C 10.122,61 9,59.878 9,58.5 V 39 h 5 v 1 18.5 c 0,1.378 -1.122,2.5 -2.5,2.5 z m 7,0 C 17.122,61 16,59.878 16,58.5 V 40 39 h 3 v -4 h 2 V 58.5 C 21,59.878 19.878,61 18.5,61 Z M 52,57.234 V 48.766 L 59.056,53 Z"
         id="path22" />
      <path
         inkscape:connector-curvature="0"
         d="M 49,28 H 33 V 42 H 49 Z M 47,40 H 35 V 30 h 12 z"
         id="path24"
         style="fill:#ffff00" />
      <path
         inkscape:connector-curvature="0"
         d="M 49,13.414 53.707,8.707 52.293,7.293 49,10.586 V 10 H 33 V 24 H 49 Z M 35,22 V 12 h 12 v 0.586 l -6,6 -3.293,-3.293 -1.414,1.414 4.707,4.707 6,-6 V 22 Z"
         id="path26"
         style="fill:#ffff00" />
      <path
         inkscape:connector-curvature="0"
         d="m 51,28 h 12 v 2 H 51 Z"
         id="path28"
         style="fill:#00ffff" />
      <path
         inkscape:connector-curvature="0"
         d="m 51,22 h 12 v 2 H 51 Z"
         id="path30"
         style="fill:#00ffff" />
      <path
         inkscape:connector-curvature="0"
         d="m 51,18 h 12 v 2 H 51 Z"
         id="path32"
         style="fill:#00ffff" />
      <path
         inkscape:connector-curvature="0"
         d="m 51,14 h 12 v 2 H 51 Z"
         id="path34"
         style="fill:#00ffff" />
      <path
         inkscape:connector-curvature="0"
         d="m 55,10 h 8 v 2 h -8 z"
         id="path36"
         style="fill:#00ffff" />
      <path
         inkscape:connector-curvature="0"
         d="m 51,32 h 12 v 2 H 51 Z"
         id="path38"
         style="fill:#00ffff" />
      <path
         inkscape:connector-curvature="0"
         d="m 61,36 h 2 v 2 h -2 z"
         id="path40"
         style="fill:#00ffff" />
      <path
         inkscape:connector-curvature="0"
         d="m 51,36 h 8 v 2 h -8 z"
         id="path42"
         style="fill:#00ffff" />
      <path
         inkscape:connector-curvature="0"
         d="m 51,40 h 12 v 2 H 51 Z"
         id="path44"
         style="fill:#00ffff" />
    </g>
  </g>
</svg>
