<?xml version="1.0" encoding="UTF-8" standalone="no"?>
<svg
   xmlns:dc="http://purl.org/dc/elements/1.1/"
   xmlns:cc="http://creativecommons.org/ns#"
   xmlns:rdf="http://www.w3.org/1999/02/22-rdf-syntax-ns#"
   xmlns:svg="http://www.w3.org/2000/svg"
   xmlns="http://www.w3.org/2000/svg"
   xmlns:sodipodi="http://sodipodi.sourceforge.net/DTD/sodipodi-0.dtd"
   xmlns:inkscape="http://www.inkscape.org/namespaces/inkscape"
   id="Layer_5"
   enable-background="new 0 0 64 64"
   height="113"
   viewBox="0 0 14.124999 14.124999"
   width="113"
   version="1.1"
   sodipodi:docname="pengawas.svg"
   inkscape:version="0.92.4 (5da689c313, 2019-01-14)">
  <metadata
     id="metadata101">
    <rdf:RDF>
      <cc:Work
         rdf:about="">
        <dc:format>image/svg+xml</dc:format>
        <dc:type
           rdf:resource="http://purl.org/dc/dcmitype/StillImage" />
        <dc:title></dc:title>
      </cc:Work>
    </rdf:RDF>
  </metadata>
  <defs
     id="defs99" />
  <sodipodi:namedview
     pagecolor="#ffffff"
     bordercolor="#666666"
     borderopacity="1"
     objecttolerance="10"
     gridtolerance="10"
     guidetolerance="10"
     inkscape:pageopacity="0"
     inkscape:pageshadow="2"
     inkscape:window-width="1920"
     inkscape:window-height="986"
     id="namedview97"
     showgrid="false"
     inkscape:zoom="0.65186406"
     inkscape:cx="-251.98612"
     inkscape:cy="36.974883"
     inkscape:window-x="-11"
     inkscape:window-y="-11"
     inkscape:window-maximized="1"
     inkscape:current-layer="Layer_5"
     units="px" />
  <g
     id="g910"
     transform="matrix(0.2241512,0,0,0.2241512,1.4536173e-5,1.4986612e-5)">
    <circle
       id="circle2"
       r="31.507748"
       cy="31.507683"
       cx="31.507683"
       style="fill:#fbbd5e;stroke-width:0.125" />
    <g
       transform="matrix(0.71327593,0,0,0.69471873,7.9158226,7.9343804)"
       id="g94">
      <g
         id="g82">
        <g
           id="g4">
          <path
             style="fill:#e6e9ed"
             inkscape:connector-curvature="0"
             id="path2"
             d="m 62,10 v 8 c 0,1.1 -0.9,2 -2,2 h -4 l -3.59,3.59 C 52.15,23.85 51.79,24 51.41,24 50.63,24 50,23.37 50,22.59 V 20 h -2 c -1.1,0 -2,-0.9 -2,-2 v -8 c 0,-1.1 0.9,-2 2,-2 h 12 c 1.1,0 2,0.9 2,2 z" />
        </g>
        <g
           id="g8">
          <path
             style="fill:#ccd1d9"
             inkscape:connector-curvature="0"
             id="path6"
             d="M 13.34,52.68 14,54 10.74,55.09 C 9.38,55.54 8.4,56.66 8.1,58.01 L 8.03,58 H 6 C 4.9,58 4,57.1 4,56 v -4 h 9 l 0.02,-0.01 c 0.1,0.23 0.21,0.46 0.32,0.69 z" />
        </g>
        <g
           id="g12">
          <path
             style="fill:#ccd1d9"
             inkscape:connector-curvature="0"
             id="path10"
             d="m 30,52 v 4 c 0,1.1 -0.9,2 -2,2 H 25.97 L 25.9,58.01 C 25.6,56.66 24.62,55.54 23.26,55.09 L 20,54 20.66,52.68 c 0.11,-0.23 0.22,-0.46 0.32,-0.69 L 21,52 Z" />
        </g>
        <g
           id="g16">
          <path
             style="fill:#ccd1d9"
             inkscape:connector-curvature="0"
             id="path14"
             d="m 42,52 v 2 l -1.79,0.89 C 39,55.5 38.19,56.68 38.03,58 H 36 c -1.1,0 -2,-0.9 -2,-2 v -4 z" />
        </g>
        <g
           id="g20">
          <path
             style="fill:#ccd1d9"
             inkscape:connector-curvature="0"
             id="path18"
             d="m 60,52 v 4 c 0,1.1 -0.9,2 -2,2 H 55.97 C 55.81,56.68 55,55.5 53.79,54.89 L 52,54 v -2 z" />
        </g>
        <g
           id="g24">
          <path
             style="fill:#b4dd7f"
             inkscape:connector-curvature="0"
             id="path22"
             d="m 44.81,27.81 c -1.17,-1.17 -2.7,-1.92 -4.35,-2.13 l -2.83,-0.35 c -0.3,-0.04 -0.59,-0.12 -0.86,-0.24 L 36,32 32,28 28,32 27.22,24.99 c -0.24,0.1 -0.5,0.18 -0.77,0.22 -1.01,0.14 -2.23,0.38 -3.45,0.79 -2.39,0.8 -4.77,2.86 -5.65,3.68 -0.23,-0.37 -0.51,-0.71 -0.84,-1.01 L 12.17,24.81 12,25 l -3.84,3.84 5,4.5 c 1.18,1.07 2.72,1.66 4.32,1.66 1,0 1.99,-0.23 2.88,-0.68 l 2.61,-1.31 c 0.02,0.13 0.03,0.27 0.03,0.4 V 46 H 47 V 33.09 c 0,-1.98 -0.79,-3.88 -2.19,-5.28 z" />
        </g>
        <g
           id="g28">
          <path
             style="fill:#69d6f4"
             inkscape:connector-curvature="0"
             id="path26"
             d="M 30,40 V 52 H 21 L 20.98,51.99 C 21.65,50.42 22,48.72 22,47 22,45.62 21.44,44.37 20.54,43.46 19.63,42.56 18.38,42 17,42 15.62,42 14.37,42.56 13.46,43.46 12.56,44.37 12,45.62 12,47 c 0,1.72 0.35,3.42 1.02,4.99 L 13,52 H 4 V 40 c 0,-1.1 0.9,-2 2,-2 h 17 5 c 1.1,0 2,0.9 2,2 z" />
        </g>
        <g
           id="g32">
          <path
             style="fill:#69d6f4"
             inkscape:connector-curvature="0"
             id="path30"
             d="m 60,40 v 12 h -8 v -5 c 0,-2.76 -2.24,-5 -5,-5 -1.38,0 -2.63,0.56 -3.54,1.46 C 42.56,44.37 42,45.62 42,47 v 5 H 34 V 40 c 0,-1.1 0.9,-2 2,-2 h 5 6 11 c 1.1,0 2,0.9 2,2 z" />
        </g>
        <g
           id="g36">
          <path
             style="fill:#fcd770"
             inkscape:connector-curvature="0"
             id="path34"
             d="M 56,58.47 V 62 H 38 V 58.47 C 38,58.31 38.01,58.16 38.03,58 38.19,56.68 39,55.5 40.21,54.89 L 42,54 v 4 h 10 v -4 l 1.79,0.89 C 55,55.5 55.81,56.68 55.97,58 55.99,58.16 56,58.31 56,58.47 Z" />
        </g>
        <g
           id="g40">
          <path
             style="fill:#ff826e"
             inkscape:connector-curvature="0"
             id="path38"
             d="M 26,58.88 V 62 H 8 v -3.12 c 0,-0.3 0.03,-0.59 0.1,-0.87 0.3,-1.35 1.28,-2.47 2.64,-2.92 L 14,54 h 6 l 3.26,1.09 c 1.36,0.45 2.34,1.57 2.64,2.92 0.07,0.28 0.1,0.57 0.1,0.87 z" />
        </g>
        <g
           id="g44">
          <path
             style="fill:#b27946"
             inkscape:connector-curvature="0"
             id="path42"
             d="m 22,47 c 0,1.72 -0.35,3.42 -1.02,4.99 -0.1,0.23 -0.21,0.46 -0.32,0.69 L 20,54 H 14 L 13.34,52.68 C 13.23,52.45 13.12,52.22 13.02,51.99 12.35,50.42 12,48.72 12,47 12,45.62 12.56,44.37 13.46,43.46 14.37,42.56 15.62,42 17,42 c 1.38,0 2.63,0.56 3.54,1.46 0.9,0.91 1.46,2.16 1.46,3.54 z" />
        </g>
        <g
           id="g48">
          <path
             style="fill:#b27946"
             inkscape:connector-curvature="0"
             id="path46"
             d="m 52,54 v 4 H 42 v -4 -2 -5 c 0,-1.38 0.56,-2.63 1.46,-3.54 C 44.37,42.56 45.62,42 47,42 c 2.76,0 5,2.24 5,5 v 5 z" />
        </g>
        <g
           id="g52">
          <path
             style="fill:#a0d468"
             inkscape:connector-curvature="0"
             id="path50"
             d="M 28.54,23.85 32,28 28,32 27.22,24.99 c 0.55,-0.24 1.01,-0.64 1.32,-1.14 z" />
        </g>
        <g
           id="g56">
          <path
             style="fill:#a0d468"
             inkscape:connector-curvature="0"
             id="path54"
             d="M 36.77,25.09 36,32 32,28 35.42,23.89 c 0.32,0.52 0.79,0.94 1.35,1.2 z" />
        </g>
        <g
           id="g60">
          <path
             style="fill:#f0d0b4"
             inkscape:connector-curvature="0"
             id="path58"
             d="M 40.74,12.56 C 41.5,13.1 42,13.99 42,15 42,15.83 41.66,16.58 41.12,17.12 40.58,17.66 39.83,18 39,18 H 37.65 C 37.88,17.37 38,16.7 38,16 v -4 h 1 c 0.65,0 1.25,0.21 1.74,0.56 z" />
        </g>
        <g
           id="g64">
          <path
             style="fill:#656d78"
             inkscape:connector-curvature="0"
             id="path62"
             d="m 42,8.66 c 0,1.4 -0.44,2.77 -1.26,3.9 C 40.25,12.21 39.65,12 39,12 H 38 V 10 H 37.47 C 34.53,10 31.63,9.32 29,8 L 28.74,8.09 C 27.1,8.63 26,10.16 26,11.88 V 12 h -1 c -0.65,0 -1.25,0.21 -1.74,0.56 C 22.44,11.43 22,10.06 22,8.66 22,4.98 24.98,2 28.66,2 h 6.68 c 1.84,0 3.5,0.74 4.71,1.95 C 41.26,5.16 42,6.82 42,8.66 Z" />
        </g>
        <g
           id="g68">
          <path
             style="fill:#f0d0b4"
             inkscape:connector-curvature="0"
             id="path66"
             d="m 38,12 v 4 c 0,0.7 -0.12,1.37 -0.35,2 C 37.18,19.35 36.23,20.48 35,21.2 34.12,21.71 33.1,22 32,22 30.9,22 29.88,21.71 29,21.2 28.54,20.93 28.13,20.61 27.76,20.24 27.13,19.62 26.64,18.85 26.35,18 26.12,17.37 26,16.7 26,16 v -4 -0.12 c 0,-1.72 1.1,-3.25 2.74,-3.79 L 29,8 c 2.63,1.32 5.53,2 8.47,2 H 38 Z" />
        </g>
        <g
           id="g72">
          <path
             style="fill:#f0d0b4"
             inkscape:connector-curvature="0"
             id="path70"
             d="M 35.42,23.89 32,28 28.54,23.85 C 28.83,23.38 29,22.83 29,22.25 V 21.2 c 0.88,0.51 1.9,0.8 3,0.8 1.1,0 2.12,-0.29 3,-0.8 v 1.15 c 0,0.55 0.15,1.08 0.42,1.54 z" />
        </g>
        <g
           id="g76">
          <path
             style="fill:#f0d0b4"
             inkscape:connector-curvature="0"
             id="path74"
             d="M 26.35,18 H 25 c -1.66,0 -3,-1.34 -3,-3 0,-0.83 0.34,-1.58 0.88,-2.12 C 23,12.76 23.12,12.65 23.26,12.56 23.75,12.21 24.35,12 25,12 h 1 v 4 c 0,0.7 0.12,1.37 0.35,2 z" />
        </g>
        <g
           id="g80">
          <path
             style="fill:#f0d0b4"
             inkscape:connector-curvature="0"
             id="path78"
             d="M 12.17,24.81 12,25 8.16,28.84 5.92,26.82 C 5.33,26.3 5,25.55 5,24.77 5,24 5.31,23.31 5.81,22.81 6.31,22.31 7,22 7.77,22 h 0.18 c 0.68,0 1.33,0.25 1.84,0.7 z" />
        </g>
      </g>
      <g
         id="g92">
        <path
           inkscape:connector-curvature="0"
           id="path84"
           d="m 57,59 h 1 c 1.654,0 3,-1.346 3,-3 V 40 c 0,-1.654 -1.346,-3 -3,-3 H 48 V 33.094 C 48,30.832 47.119,28.705 45.519,27.105 44.194,25.78 42.44,24.922 40.581,24.69 L 37.752,24.336 C 36.753,24.211 36,23.358 36,22.352 v -0.615 c 0.991,-0.693 1.79,-1.636 2.315,-2.736 H 39 c 2.206,0 4,-1.794 4,-4 0,-1 -0.382,-1.904 -0.99,-2.605 C 42.649,11.255 43,9.986 43,8.663 43,4.438 39.563,1 35.337,1 H 28.662 C 24.438,1 21,4.438 21,8.663 c 0,1.323 0.351,2.593 0.99,3.732 C 21.382,13.096 21,14 21,15 c 0,2.206 1.794,4 4,4 h 0.685 c 0.525,1.1 1.324,2.043 2.315,2.736 v 0.509 c 0,0.99 -0.725,1.839 -1.687,1.974 -1.304,0.184 -2.525,0.464 -3.63,0.832 -2.026,0.675 -4.003,2.152 -5.211,3.173 -0.098,-0.102 -0.196,-0.205 -0.303,-0.3 L 10.45,21.952 C 9.761,21.338 8.872,21 7.948,21 H 7.768 C 5.69,21 4,22.69 4,24.768 c 0,1.066 0.455,2.087 1.247,2.8 l 7.243,6.519 C 13.861,35.32 15.632,36 17.477,36 18.628,36 19.78,35.728 20.81,35.213 L 22,34.618 V 37 H 6 c -1.654,0 -3,1.346 -3,3 v 16 c 0,1.654 1.346,3 3,3 h 1 v 2 H 1 v 2 H 63 V 61 H 57 Z M 14.236,52.236 C 13.427,50.619 13,48.809 13,47 c 0,-2.206 1.794,-4 4,-4 2.206,0 4,1.794 4,4 0,1.809 -0.427,3.619 -1.236,5.236 L 19.382,53 h -4.764 z m 7.317,0.895 C 21.574,53.089 21.588,53.043 21.609,53 H 29 v 3 c 0,0.552 -0.449,1 -1,1 h -1.383 c -0.539,-1.323 -1.62,-2.389 -3.036,-2.861 L 21.41,53.416 Z M 27,59 h 1 c 1.654,0 3,-1.346 3,-3 v -9 h 2 v 9 c 0,1.654 1.346,3 3,3 h 1 v 2 H 27 Z M 41,53.382 39.764,54 c -1.249,0.625 -2.146,1.714 -2.539,3 H 36 c -0.551,0 -1,-0.448 -1,-1 v -3 h 6 z m -2,5.09 c 0,-1.144 0.635,-2.171 1.658,-2.683 L 41,55.618 V 59 h 12 v -3.382 l 0.342,0.171 C 54.365,56.301 55,57.328 55,58.472 V 61 H 39 Z M 43,57 V 47 c 0,-2.206 1.794,-4 4,-4 2.206,0 4,1.794 4,4 v 10 z m 15,0 h -1.224 c -0.393,-1.286 -1.29,-2.375 -2.539,-3 L 53,53.382 V 53 h 6 v 3 c 0,0.552 -0.449,1 -1,1 z m 1,-17 v 11 h -6 v -4 c 0,-3.309 -2.691,-6 -6,-6 -3.309,0 -6,2.691 -6,6 v 4 H 35 V 40 c 0,-0.552 0.449,-1 1,-1 h 22 c 0.551,0 1,0.448 1,1 z M 35.45,25.422 c 0.081,0.067 0.168,0.126 0.254,0.187 l -0.468,4.213 -1.883,-1.883 z M 39,17 H 38.92 C 38.967,16.672 39,16.34 39,16 v -3 c 1.103,0 2,0.897 2,2 0,1.103 -0.897,2 -2,2 z m -14,0 c -1.103,0 -2,-0.897 -2,-2 0,-1.103 0.897,-2 2,-2 v 3 c 0,0.34 0.033,0.672 0.08,1 z m 0.084,-6 H 25 c -0.483,0 -0.939,0.099 -1.368,0.257 C 23.219,10.458 23,9.576 23,8.663 23,5.54 25.54,3 28.663,3 h 6.675 C 38.46,3 41,5.54 41,8.663 41,9.576 40.781,10.458 40.368,11.257 39.94,11.099 39.483,11 39,11 V 9 H 37.472 C 34.7,9 31.925,8.345 29.447,7.105 L 29.077,6.92 28.418,7.14 C 26.659,7.726 25.402,9.222 25.084,11 Z M 27,16 v -4.117 c 0,-1.251 0.771,-2.362 1.933,-2.804 2.515,1.19 5.285,1.848 8.067,1.915 V 16 c 0,2.757 -2.243,5 -5,5 -2.757,0 -5,-2.243 -5,-5 z m 5,7 c 0.707,0 1.388,-0.107 2.032,-0.303 0.031,0.36 0.099,0.711 0.22,1.039 L 32,26.438 29.72,23.702 c 0.125,-0.319 0.198,-0.658 0.238,-1.008 C 30.605,22.892 31.29,23 32,23 Z m -3.497,2.365 2.144,2.573 -1.883,1.883 -0.479,-4.309 c 0.072,-0.049 0.15,-0.092 0.218,-0.147 z M 6,24.768 C 6,23.793 6.793,23 7.768,23 h 0.18 c 0.434,0 0.851,0.159 1.174,0.447 l 1.597,1.42 -2.598,2.598 -1.536,-1.383 C 6.213,25.747 6,25.268 6,24.768 Z m 16.707,5.525 -1.414,1.414 c 0.221,0.221 0.395,0.485 0.515,0.771 l -1.892,0.946 c -1.962,0.981 -4.458,0.642 -6.087,-0.823 l -4.219,-3.797 2.607,-2.607 3.624,3.221 C 16.578,30.074 17,31.015 17,32 h 2 c 0,-0.724 -0.15,-1.431 -0.422,-2.087 1.056,-0.911 2.919,-2.358 4.738,-2.964 0.921,-0.307 1.948,-0.539 3.038,-0.705 l 0.881,7.935 4.765,-4.764 4.764,4.764 0.871,-7.841 2.698,0.337 c 1.42,0.178 2.76,0.833 3.772,1.845 C 45.327,29.741 46,31.366 46,33.094 V 37 h -4 v -3.586 c 0,-0.635 0.258,-1.258 0.707,-1.707 L 41.293,30.293 C 40.459,31.126 40,32.235 40,33.414 V 37 h -4 c -1.654,0 -3,1.346 -3,3 v 5 h -2 v -5 c 0,-1.654 -1.346,-3 -3,-3 h -4 v -3.586 c 0,-1.179 -0.459,-2.288 -1.293,-3.121 z M 6,39 h 22 c 0.551,0 1,0.448 1,1 V 51 H 22.378 C 22.774,49.703 23,48.354 23,47 c 0,-3.309 -2.691,-6 -6,-6 -3.309,0 -6,2.691 -6,6 0,1.354 0.226,2.703 0.622,4 H 5 V 40 C 5,39.448 5.449,39 6,39 Z M 5,56 v -3 h 7.391 c 0.021,0.043 0.035,0.088 0.056,0.131 l 0.143,0.285 -2.172,0.723 C 9.002,54.612 7.922,55.677 7.383,57 H 6 C 5.449,57 5,56.552 5,56 Z m 4,2.883 C 9,57.59 9.824,56.446 11.051,56.036 L 14.161,55 h 5.679 l 3.109,1.036 C 24.176,56.446 25,57.59 25,58.883 V 61 H 9 Z" />
        <path
           inkscape:connector-curvature="0"
           id="path86"
           d="m 49,11 h 10 v 2 H 49 Z" />
        <path
           inkscape:connector-curvature="0"
           id="path88"
           d="m 49,15 h 10 v 2 H 49 Z" />
        <path
           inkscape:connector-curvature="0"
           id="path90"
           d="M 60,7 H 48 c -1.654,0 -3,1.346 -3,3 v 8 c 0,1.654 1.346,3 3,3 h 1 v 1.586 c 0,1.331 1.083,2.414 2.414,2.414 0.645,0 1.251,-0.251 1.707,-0.707 L 56.414,21 H 60 c 1.654,0 3,-1.346 3,-3 V 10 C 63,8.346 61.654,7 60,7 Z m 1,11 c 0,0.551 -0.449,1 -1,1 h -4.414 l -3.879,3.879 C 51.469,23.117 51,22.924 51,22.586 V 19 h -3 c -0.551,0 -1,-0.449 -1,-1 v -8 c 0,-0.551 0.449,-1 1,-1 h 12 c 0.551,0 1,0.449 1,1 z" />
      </g>
    </g>
  </g>
</svg>
