<?xml version="1.0" encoding="UTF-8" standalone="no"?>
<svg
   xmlns:dc="http://purl.org/dc/elements/1.1/"
   xmlns:cc="http://creativecommons.org/ns#"
   xmlns:rdf="http://www.w3.org/1999/02/22-rdf-syntax-ns#"
   xmlns:svg="http://www.w3.org/2000/svg"
   xmlns="http://www.w3.org/2000/svg"
   xmlns:sodipodi="http://sodipodi.sourceforge.net/DTD/sodipodi-0.dtd"
   xmlns:inkscape="http://www.inkscape.org/namespaces/inkscape"
   id="Layer_1_1_"
   enable-background="new 0 0 64 64"
   height="113"
   viewBox="0 0 14.125001 14.125001"
   width="113"
   version="1.1"
   sodipodi:docname="bank_soal.svg"
   inkscape:version="0.92.4 (5da689c313, 2019-01-14)">
  <metadata
     id="metadata61">
    <rdf:RDF>
      <cc:Work
         rdf:about="">
        <dc:format>image/svg+xml</dc:format>
        <dc:type
           rdf:resource="http://purl.org/dc/dcmitype/StillImage" />
        <dc:title></dc:title>
      </cc:Work>
    </rdf:RDF>
  </metadata>
  <defs
     id="defs59" />
  <sodipodi:namedview
     pagecolor="#ffffff"
     bordercolor="#666666"
     borderopacity="1"
     objecttolerance="10"
     gridtolerance="10"
     guidetolerance="10"
     inkscape:pageopacity="0"
     inkscape:pageshadow="2"
     inkscape:window-width="1920"
     inkscape:window-height="986"
     id="namedview57"
     showgrid="false"
     inkscape:zoom="3.6875"
     inkscape:cx="12.998913"
     inkscape:cy="61.187899"
     inkscape:window-x="-11"
     inkscape:window-y="-11"
     inkscape:window-maximized="1"
     inkscape:current-layer="Layer_1_1_"
     units="px" />
  <g
     id="g867"
     transform="matrix(0.84718451,0,0,0.84718451,2.4238143e-5,2.4278597e-5)">
    <circle
       r="8.3364372"
       id="circle2-3"
       cy="8.3364086"
       cx="8.3364086"
       style="fill:#fbbd5e;stroke-width:0.03307297" />
    <g
       transform="matrix(0.22025319,0,0,0.24454697,1.4984354,0.95333332)"
       id="g864">
      <path
         d="m 31.507687,52.507687 v 8 l -23.9999995,-7 v -8 z"
         id="path2"
         inkscape:connector-curvature="0"
         style="fill:#db535b" />
      <path
         d="m 55.507687,45.507687 v 8 l -24,7 v -8 z"
         id="path4"
         inkscape:connector-curvature="0"
         style="fill:#db535b" />
      <path
         d="m 31.507687,38.507687 24,7 -24,7 -23.9999995,-7 z"
         id="path6"
         inkscape:connector-curvature="0"
         style="fill:#8360f4" />
      <path
         d="m 60.507687,8.5076875 h -6 v -6 z"
         id="path8"
         inkscape:connector-curvature="0"
         style="fill:#6599ed" />
      <path
         d="m 39.507687,8.5076875 h -6 v -6 z"
         id="path10"
         inkscape:connector-curvature="0"
         style="fill:#6599ed" />
      <path
         d="m 18.507687,8.5076875 h -6 v -6 z"
         id="path12"
         inkscape:connector-curvature="0"
         style="fill:#6599ed" />
      <path
         d="M 44.507687,24.507687 V 2.5076875 h 10 v 6 h 6 V 24.507687 Z"
         id="path14"
         inkscape:connector-curvature="0"
         style="fill:#71d2df" />
      <path
         d="M 23.507687,24.507687 V 2.5076875 h 10 v 6 h 6 V 24.507687 Z"
         id="path16"
         inkscape:connector-curvature="0"
         style="fill:#71d2df" />
      <path
         d="M 2.5076875,24.507687 V 2.5076875 h 9.9999995 v 6 h 6 V 24.507687 Z"
         id="path18"
         inkscape:connector-curvature="0"
         style="fill:#71d2df" />
      <path
         style="fill:#1a1a1a"
         inkscape:connector-curvature="0"
         id="path20"
         d="m 26.507687,11.507687 h 10 v 2 h -10 z" />
      <path
         style="fill:#1a1a1a"
         inkscape:connector-curvature="0"
         id="path22"
         d="m 26.507687,15.507687 h 10 v 2 h -10 z" />
      <path
         style="fill:#000000"
         inkscape:connector-curvature="0"
         id="path24"
         d="m 56.507687,53.507687 v -8 c 0,-0.444 -0.293,-0.835 -0.72,-0.96 l -23.28,-6.79 v -12.25 h 7 c 0.553,0 1,-0.448 1,-1 V 8.5076875 c 0,-0.265 -0.105,-0.52 -0.293,-0.707 l -6,-6 c -0.187,-0.188 -0.441,-0.293 -0.707,-0.293 h -10 c -0.553,0 -1,0.448 -1,1 V 24.507687 c 0,0.552 0.447,1 1,1 h 7 v 12.25 l -23.2799995,6.79 c -0.427,0.125 -0.72,0.516 -0.72,0.96 v 8 c 0,0.444 0.293,0.835 0.72,0.96 l 23.9999995,7 c 0.092,0.027 0.185,0.04 0.28,0.04 0.095,0 0.188,-0.013 0.28,-0.04 l 24,-7 c 0.427,-0.125 0.72,-0.516 0.72,-0.96 z m -22,-48.5859995 2.586,2.586 h -2.586 z m -10,-1.414 h 8 v 5 c 0,0.552 0.447,0.9999996 1,0.9999996 h 5 V 23.507687 h -14 z m 6,36.3329995 v 5.253 l -2.293,-2.293 -1.414,1.414 4,4 c 0.195,0.195 0.451,0.293 0.707,0.293 0.256,0 0.512,-0.098 0.707,-0.293 l 4,-4 -1.414,-1.414 -2.293,2.293 v -5.253 l 19.429,5.667 -20.429,5.958 -20.429,-5.958 z m -21.9999995,7 21.9999995,6.417 v 5.917 l -21.9999995,-6.417 z m 23.9999995,12.334 v -5.917 l 22,-6.417 v 5.917 z" />
      <path
         style="fill:#1a1a1a"
         inkscape:connector-curvature="0"
         id="path26"
         d="m 26.507687,7.5076875 h 4 v 1.9999996 h -4 z" />
      <path
         style="fill:#ffffff"
         inkscape:connector-curvature="0"
         id="path28"
         d="m 2.5076875,25.507687 h 7 c 0,2.757 2.2429995,5 4.9999995,5 h 3 c 1.654,0 3,1.346 3,3 v 1.586 l -2.293,-2.293 -1.414,1.414 4,4 c 0.195,0.195 0.451,0.293 0.707,0.293 0.256,0 0.512,-0.098 0.707,-0.293 l 4,-4 -1.414,-1.414 -2.293,2.293 v -1.586 c 0,-2.757 -2.243,-5 -5,-5 h -3 c -1.654,0 -3,-1.346 -3,-3 h 7 c 0.553,0 1,-0.448 1,-1 V 8.5076875 c 0,-0.265 -0.105,-0.52 -0.293,-0.707 l -6,-6 c -0.187,-0.188 -0.441,-0.293 -0.707,-0.293 H 2.5076875 c -0.553,0 -1,0.448 -1,1 V 24.507687 c 0,0.552 0.447,1 1,1 z M 13.507687,4.9216875 l 2.586,2.586 h -2.586 z m -9.9999995,-1.414 h 7.9999995 v 5 c 0,0.552 0.447,0.9999996 1,0.9999996 h 5 V 23.507687 H 3.5076875 Z" />
      <path
         style="fill:#1a1a1a"
         inkscape:connector-curvature="0"
         id="path30"
         d="m 5.5076875,11.507687 h 9.9999995 v 2 H 5.5076875 Z" />
      <path
         style="fill:#1a1a1a"
         inkscape:connector-curvature="0"
         id="path32"
         d="m 5.5076875,15.507687 h 9.9999995 v 2 H 5.5076875 Z" />
      <path
         style="fill:#1a1a1a"
         inkscape:connector-curvature="0"
         id="path34"
         d="m 5.5076875,19.507687 h 9.9999995 v 2 H 5.5076875 Z" />
      <path
         style="fill:#1a1a1a"
         inkscape:connector-curvature="0"
         id="path36"
         d="m 5.5076875,7.5076875 h 4 v 1.9999996 h -4 z" />
      <path
         style="fill:#ffffff"
         inkscape:connector-curvature="0"
         id="path38"
         d="M 61.507687,24.507687 V 8.5076875 c 0,-0.265 -0.105,-0.52 -0.293,-0.707 l -6,-6 c -0.187,-0.188 -0.441,-0.293 -0.707,-0.293 h -10 c -0.553,0 -1,0.448 -1,1 V 24.507687 c 0,0.552 0.447,1 1,1 h 7 c 0,1.654 -1.346,3 -3,3 h -3 c -2.757,0 -5,2.243 -5,5 v 1.586 l -2.293,-2.293 -1.414,1.414 4,4 c 0.195,0.195 0.451,0.293 0.707,0.293 0.256,0 0.512,-0.098 0.707,-0.293 l 4,-4 -1.414,-1.414 -2.293,2.293 v -1.586 c 0,-1.654 1.346,-3 3,-3 h 3 c 2.757,0 5,-2.243 5,-5 h 7 c 0.553,0 1,-0.448 1,-1 z m -6,-19.5859995 2.586,2.586 h -2.586 z m -10,18.5859995 V 3.5076875 h 8 v 5 c 0,0.552 0.447,0.9999996 1,0.9999996 h 5 V 23.507687 Z" />
      <path
         style="fill:#1a1a1a"
         inkscape:connector-curvature="0"
         id="path40"
         d="m 47.507687,11.507687 h 10 v 2 h -10 z" />
      <path
         style="fill:#1a1a1a"
         inkscape:connector-curvature="0"
         id="path42"
         d="m 47.507687,15.507687 h 10 v 2 h -10 z" />
      <path
         style="fill:#1a1a1a"
         inkscape:connector-curvature="0"
         id="path44"
         d="m 47.507687,19.507687 h 10 v 2 h -10 z" />
      <path
         style="fill:#1a1a1a"
         inkscape:connector-curvature="0"
         id="path46"
         d="m 47.507687,7.5076875 h 4 v 1.9999996 h -4 z" />
      <path
         style="fill:#1a1a1a"
         inkscape:connector-curvature="0"
         id="path48"
         d="m 26.507687,19.507687 h 2 v 2 h -2 z" />
      <path
         style="fill:#1a1a1a"
         inkscape:connector-curvature="0"
         id="path50"
         d="m 30.507687,19.507687 h 2 v 2 h -2 z" />
      <path
         style="fill:#1a1a1a"
         inkscape:connector-curvature="0"
         id="path52"
         d="m 34.507687,19.507687 h 2 v 2 h -2 z" />
    </g>
  </g>
</svg>
