<?xml version="1.0" encoding="UTF-8" standalone="no"?>
<svg
   xmlns:dc="http://purl.org/dc/elements/1.1/"
   xmlns:cc="http://creativecommons.org/ns#"
   xmlns:rdf="http://www.w3.org/1999/02/22-rdf-syntax-ns#"
   xmlns:svg="http://www.w3.org/2000/svg"
   xmlns="http://www.w3.org/2000/svg"
   xmlns:sodipodi="http://sodipodi.sourceforge.net/DTD/sodipodi-0.dtd"
   xmlns:inkscape="http://www.inkscape.org/namespaces/inkscape"
   height="113"
   viewBox="0 0 84.91552 84.75"
   width="113"
   version="1.1"
   id="svg114"
   sodipodi:docname="data_ujian.svg"
   inkscape:version="0.92.4 (5da689c313, 2019-01-14)">
  <metadata
     id="metadata120">
    <rdf:RDF>
      <cc:Work
         rdf:about="">
        <dc:format>image/svg+xml</dc:format>
        <dc:type
           rdf:resource="http://purl.org/dc/dcmitype/StillImage" />
        <dc:title></dc:title>
      </cc:Work>
    </rdf:RDF>
  </metadata>
  <defs
     id="defs118" />
  <sodipodi:namedview
     pagecolor="#ffffff"
     bordercolor="#666666"
     borderopacity="1"
     objecttolerance="10"
     gridtolerance="10"
     guidetolerance="10"
     inkscape:pageopacity="0"
     inkscape:pageshadow="2"
     inkscape:window-width="1920"
     inkscape:window-height="986"
     id="namedview116"
     showgrid="false"
     units="px"
     inkscape:zoom="1.9594192"
     inkscape:cx="192.96685"
     inkscape:cy="-53.600378"
     inkscape:window-x="-11"
     inkscape:window-y="-11"
     inkscape:window-maximized="1"
     inkscape:current-layer="svg114" />
  <g
     id="g927"
     transform="matrix(0.22415121,0,0,0.22415121,8.5506903e-5,8.8434454e-5)">
    <circle
       id="circle2"
       r="189.41571"
       cy="189.04611"
       cx="189.41533"
       style="fill:#6699ff;stroke-width:0.75146478" />
    <g
       transform="matrix(0.58054798,0,0,0.58054798,40.796184,134.13881)"
       id="g989">
      <path
         d="M 478.45312,288.36395 H 32.980469 c -14.078125,0 -25.488281,-11.41016 -25.488281,-25.48438 V -99.686827 c 0,-14.078123 11.410156,-25.488283 25.488281,-25.488283 H 478.45312 c 14.07422,0 25.48438,11.41016 25.48438,25.488283 V 262.87957 c 0,14.07422 -11.41016,25.48438 -25.48438,25.48438 z m 0,0"
         id="path2"
         inkscape:connector-curvature="0"
         style="fill:#ffd86e" />
      <path
         d="M 503.94141,-99.686827 V 262.87957 c 0,14.07422 -11.41016,25.48438 -25.48438,25.48438 h -31.13281 c 14.07812,0 25.48437,-11.41016 25.48437,-25.48438 V -99.686827 c 0,-14.074223 -11.40625,-25.484373 -25.48437,-25.484373 h 31.13281 c 14.07422,0 25.48438,11.41015 25.48438,25.484373 z m 0,0"
         id="path4"
         inkscape:connector-curvature="0"
         style="fill:#ffb509" />
      <path
         d="M 503.9375,226.96161 H 7.492188 v 35.91796 c 0,14.07422 11.410156,25.48438 25.488281,25.48438 H 478.45312 c 14.07422,0 25.48438,-11.41016 25.48438,-25.48438 z m 0,0"
         id="path6"
         inkscape:connector-curvature="0"
         style="fill:#838383" />
      <path
         d="m 503.94141,226.96161 v 35.91796 c 0,14.07422 -11.41016,25.48438 -25.48438,25.48438 h -31.13281 c 14.07812,0 25.48437,-11.41016 25.48437,-25.48438 v -35.91796 z m 0,0"
         id="path8"
         inkscape:connector-curvature="0"
         style="fill:#5a5a5a" />
      <path
         d="M 504.50781,-38.233702 H 8.046875 v -61.457032 c 0,-14.074216 11.410156,-25.484376 25.484375,-25.484376 h 445.49219 c 14.07422,0 25.48437,11.41016 25.48437,25.484376 z m 0,0"
         id="path10"
         inkscape:connector-curvature="0"
         style="fill:#acacac" />
      <path
         d="m 504.51172,-99.69464 v 61.464844 H 472.80859 V -99.69464 c 0,-14.06641 -11.40625,-25.47656 -25.48437,-25.47656 h 31.69922 c 14.07812,0 25.48828,11.41015 25.48828,25.47656 z m 0,0"
         id="path12"
         inkscape:connector-curvature="0"
         style="fill:#9c9c9c" />
      <path
         d="m 186.27734,288.36395 h 138.875 v 41.85937 h -138.875 z m 0,0"
         id="path14"
         inkscape:connector-curvature="0"
         style="fill:#5a5a5a" />
      <path
         d="m 370.15234,371.28582 h -228.875 c -2.75781,0 -4.99609,-2.23828 -4.99609,-4.99609 v -16.1875 c 0,-10.97656 8.90234,-19.87891 19.87891,-19.87891 h 199.11328 c 10.97656,0 19.875,8.90235 19.875,19.87891 v 16.1875 c 0,2.76172 -2.23438,4.9961 -4.9961,4.99609 z m 0,0"
         id="path16"
         inkscape:connector-curvature="0"
         style="fill:#838383" />
      <path
         d="m 375.14844,350.09832 v 16.19532 c 0,2.75781 -2.23828,4.99609 -4.9961,4.99609 h -17.63281 v -21.19141 c 0,-10.96875 -8.90234,-19.87109 -19.87109,-19.87109 h 22.6289 c 10.97266,0 19.8711,8.89844 19.8711,19.87109 z m 0,0"
         id="path18"
         inkscape:connector-curvature="0"
         style="fill:#5a5a5a" />
      <path
         d="m 295.47656,142.44598 h 162.25781 v 30.75391 H 295.47656 Z m 0,0"
         id="path20"
         inkscape:connector-curvature="0"
         style="fill:#64dcfc" />
      <path
         d="m 295.47656,224.10614 h 162.25781 v 30.75781 H 295.47656 Z m 0,0"
         id="path22"
         inkscape:connector-curvature="0"
         style="fill:#64dcfc" />
      <path
         d="m 438.55078,142.44598 h 19.18359 v 30.75391 h -19.18359 z m 0,0"
         id="path24"
         inkscape:connector-curvature="0"
         style="fill:#00d1fc" />
      <path
         d="m 438.55078,224.10614 h 19.18359 v 30.75781 h -19.18359 z m 0,0"
         id="path26"
         inkscape:connector-curvature="0"
         style="fill:#00d1fc" />
      <g
         id="g34"
         style="fill:#0396fd"
         transform="translate(0,-133.16729)">
        <path
           d="m 471.17187,275.61328 h -189.1289 c -4,0 -7.2461,-3.24219 -7.2461,-7.24219 v -36.41797 c 0,-4 3.2461,-7.24609 7.2461,-7.24609 h 189.1289 c 4,0 7.2461,3.24609 7.2461,7.24609 v 36.41797 c 0,4 -3.2461,7.24219 -7.2461,7.24219 z m 0,0"
           id="path28"
           inkscape:connector-curvature="0" />
        <path
           d="m 471.17187,357.27344 h -189.1289 c -4,0 -7.2461,-3.24219 -7.2461,-7.24219 v -36.41797 c 0,-4 3.2461,-7.24609 7.2461,-7.24609 h 189.1289 c 4,0 7.2461,3.24609 7.2461,7.24609 v 36.41797 c 0,4 -3.2461,7.24219 -7.2461,7.24219 z m 0,0"
           id="path30"
           inkscape:connector-curvature="0" />
        <path
           d="m 471.17187,438.93359 h -189.1289 c -4,0 -7.2461,-3.24218 -7.2461,-7.24218 v -36.41797 c 0,-4.00391 3.2461,-7.2461 7.2461,-7.2461 h 189.1289 c 4,0 7.2461,3.24219 7.2461,7.2461 v 36.41797 c 0,4 -3.2461,7.24218 -7.2461,7.24218 z m 0,0"
           id="path32"
           inkscape:connector-curvature="0" />
      </g>
      <path
         d="m 478.41406,98.785818 v 36.417972 c 0,3.9961 -3.23437,7.24219 -7.24219,7.24219 h -16.80468 c 4.00781,0 7.24218,-3.24609 7.24218,-7.24219 V 98.785818 c 0,-3.99609 -3.23437,-7.24218 -7.24218,-7.24218 h 16.80468 c 4.00782,0 7.24219,3.24609 7.24219,7.24218 z m 0,0"
         id="path36"
         inkscape:connector-curvature="0"
         style="fill:#0077f0" />
      <path
         d="m 478.41406,180.44207 v 36.41797 c 0,4.00391 -3.23437,7.24219 -7.24219,7.24219 h -16.80468 c 4.00781,0 7.24218,-3.23828 7.24218,-7.24219 v -36.41797 c 0,-3.99609 -3.23437,-7.24218 -7.24218,-7.24218 h 16.80468 c 4.00782,0 7.24219,3.24609 7.24219,7.24218 z m 0,0"
         id="path38"
         inkscape:connector-curvature="0"
         style="fill:#0077f0" />
      <path
         d="m 478.41406,262.11004 v 36.41407 c 0,3.99609 -3.23437,7.24609 -7.24219,7.24609 h -16.80468 c 4.00781,0 7.24218,-3.25 7.24218,-7.24609 v -36.41407 c 0,-4.00781 -3.23437,-7.24609 -7.24218,-7.24609 h 16.80468 c 4.00782,0 7.24219,3.23828 7.24219,7.24609 z m 0,0"
         id="path40"
         inkscape:connector-curvature="0"
         style="fill:#0077f0" />
      <path
         d="m 69.757812,-81.917296 c 0,8.007812 -6.488281,14.5 -14.496093,14.5 -8.007813,0 -14.496094,-6.492188 -14.496094,-14.5 0,-8.003906 6.488281,-14.496094 14.496094,-14.496094 8.007812,0 14.496093,6.492188 14.496093,14.496094 z m 0,0"
         id="path42"
         inkscape:connector-curvature="0"
         style="fill:#ff6b81" />
      <path
         d="m 125.74609,-81.917296 c 0,8.007812 -6.49218,14.5 -14.49609,14.5 -8.00781,0 -14.5,-6.492188 -14.5,-14.5 0,-8.003906 6.49219,-14.496094 14.5,-14.496094 8.00391,0 14.49609,6.492188 14.49609,14.496094 z m 0,0"
         id="path44"
         inkscape:connector-curvature="0"
         style="fill:#ffd86e" />
      <path
         d="m 181.73047,-81.917296 c 0,8.007812 -6.48828,14.5 -14.4961,14.5 -8.0039,0 -14.49609,-6.492188 -14.49609,-14.5 0,-8.003906 6.49219,-14.496094 14.49609,-14.496094 8.00782,0 14.4961,6.492188 14.4961,14.496094 z m 0,0"
         id="path46"
         inkscape:connector-curvature="0"
         style="fill:#80e0dc" />
      <path
         d="m 69.753906,-81.909484 c 0,8 -6.484375,14.484376 -14.488281,14.484376 -3.875,0 -7.402344,-1.519532 -10,-4.003907 7.84375,-0.171875 14.15625,-6.585937 14.15625,-14.476562 0,-4.136719 -1.726563,-7.855469 -4.496094,-10.492188 0.113281,-0.01172 0.230469,-0.01172 0.339844,-0.01172 8.003906,0 14.488281,6.484376 14.488281,14.500001 z m 0,0"
         id="path48"
         inkscape:connector-curvature="0"
         style="fill:#ff435f" />
      <path
         d="m 125.74219,-81.909484 c 0,8 -6.48438,14.484376 -14.4961,14.484376 -3.875,0 -7.39453,-1.519532 -10,-4.003907 7.85157,-0.171875 14.16797,-6.585937 14.16797,-14.476562 0,-4.136719 -1.73047,-7.855469 -4.49609,-10.492188 0.10937,-0.01172 0.21875,-0.01172 0.32812,-0.01172 8.01172,0 14.4961,6.484376 14.4961,14.500001 z m 0,0"
         id="path50"
         inkscape:connector-curvature="0"
         style="fill:#ffb509" />
      <path
         d="m 181.73437,-81.909484 c 0,8 -6.49609,14.484376 -14.5,14.484376 -3.875,0 -7.39062,-1.519532 -10,-4.003907 7.85547,-0.171875 14.15625,-6.585937 14.15625,-14.476562 0,-4.136719 -1.72656,-7.855469 -4.49609,-10.492188 0.11328,-0.01172 0.23047,-0.01172 0.33984,-0.01172 8.00391,0 14.5,6.484376 14.5,14.500001 z m 0,0"
         id="path52"
         inkscape:connector-curvature="0"
         style="fill:#00a8b0" />
      <path
         d="m 58.960938,53.879568 c 1.460937,1.46094 3.378906,2.19532 5.296874,2.19532 1.917969,0 3.835938,-0.73047 5.300782,-2.19532 2.925781,-2.92578 2.925781,-7.67187 0,-10.59765 L 51.363281,25.086608 69.558594,6.8951982 c 2.925781,-2.92969 2.925781,-7.67188 0,-10.59766 -2.925782,-2.92578 -7.671875,-2.92578 -10.597656,0 L 35.46875,19.789728 c -1.40625,1.40625 -2.195312,3.3125 -2.195312,5.29688 0,1.98828 0.789062,3.89453 2.195312,5.30078 z m 0,0"
         id="path54"
         inkscape:connector-curvature="0" />
      <path
         d="M 133.32031,25.086608 115.125,43.281918 c -2.92578,2.92578 -2.92578,7.67187 0.004,10.59765 1.46093,1.46094 3.3789,2.19532 5.29687,2.19532 1.91797,0 3.83594,-0.73438 5.29688,-2.19532 l 23.49609,-23.49609 c 2.92578,-2.92578 2.92578,-7.67187 0,-10.59375 L 125.72275,-3.7063618 c -2.92578,-2.92578 -7.66797,-2.92578 -10.59375,0 -2.92969,2.92968 -2.92969,7.67187 0,10.59765 z m 0,0"
         id="path56"
         inkscape:connector-curvature="0" />
      <path
         d="m 81.171875,55.555358 c 0.898437,0.35156 1.828125,0.51953 2.738281,0.51953 2.992188,0 5.816406,-1.80469 6.976563,-4.75391 L 109.34375,4.3326982 c 1.51563,-3.85156 -0.38281,-8.19922 -4.23437,-9.71484 -3.84766,-1.51172 -8.199224,0.38281 -9.710942,4.23437 L 76.9375,45.840508 c -1.511719,3.85156 0.382812,8.20313 4.234375,9.71485 z m 0,0"
         id="path58"
         inkscape:connector-curvature="0" />
      <path
         d="m 45.007812,100.03582 h 50.480469 c 4.136719,0 7.492189,-3.355462 7.492189,-7.496092 0,-4.13672 -3.35547,-7.49219 -7.492189,-7.49219 H 45.007812 c -4.140624,0 -7.492187,3.35547 -7.492187,7.49219 0,4.14063 3.351563,7.496092 7.492187,7.496092 z m 0,0"
         id="path60"
         inkscape:connector-curvature="0" />
      <path
         d="m 211.75391,85.047538 h -88.75 c -4.13672,0 -7.49219,3.35547 -7.49219,7.49219 0,4.14063 3.35547,7.496092 7.49219,7.496092 h 88.75 c 4.14062,0 7.49609,-3.355462 7.49609,-7.496092 0,-4.13672 -3.35547,-7.49219 -7.49609,-7.49219 z m 0,0"
         id="path62"
         inkscape:connector-curvature="0" />
      <path
         d="m 45.007812,131.64129 h 21.503907 c 4.136719,0 7.492187,-3.35547 7.492187,-7.49609 0,-4.13672 -3.355468,-7.49219 -7.492187,-7.49219 H 45.007812 c -4.140624,0 -7.492187,3.35547 -7.492187,7.49219 0,4.14062 3.351563,7.49609 7.492187,7.49609 z m 0,0"
         id="path64"
         inkscape:connector-curvature="0" />
      <path
         d="m 184.33984,116.65301 c -4.14062,0 -7.49218,3.35547 -7.49218,7.49219 0,4.14062 3.35156,7.49609 7.49218,7.49609 h 13.09375 c 4.14063,0 7.4961,-3.35547 7.4961,-7.49609 0,-4.13672 -3.35547,-7.49219 -7.4961,-7.49219 z m 0,0"
         id="path66"
         inkscape:connector-curvature="0" />
      <path
         d="m 164.61719,124.1452 c 0,-4.13672 -3.35547,-7.49219 -7.49219,-7.49219 H 92.804688 c -4.140626,0 -7.492188,3.35547 -7.492188,7.49219 0,4.14062 3.351562,7.49609 7.492188,7.49609 H 157.125 c 4.13672,0 7.49219,-3.35547 7.49219,-7.49609 z m 0,0"
         id="path68"
         inkscape:connector-curvature="0" />
      <path
         d="m 213.70312,124.1452 c 0,4.14062 3.35547,7.49609 7.49219,7.49609 h 24.52735 c 4.14062,0 7.49609,-3.35547 7.49609,-7.49609 0,-4.13672 -3.35547,-7.49219 -7.49609,-7.49219 h -24.52735 c -4.13672,0 -7.49219,3.35547 -7.49219,7.49219 z m 0,0"
         id="path70"
         inkscape:connector-curvature="0" />
      <path
         d="m 172.89453,31.098318 h 25.87109 c 4.14063,0 7.4961,-3.35546 7.4961,-7.49609 0,-4.13672 -3.35547,-7.49219 -7.4961,-7.49219 h -25.87109 c -4.14062,0 -7.49609,3.35547 -7.49609,7.49219 0,4.14063 3.35547,7.49609 7.49609,7.49609 z m 0,0"
         id="path72"
         inkscape:connector-curvature="0" />
      <path
         d="m 227.74219,31.098318 h 157.85547 c 4.14062,0 7.49218,-3.35546 7.49218,-7.49609 0,-4.13672 -3.35156,-7.49219 -7.49218,-7.49219 H 227.74219 c -4.14063,0 -7.4961,3.35547 -7.4961,7.49219 0,4.14063 3.35547,7.49609 7.4961,7.49609 z m 0,0"
         id="path74"
         inkscape:connector-curvature="0" />
      <path
         d="m 361.62109,49.078788 h -63.94531 c -4.13672,0 -7.49219,3.35547 -7.49219,7.4961 0,4.13672 3.35547,7.49218 7.49219,7.49218 h 63.94531 c 4.13672,0 7.49219,-3.35546 7.49219,-7.49218 0,-4.14063 -3.35547,-7.4961 -7.49219,-7.4961 z m 0,0"
         id="path76"
         inkscape:connector-curvature="0" />
      <path
         d="m 273.69922,49.078788 h -21.98047 c -4.14062,0 -7.49219,3.35547 -7.49219,7.4961 0,4.13672 3.35157,7.49218 7.49219,7.49218 h 21.98047 c 4.14062,0 7.49219,-3.35546 7.49219,-7.49218 0,-4.14063 -3.35157,-7.4961 -7.49219,-7.4961 z m 0,0"
         id="path78"
         inkscape:connector-curvature="0" />
      <path
         d="m 172.89453,64.067068 h 53.84766 c 4.13672,0 7.49218,-3.35546 7.49218,-7.49218 0,-4.14063 -3.35546,-7.4961 -7.49218,-7.4961 h -53.84766 c -4.14062,0 -7.49609,3.35547 -7.49609,7.4961 0,4.13672 3.35547,7.49218 7.49609,7.49218 z m 0,0"
         id="path80"
         inkscape:connector-curvature="0" />
      <path
         d="m 157.21875,147.99286 h -50.47656 c -4.14063,0 -7.496096,3.35546 -7.496096,7.49218 0,4.13672 3.355466,7.49219 7.496096,7.49219 h 50.47656 c 4.13672,0 7.49219,-3.35547 7.49219,-7.49219 0,-4.13672 -3.35547,-7.49218 -7.49219,-7.49218 z m 0,0"
         id="path82"
         inkscape:connector-curvature="0" />
      <path
         d="m 83.789062,147.99286 h -38.78125 c -4.140624,0 -7.492187,3.35546 -7.492187,7.49218 0,4.13672 3.351563,7.49219 7.492187,7.49219 h 38.78125 c 4.140626,0 7.492188,-3.35547 7.492188,-7.49219 0,-4.13672 -3.351562,-7.49218 -7.492188,-7.49218 z m 0,0"
         id="path84"
         inkscape:connector-curvature="0" />
      <path
         d="m 248.72266,147.99286 h -65.94141 c -4.14063,0 -7.49219,3.35546 -7.49219,7.49218 0,4.13672 3.35156,7.49219 7.49219,7.49219 h 65.94141 c 4.13671,0 7.49218,-3.35547 7.49218,-7.49219 0,-4.13672 -3.35546,-7.49218 -7.49218,-7.49218 z m 0,0"
         id="path86"
         inkscape:connector-curvature="0" />
      <path
         d="m 337.89844,109.50067 h -36.0586 c -4.13672,0 -7.49218,3.35547 -7.49218,7.49219 0,4.14062 3.35546,7.49609 7.49218,7.49609 h 36.0586 c 4.14062,0 7.49218,-3.35547 7.49218,-7.49609 0,-4.13672 -3.35156,-7.49219 -7.49218,-7.49219 z m 0,0"
         id="path88"
         inkscape:connector-curvature="0" />
      <path
         d="m 400.46875,124.48895 h 50.90234 c 4.14063,0 7.4961,-3.35547 7.4961,-7.49609 0,-4.13672 -3.35547,-7.49219 -7.4961,-7.49219 h -50.90234 c -4.14063,0 -7.49219,3.35547 -7.49219,7.49219 0,4.14062 3.35547,7.49609 7.49219,7.49609 z m 0,0"
         id="path90"
         inkscape:connector-curvature="0" />
      <path
         d="m 375.01562,109.50067 h -11.66406 c -4.14062,0 -7.49609,3.35547 -7.49609,7.49219 0,4.14062 3.35547,7.49609 7.49609,7.49609 h 11.66406 c 4.14063,0 7.49219,-3.35547 7.49219,-7.49609 0,-4.13672 -3.35156,-7.49219 -7.49219,-7.49219 z m 0,0"
         id="path92"
         inkscape:connector-curvature="0" />
      <path
         d="m 301.83984,206.1452 h 36.0586 c 4.14062,0 7.49219,-3.35156 7.49219,-7.49219 0,-4.13672 -3.35157,-7.49219 -7.49219,-7.49219 h -36.0586 c -4.13671,0 -7.49218,3.35547 -7.49218,7.49219 0,4.14063 3.35547,7.49219 7.49218,7.49219 z m 0,0"
         id="path94"
         inkscape:connector-curvature="0" />
      <path
         d="m 400.46875,206.1452 h 50.90234 c 4.14063,0 7.4961,-3.35156 7.4961,-7.49219 0,-4.13672 -3.35547,-7.49219 -7.4961,-7.49219 h -50.90234 c -4.14063,0 -7.49219,3.35547 -7.49219,7.49219 0,4.14063 3.35547,7.49219 7.49219,7.49219 z m 0,0"
         id="path96"
         inkscape:connector-curvature="0" />
      <path
         d="m 363.35156,206.1452 h 11.66406 c 4.14063,0 7.4961,-3.35156 7.4961,-7.49219 0,-4.13672 -3.35547,-7.49219 -7.4961,-7.49219 h -11.66406 c -4.14062,0 -7.49219,3.35547 -7.49219,7.49219 0,4.14063 3.35157,7.49219 7.49219,7.49219 z m 0,0"
         id="path98"
         inkscape:connector-curvature="0" />
      <path
         d="m 337.89844,272.82098 h -36.0586 c -4.13672,0 -7.49218,3.35547 -7.49218,7.49219 0,4.13672 3.35546,7.49219 7.49218,7.49219 h 36.0586 c 4.14062,0 7.49218,-3.35547 7.49218,-7.49219 0,-4.13672 -3.35156,-7.49219 -7.49218,-7.49219 z m 0,0"
         id="path100"
         inkscape:connector-curvature="0" />
      <path
         d="m 451.37109,272.82098 h -50.90234 c -4.14063,0 -7.49219,3.35547 -7.49219,7.49219 0,4.13672 3.35156,7.49219 7.49219,7.49219 h 50.90234 c 4.14063,0 7.4961,-3.35547 7.4961,-7.49219 0,-4.13672 -3.35547,-7.49219 -7.4961,-7.49219 z m 0,0"
         id="path102"
         inkscape:connector-curvature="0" />
      <path
         d="m 375.01562,272.82098 h -11.66406 c -4.14062,0 -7.49609,3.35547 -7.49609,7.49219 0,4.13672 3.35547,7.49219 7.49609,7.49219 h 11.66406 c 4.14063,0 7.49219,-3.35547 7.49219,-7.49219 0,-4.13672 -3.35156,-7.49219 -7.49219,-7.49219 z m 0,0"
         id="path104"
         inkscape:connector-curvature="0" />
      <path
         d="M 479.02344,-132.66729 H 32.980469 C 14.796875,-132.66729 0,-117.87433 0,-99.686827 V 262.87957 c 0,18.1836 14.796875,32.97657 32.980469,32.97657 h 28.199219 c 4.136718,0 7.492187,-3.35157 7.492187,-7.49219 0,-4.13672 -3.355469,-7.49219 -7.492187,-7.49219 H 32.980469 c -9.921875,0 -17.992188,-8.07031 -17.992188,-17.99219 V 234.45379 H 287.98437 v 12.91407 h -5.9414 c -8.12891,0 -14.73828,6.60937 -14.73828,14.73828 v 18.76562 H 106.73828 c -4.13672,0 -7.492186,3.35547 -7.492186,7.49219 0,4.14062 3.355466,7.49219 7.492186,7.49219 h 72.04688 v 26.875 h -22.625 c -15.09375,0 -27.3711,12.28125 -27.3711,27.37109 v 16.1875 c 0,6.88672 5.60157,12.48828 12.48828,12.48828 h 228.875 c 6.88672,0 12.48829,-5.60156 12.48829,-12.48828 v -16.1875 c 0,-15.08984 -12.27735,-27.37109 -27.3711,-27.37109 h -22.625 v -9.47266 h 138.52735 c 8.125,0 14.73437,-6.60937 14.73437,-14.73828 v -3.52734 c 14.60547,-3.39063 25.52344,-16.4961 25.52344,-32.11329 l 0.5664,-362.570304 C 512,-117.87433 497.20703,-132.66729 479.02344,-132.66729 Z M 282.29297,216.61395 v -35.91797 h 188.6289 v 35.91797 z m 20.67578,-50.90625 v -15.76563 h 147.27344 v 15.76563 z m 147.27344,65.89062 v 15.76954 H 302.96875 v -15.76954 z m -256.47266,64.25782 h 73.53516 v 2.66797 c 0,8.125 6.60937,14.73437 14.73828,14.73437 h 35.61719 v 9.47266 H 193.76953 Z m 161.50391,41.86328 c 6.82812,0 12.38281,5.55469 12.38281,12.38281 v 13.69141 H 143.77344 v -13.69141 c 0,-6.82812 5.55859,-12.38281 12.38672,-12.38281 z M 470.92187,298.2702 h -188.6289 v -35.91406 h 188.6289 z m 25.52344,-35.39063 c 0,7.25782 -4.32812,13.51172 -10.53515,16.35157 v -17.12891 c 0,-8.125 -6.61329,-14.73437 -14.73829,-14.73437 h -5.9414 v -12.91407 h 31.21484 z m 0,-43.41015 h -10.78125 c 0.15235,-0.84766 0.2461,-39.02344 0.2461,-39.02344 0,-8.12891 -6.61329,-14.73828 -14.73829,-14.73828 h -5.9414 v -15.76563 h 5.9414 c 8.125,0 14.73829,-6.61328 14.73829,-14.73828 V 98.785818 c 0,-8.125 -6.61328,-14.73828 -14.73829,-14.73828 h -42.32421 c -4.14063,0 -7.49219,3.35547 -7.49219,7.4961 0,4.13672 3.35156,7.49218 7.49219,7.49218 h 42.07421 V 134.95379 H 282.29297 V 99.035818 h 99.92969 c 4.14062,0 7.49218,-3.35546 7.49218,-7.49218 0,-4.14063 -3.35156,-7.4961 -7.49218,-7.4961 H 282.04297 c -8.12891,0 -14.73828,6.61328 -14.73828,14.73828 v 36.417972 c 0,8.125 6.60937,14.73828 14.73828,14.73828 h 5.9414 v 15.76563 h -5.9414 c -8.12891,0 -14.73828,6.61328 -14.73828,14.73828 0,0 0.0937,38.17578 0.24609,39.02344 H 14.988281 V -30.737612 H 496.44531 Z m 0,-265.19531 H 15.539062 v -53.964844 c 0,-9.917966 8.070313,-17.988276 17.992188,-17.988276 h 444.92187 c 9.92188,0 17.99219,8.07031 17.99219,17.992183 z m 0,0"
         id="path106"
         inkscape:connector-curvature="0" />
      <path
         d="m 55.261719,-103.90558 c -12.125,0 -21.988281,9.863284 -21.988281,21.988284 0,12.125 9.863281,21.992188 21.988281,21.992188 12.125,0 21.992187,-9.867188 21.992187,-21.992188 0,-12.125 -9.867187,-21.988284 -21.992187,-21.988284 z m 0,28.99219 c -3.859375,0 -7.003907,-3.140625 -7.003907,-7.003906 0,-3.859375 3.144532,-7.003906 7.003907,-7.003906 3.863281,0 7.003906,3.144531 7.003906,7.003906 0,3.863281 -3.140625,7.003906 -7.003906,7.003906 z m 0,0"
         id="path108"
         inkscape:connector-curvature="0" />
      <path
         d="m 111.25,-103.90558 c -12.125,0 -21.992188,9.863284 -21.992188,21.988284 0,12.125 9.867188,21.992188 21.992188,21.992188 12.125,0 21.98828,-9.867188 21.98828,-21.992188 0,-12.125 -9.86719,-21.988284 -21.98828,-21.988284 z m 0,28.99219 c -3.86328,0 -7.00391,-3.140625 -7.00391,-7.003906 0,-3.859375 3.14063,-7.003906 7.00391,-7.003906 3.85938,0 7.00391,3.144531 7.00391,7.003906 0,3.863281 -3.14453,7.003906 -7.00391,7.003906 z m 0,0"
         id="path110"
         inkscape:connector-curvature="0" />
      <path
         d="m 167.23437,-103.90558 c -12.125,0 -21.98828,9.863284 -21.98828,21.988284 0,12.125 9.86328,21.992188 21.98828,21.992188 12.125,0 21.99219,-9.867188 21.99219,-21.992188 0,-12.125 -9.86719,-21.988284 -21.99219,-21.988284 z m 0,28.99219 c -3.85937,0 -7.0039,-3.140625 -7.0039,-7.003906 0,-3.859375 3.14453,-7.003906 7.0039,-7.003906 3.86329,0 7.00391,3.144531 7.00391,7.003906 0,3.863281 -3.14062,7.003906 -7.00391,7.003906 z m 0,0"
         id="path112"
         inkscape:connector-curvature="0" />
    </g>
  </g>
</svg>
